<?xml version="1.0" encoding="utf-8"?>
<!-- Generator: Adobe Illustrator 19.0.0, SVG Export Plug-In . SVG Version: 6.00 Build 0)  -->
<svg version="1.1" id="Capa_1" xmlns="http://www.w3.org/2000/svg" xmlns:xlink="http://www.w3.org/1999/xlink" x="0px" y="0px"
	 viewBox="-346 91.5 265.3 379.5" style="enable-background:new -346 91.5 265.3 379.5;" xml:space="preserve">
<style type="text/css">
	.st0{fill:#008000;}
	.st1{fill:#999999;stroke:#808080;stroke-width:0.2046;}
	.st2{opacity:0.4968;fill:#2C2C2C;enable-background:new    ;}
	.st3{fill:#FF0000;stroke:#800000;stroke-width:0.86;stroke-linecap:round;stroke-linejoin:round;}
	.st4{fill:none;stroke:#FF00FF;stroke-width:0.9262;stroke-linecap:round;stroke-linejoin:round;}
	.st5{fill:url(#SVGID_1_);}
	.st6{fill:url(#SVGID_2_);}
	.st7{fill:#CECECE;}
	.st8{fill:url(#SVGID_3_);}
	.st9{fill:url(#SVGID_4_);}
</style>
<g>
	<g transform="matrix(.99958 .53711 -.39461 .74348 566.1 182.23)">
		<path class="st0" d="M-627.7,464l0,5l-25.4,0.2l0-5L-627.7,464"/>
		<g transform="translate(-.050077 -2.0654)">
			<path class="st1" d="M-652.9,466.7l25.1,0.1l-25.1,0.2"/>
			<path class="st1" d="M-652.9,467.6l25.1,0.1l-25.1,0.2"/>
			<path class="st1" d="M-652.9,468.6l25.1,0.1l-25.1,0.2"/>
			<path class="st1" d="M-652.9,469.5l25.1,0.1l-25.1,0.2"/>
			<path class="st1" d="M-652.9,470.4l25.1,0.1l-25.1,0.2"/>
		</g>
	</g>
	<g>
		<path class="st2" d="M-225,208.4l0.6,0.4l30.4,25.9l0.2-0.2l27.4,27.6l13.7,9.6l2.5-3.1l-8.8-13.9l-27.9-28.1l-26.7-30.8
			c-1.3-1.9-2.7-3.9-4.1-6l0.3,0.4l-52.7-56.3c-6.5,3.7-12.1,8.8-16.2,15L-225,208.4L-225,208.4z"/>
	</g>
	<path class="st3" d="M-245.3,171.1c-2.1,0-3.7-1.7-3.7-3.7c0-2.1,1.7-3.7,3.7-3.7s3.7,1.7,3.7,3.7
		C-241.6,169.4-243.2,171.1-245.3,171.1z"/>
	<path class="st4" d="M-245.6,169.8c-1.1,0-2-1-2-2.1s1-2,2.1-2s2,1,2,2.1C-243.6,168.9-244.5,169.8-245.6,169.8z"/>
	
		<linearGradient id="SVGID_1_" gradientUnits="userSpaceOnUse" x1="298.1165" y1="327.5557" x2="242.3765" y2="280.2357" gradientTransform="matrix(-1.346898e-010 1 -1 -1.346898e-010 90.4825 -75.6616)">
		<stop  offset="0" style="stop-color:#BDBDBD"/>
		<stop  offset="0.3215" style="stop-color:#DCDCDC"/>
		<stop  offset="0.3949" style="stop-color:#AFAFAF"/>
		<stop  offset="0.6622" style="stop-color:#F4F4F4"/>
		<stop  offset="1" style="stop-color:#C8C8C8"/>
	</linearGradient>
	<path class="st5" d="M-154.1,257l-10.1-10.9l-25.9-27l-24.9-29.7c-14.3-20.6-31-58.1-26-65.3c-24.3-2.4-45.9,15.4-48.3,39.7
		c-0.1,34.4,12.2,10.4,33.2,20.6l31,15l28.3,27.4l1.6-1.6l26,26.6l12.3,8.7L-154.1,257L-154.1,257z"/>
	<g transform="matrix(1.0718 .0061412 -.0062344 1.088 -36.673 -41.071)">
		
			<linearGradient id="SVGID_2_" gradientUnits="userSpaceOnUse" x1="198.4725" y1="300.9286" x2="212.2025" y2="315.3586" gradientTransform="matrix(-1.012270e-004 1.1317 -1.2017 9.842079e-005 207.1765 -4.6162)">
			<stop  offset="0" style="stop-color:#F0F0F0"/>
			<stop  offset="0.2" style="stop-color:#E0E0E0"/>
			<stop  offset="0.3542" style="stop-color:#8C8C8C"/>
			<stop  offset="0.5863" style="stop-color:#E9E9E9"/>
			<stop  offset="0.7454" style="stop-color:#999999"/>
			<stop  offset="1" style="stop-color:#BFBFBF"/>
		</linearGradient>
		<path class="st6" d="M-169.9,228.6l0.6,0.3l28.7,24.5l0.1-0.2l25.9,26.2l13,9.1l2.3-3l-8.3-13.2l-26.3-26.6l-25.3-29.3
			c-1.2-1.8-2.5-3.6-3.9-5.7l0.3,0.4l-49.7-53.4c-6.2,3.4-11.4,8.4-15.2,14.2L-169.9,228.6L-169.9,228.6z"/>
		<path class="st7" d="M-107.3,277.2l-2.9,2.3l-5.9-6l2.9-2.3L-107.3,277.2"/>
		<path class="st7" d="M-116.8,267.2l-2.9,2.3l-5.9-6l2.9-2.3L-116.8,267.2"/>
		<path class="st7" d="M-126.5,257.4l-2.9,2.3l-5.9-6l2.9-2.3L-126.5,257.4"/>
		<path class="st7" d="M-137.7,246.4l-3,2.1l-12.6-12.5l3-2.1L-137.7,246.4"/>
		
			<linearGradient id="SVGID_3_" gradientUnits="userSpaceOnUse" x1="-71.2669" y1="-806.8909" x2="-68.6468" y2="-806.8909" gradientTransform="matrix(-0.8383 0.7866 -0.7915 -0.8775 -800.6189 -368.8205)">
			<stop  offset="0" style="stop-color:#7C7C7C"/>
			<stop  offset="4.310000e-002" style="stop-color:#9E9E9E;stop-opacity:0.9922"/>
			<stop  offset="0.11" style="stop-color:#4D4D4D;stop-opacity:0.9882"/>
			<stop  offset="0.2985" style="stop-color:#787878;stop-opacity:0.9882"/>
			<stop  offset="0.3534" style="stop-color:#ABABAB;stop-opacity:0.9882"/>
			<stop  offset="0.4107" style="stop-color:#646464;stop-opacity:0.9882"/>
			<stop  offset="0.6146" style="stop-color:#525252;stop-opacity:0.9882"/>
			<stop  offset="0.6719" style="stop-color:#A6A6A6;stop-opacity:0.9882"/>
			<stop  offset="0.7406" style="stop-color:#595959;stop-opacity:0.9882"/>
			<stop  offset="0.8839" style="stop-color:#5F5F5F;stop-opacity:0.9882"/>
			<stop  offset="0.9365" style="stop-color:#ADADAD;stop-opacity:0.9843"/>
			<stop  offset="1" style="stop-color:#525252;stop-opacity:0.9843"/>
		</linearGradient>
		<path class="st8" d="M-100.1,285.4l-2,1.9l-4.2-4.6l2-1.9L-100.1,285.4"/>
	</g>
	
		<radialGradient id="SVGID_4_" cx="332.6883" cy="89.4099" r="6.014" gradientTransform="matrix(-1.389864e-010 1.0319 -1.0319 -1.389864e-010 -154.6567 -176.202)" gradientUnits="userSpaceOnUse">
		<stop  offset="0" style="stop-color:#000000"/>
		<stop  offset="0.1335" style="stop-color:#212121"/>
		<stop  offset="0.2148" style="stop-color:#ADADAD"/>
		<stop  offset="0.27" style="stop-color:#AFAFAF"/>
		<stop  offset="0.3041" style="stop-color:#FFFFFF"/>
		<stop  offset="0.3495" style="stop-color:#CACACA"/>
		<stop  offset="0.5665" style="stop-color:#B6B6B6"/>
		<stop  offset="0.6588" style="stop-color:#FFFFFF"/>
		<stop  offset="0.7055" style="stop-color:#BDBDBD"/>
		<stop  offset="0.7333" style="stop-color:#C6C6C6"/>
		<stop  offset="0.9114" style="stop-color:#DFDFDF"/>
		<stop  offset="0.9544" style="stop-color:#9E9E9E"/>
		<stop  offset="1" style="stop-color:#5D5D5D"/>
	</radialGradient>
	<path class="st9" d="M-246.9,173.3c-3.4,0-6.2-2.8-6.2-6.2s2.8-6.2,6.2-6.2s6.2,2.8,6.2,6.2C-240.7,170.5-243.5,173.3-246.9,173.3z
		"/>
</g>
</svg>
