<?xml version="1.0" encoding="utf-8"?>
<!-- Generator: Adobe Illustrator 19.0.0, SVG Export Plug-In . SVG Version: 6.00 Build 0)  -->
<svg version="1.1" id="Capa_1" xmlns="http://www.w3.org/2000/svg" xmlns:xlink="http://www.w3.org/1999/xlink" x="0px" y="0px"
	 viewBox="-346 91.5 265.3 379.5" style="enable-background:new -346 91.5 265.3 379.5;" xml:space="preserve">
<style type="text/css">
	.st0{fill:url(#SVGID_1_);stroke:#1A1A1A;stroke-width:0.2401;stroke-linecap:round;stroke-linejoin:round;}
	.st1{fill:url(#SVGID_2_);}
	.st2{fill:url(#SVGID_3_);stroke:#1A1A1A;stroke-width:0.2401;stroke-linecap:round;stroke-linejoin:round;}
	.st3{fill:url(#SVGID_4_);}
	.st4{fill:url(#SVGID_5_);stroke:#1A1A1A;stroke-width:0.2401;stroke-linecap:round;stroke-linejoin:round;}
	.st5{fill:url(#SVGID_6_);}
	.st6{fill:url(#SVGID_7_);}
	.st7{fill:url(#SVGID_8_);}
	.st8{fill:url(#SVGID_9_);}
	.st9{fill:url(#SVGID_10_);}
	.st10{fill:url(#SVGID_11_);}
	.st11{fill:url(#SVGID_12_);}
	.st12{fill:url(#SVGID_13_);}
	.st13{fill:url(#SVGID_14_);}
	.st14{fill:url(#SVGID_15_);stroke:#4D4D4D;stroke-width:0.2503;}
	.st15{fill:url(#SVGID_16_);}
	.st16{fill:url(#SVGID_17_);}
	.st17{fill:url(#SVGID_18_);}
	.st18{fill:url(#SVGID_19_);}
	.st19{fill:url(#SVGID_20_);stroke:#4D4D4D;stroke-width:0.2503;}
	.st20{fill:url(#SVGID_21_);}
	.st21{fill:url(#SVGID_22_);}
	.st22{fill:url(#SVGID_23_);}
	.st23{fill:url(#SVGID_24_);}
	.st24{fill:url(#SVGID_25_);stroke:#4D4D4D;stroke-width:0.2503;}
	.st25{fill:url(#SVGID_26_);}
	.st26{fill:url(#SVGID_27_);}
	.st27{fill:url(#SVGID_28_);}
	.st28{fill:url(#SVGID_29_);}
	.st29{fill:url(#SVGID_30_);stroke:#4D4D4D;stroke-width:0.2503;}
	.st30{fill:url(#SVGID_31_);}
	.st31{fill:url(#SVGID_32_);}
	.st32{fill:url(#SVGID_33_);}
	.st33{fill:url(#SVGID_34_);}
	.st34{fill:url(#SVGID_35_);stroke:#4D4D4D;stroke-width:0.2503;}
	.st35{fill:url(#SVGID_36_);}
	.st36{fill:url(#SVGID_37_);}
	.st37{fill:url(#SVGID_38_);}
	.st38{fill:url(#SVGID_39_);}
	.st39{fill:url(#SVGID_40_);stroke:#4D4D4D;stroke-width:0.2503;}
	.st40{fill:url(#SVGID_41_);}
	.st41{fill:url(#SVGID_42_);}
	.st42{fill:url(#SVGID_43_);}
	.st43{fill:url(#SVGID_44_);}
	.st44{fill:url(#SVGID_45_);stroke:#4D4D4D;stroke-width:0.2503;}
	.st45{fill:url(#SVGID_46_);}
	.st46{fill:url(#SVGID_47_);}
	.st47{fill:url(#SVGID_48_);}
	.st48{fill:url(#SVGID_49_);}
	.st49{fill:url(#SVGID_50_);stroke:#4D4D4D;stroke-width:0.2503;}
	.st50{fill:url(#SVGID_51_);}
	.st51{fill:url(#SVGID_52_);}
	.st52{fill:url(#SVGID_53_);}
	.st53{fill:url(#SVGID_54_);}
	.st54{fill:url(#SVGID_55_);stroke:#4D4D4D;stroke-width:0.2503;}
	.st55{fill:url(#SVGID_56_);}
	.st56{fill:url(#SVGID_57_);}
	.st57{fill:url(#SVGID_58_);}
	.st58{fill:url(#SVGID_59_);}
	.st59{fill:url(#SVGID_60_);stroke:#4D4D4D;stroke-width:0.2503;}
	.st60{fill:url(#SVGID_61_);}
	.st61{fill:url(#SVGID_62_);}
	.st62{fill:url(#SVGID_63_);}
	.st63{fill:url(#SVGID_64_);}
	.st64{fill:url(#SVGID_65_);stroke:#4D4D4D;stroke-width:0.2503;}
	.st65{fill:url(#SVGID_66_);}
	.st66{fill:url(#SVGID_67_);}
	.st67{fill:url(#SVGID_68_);}
	.st68{fill:url(#SVGID_69_);}
	.st69{fill:url(#SVGID_70_);stroke:#4D4D4D;stroke-width:0.2503;}
	.st70{fill:url(#SVGID_71_);}
</style>
<g>
	
		<linearGradient id="SVGID_1_" gradientUnits="userSpaceOnUse" x1="-389.8265" y1="49.7143" x2="-580.3565" y2="254.2343" gradientTransform="matrix(0.524 0.6473 0.6473 -0.524 -751.1268 803.0233)">
		<stop  offset="0" style="stop-color:#A2A2A2"/>
		<stop  offset="1" style="stop-color:#FFFFFF;stop-opacity:0.9913"/>
	</linearGradient>
	<path class="st0" d="M-828.7,510c-53.7,43.5-132.5,35.2-176-18.5c-43.5-53.7-35.2-132.5,18.5-176s132.5-35.2,176,18.5
		C-766.7,387.8-775,466.5-828.7,510z"/>
	
		<linearGradient id="SVGID_2_" gradientUnits="userSpaceOnUse" x1="-3166.7288" y1="497.5234" x2="-2866.3145" y2="497.5234" gradientTransform="matrix(-0.5165 -0.638 -0.638 0.5165 -2148.1563 -1768.7725)">
		<stop  offset="0" style="stop-color:#E4E4E4"/>
		<stop  offset="1" style="stop-color:#E4E4E4;stop-opacity:0"/>
	</linearGradient>
	<path class="st1" d="M-985,317c52.9-42.8,130.5-34.7,173.4,18.3s34.7,130.5-18.3,173.4s-130.5,34.7-173.4-18.3S-1038,359.8-985,317
		z"/>
	
		<linearGradient id="SVGID_3_" gradientUnits="userSpaceOnUse" x1="-389.8913" y1="49.6539" x2="-580.4213" y2="254.1739" gradientTransform="matrix(0.524 0.6473 0.6473 -0.524 -749.5724 801.7649)">
		<stop  offset="0" style="stop-color:#A2A2A2"/>
		<stop  offset="1" style="stop-color:#FFFFFF;stop-opacity:0.9913"/>
	</linearGradient>
	<path class="st2" d="M-827.2,508.7c-53.7,43.5-132.5,35.2-176-18.5c-43.5-53.7-35.2-132.5,18.5-176s132.5-35.2,176,18.5
		C-765.2,386.4-773.5,465.3-827.2,508.7z"/>
	
		<linearGradient id="SVGID_4_" gradientUnits="userSpaceOnUse" x1="-3166.6292" y1="497.5347" x2="-2866.2148" y2="497.5347" gradientTransform="matrix(-0.5165 -0.638 -0.638 0.5165 -2146.6016 -1770.0309)">
		<stop  offset="0" style="stop-color:#E4E4E4"/>
		<stop  offset="1" style="stop-color:#E4E4E4;stop-opacity:0"/>
	</linearGradient>
	<path class="st3" d="M-983.5,315.7C-930.6,272.9-853,281-810.1,334c42.9,53,34.7,130.5-18.3,173.4s-130.5,34.7-173.4-18.3
		S-1036.4,358.5-983.5,315.7z"/>
	
		<linearGradient id="SVGID_5_" gradientUnits="userSpaceOnUse" x1="-389.8963" y1="49.6492" x2="-580.4263" y2="254.1692" gradientTransform="matrix(0.524 0.6473 0.6473 -0.524 -748.0178 800.5065)">
		<stop  offset="0" style="stop-color:#A2A2A2"/>
		<stop  offset="1" style="stop-color:#FFFFFF;stop-opacity:0.9913"/>
	</linearGradient>
	<path class="st4" d="M-825.7,507.5c-53.7,43.5-132.5,35.2-176-18.5c-43.5-53.7-35.2-132.5,18.5-176s132.5-35.2,176,18.5
		C-763.7,385.3-772,464-825.7,507.5z"/>
	
		<linearGradient id="SVGID_6_" gradientUnits="userSpaceOnUse" x1="-3166.644" y1="497.5045" x2="-2866.23" y2="497.5045" gradientTransform="matrix(-0.5165 -0.638 -0.638 0.5165 -2145.0471 -1771.2892)">
		<stop  offset="0" style="stop-color:#E4E4E4"/>
		<stop  offset="1" style="stop-color:#E4E4E4;stop-opacity:0"/>
	</linearGradient>
	<path class="st5" d="M-982,314.4c52.9-42.8,130.5-34.7,173.4,18.3c42.9,53,34.7,130.5-18.3,173.4c-52.9,42.8-130.5,34.7-173.4-18.3
		C-1043,434.9-1034.8,357.2-982,314.4z"/>
	
		<linearGradient id="SVGID_7_" gradientUnits="userSpaceOnUse" x1="-772.7276" y1="150.3686" x2="-786.6076" y2="188.0185" gradientTransform="matrix(0.7069 0.8732 0.8805 -0.7127 -514.0687 1234.1835)">
		<stop  offset="0" style="stop-color:#060606"/>
		<stop  offset="1" style="stop-color:#909090;stop-opacity:0"/>
	</linearGradient>
	<path class="st6" d="M-877.9,446.3c-18.3,14.9-45.1,12.1-59.8-6c-14.7-18.2-11.8-44.9,6.5-59.7c18.3-14.9,45-12.1,59.8,6.1
		S-859.6,431.4-877.9,446.3L-877.9,446.3z"/>
	
		<radialGradient id="SVGID_8_" cx="-762.6596" cy="183.6486" r="37.6371" gradientTransform="matrix(0.6891 0.8512 0.8512 -0.6891 -535.1475 1185.9038)" gradientUnits="userSpaceOnUse">
		<stop  offset="0" style="stop-color:#F4F4F4"/>
		<stop  offset="0.8421" style="stop-color:#E5E5E5"/>
		<stop  offset="0.8549" style="stop-color:#878787"/>
		<stop  offset="0.9086" style="stop-color:#F0F0F0"/>
		<stop  offset="0.9598" style="stop-color:#E7E7E7"/>
		<stop  offset="1" style="stop-color:#A9A9A9;stop-opacity:0.9739"/>
	</radialGradient>
	<path class="st7" d="M-878.4,442.2c-17.7,14.3-43.7,11.6-58-6.2c-14.3-17.7-11.6-43.7,6.2-58c17.7-14.3,43.7-11.6,58,6.2
		C-858,402-860.7,427.9-878.4,442.2L-878.4,442.2z"/>
	
		<radialGradient id="SVGID_9_" cx="-778.2138" cy="187.7001" r="18.1233" gradientTransform="matrix(0.7032 0.8686 0.8686 -0.7032 -520.1324 1218.2089)" gradientUnits="userSpaceOnUse">
		<stop  offset="0" style="stop-color:#DADADA"/>
		<stop  offset="0.123" style="stop-color:#D5D5D5"/>
		<stop  offset="0.1518" style="stop-color:#B5B5B5"/>
		<stop  offset="0.2138" style="stop-color:#EEEEEE"/>
		<stop  offset="0.2565" style="stop-color:#D7D7D7"/>
		<stop  offset="0.271" style="stop-color:#E0E0E0"/>
		<stop  offset="0.8225" style="stop-color:#EAEAEA"/>
		<stop  offset="0.8501" style="stop-color:#828282;stop-opacity:0.9843"/>
		<stop  offset="0.9007" style="stop-color:#E9E9E9"/>
		<stop  offset="0.9605" style="stop-color:#E7E7E7"/>
		<stop  offset="1" style="stop-color:#ADADAD"/>
	</radialGradient>
	<path class="st8" d="M-891.5,426c-8.7,7-21.5,5.7-28.6-3c-7-8.7-5.7-21.5,3-28.6c8.7-7,21.5-5.7,28.6,3
		C-881.5,406.1-882.9,419-891.5,426z"/>
	
		<radialGradient id="SVGID_10_" cx="8247.0078" cy="-1241.5197" r="23.479" gradientTransform="matrix(6.455563e-002 7.974540e-002 7.974540e-002 -6.455563e-002 -1337.6937 -327.5356)" gradientUnits="userSpaceOnUse">
		<stop  offset="0" style="stop-color:#111111"/>
		<stop  offset="0.9324" style="stop-color:#505050"/>
		<stop  offset="1" style="stop-color:#ABABAB"/>
	</radialGradient>
	<path class="st9" d="M-902.8,412.1c-1,0.8-2.6,0.6-3.4-0.4c-0.8-1-0.6-2.6,0.4-3.4c1-0.8,2.6-0.6,3.4,0.4
		C-901.7,409.7-901.8,411.3-902.8,412.1z"/>
	
		<linearGradient id="SVGID_11_" gradientUnits="userSpaceOnUse" x1="-2653.4448" y1="422.5499" x2="-2699.4246" y2="472.3199" gradientTransform="matrix(-0.6891 -0.8512 -0.8512 0.6891 -2367.9517 -2175.2783)">
		<stop  offset="0" style="stop-color:#FFFFFF;stop-opacity:0.8261"/>
		<stop  offset="0.5" style="stop-color:#7E7E7E;stop-opacity:0"/>
		<stop  offset="1" style="stop-color:#000000;stop-opacity:9.570000e-002"/>
	</linearGradient>
	<path class="st10" d="M-930.4,378.1c17.7-14.3,43.7-11.6,58,6.2c14.3,17.7,11.6,43.7-6.2,58c-17.7,14.3-43.7,11.6-58-6.2
		S-948,392.5-930.4,378.1L-930.4,378.1z"/>
	
		<linearGradient id="SVGID_12_" gradientUnits="userSpaceOnUse" x1="-362.9225" y1="288.7375" x2="-356.3525" y2="281.5475" gradientTransform="matrix(0.6492 0.8021 0.8021 -0.6492 -921.8109 901.8546)">
		<stop  offset="0" style="stop-color:#000000"/>
		<stop  offset="1" style="stop-color:#000000;stop-opacity:0"/>
	</linearGradient>
	<path class="st11" d="M-922.7,433.1c-2.7,2.1-6.6,1.8-8.7-0.9c-2.1-2.7-1.8-6.6,0.9-8.7s6.6-1.8,8.7,0.9
		C-919.7,427-920.1,431-922.7,433.1z"/>
	
		<linearGradient id="SVGID_13_" gradientUnits="userSpaceOnUse" x1="-3791.4697" y1="2634.2178" x2="-3799.2998" y2="2645.4478" gradientTransform="matrix(-0.3839 6.077447e-002 6.077447e-002 0.3839 -2541.7954 -351.9945)">
		<stop  offset="0" style="stop-color:#000000"/>
		<stop  offset="1" style="stop-color:#000000;stop-opacity:0"/>
	</linearGradient>
	<path class="st12" d="M-932,429.2c-0.4-3,1.5-5.8,4.4-6.2c3-0.4,5.8,1.5,6.2,4.4c0.4,3-1.5,5.8-4.4,6.2
		C-928.8,434.2-931.5,432.1-932,429.2z"/>
	
		<linearGradient id="SVGID_14_" gradientUnits="userSpaceOnUse" x1="-3826.126" y1="2726.8159" x2="-3839.5059" y2="2742.4258" gradientTransform="matrix(-0.369 5.833123e-002 5.833123e-002 0.369 -2500.3357 -356.9221)">
		<stop  offset="0" style="stop-color:#BFBFBF"/>
		<stop  offset="1" style="stop-color:#F4F4F4"/>
	</linearGradient>
	<path class="st13" d="M-931.9,429.2c-0.5-2.9,1.5-5.5,4.3-5.9c2.9-0.5,5.5,1.5,5.9,4.3c0.5,2.9-1.5,5.5-4.3,5.9
		C-928.7,434-931.4,432-931.9,429.2z"/>
	<g transform="matrix(.39958 -.69208 .69208 .39958 -1040.9 755.46)">
		
			<radialGradient id="SVGID_15_" cx="8655.3633" cy="1573.7266" r="5.869" gradientTransform="matrix(-0.1369 0.4392 0.4498 0.2045 903.106 -4203.9961)" gradientUnits="userSpaceOnUse">
			<stop  offset="0" style="stop-color:#F2F2F2"/>
			<stop  offset="1" style="stop-color:#141414"/>
		</radialGradient>
		<path class="st14" d="M423.9-75.5c-0.2-1.8-0.6-3.8-3.7-4.6c2.4-1.4,2.5-3.3,2.1-5.4c1.8,1,3.8,1.1,5.7-0.9
			c0.1,2.5,1.4,3.8,3.7,4.6c-1.9,1.2-2.7,2.8-2.1,5.4C427.7-77.5,425.8-77.4,423.9-75.5z"/>
		
			<radialGradient id="SVGID_16_" cx="10046.4414" cy="1528.2632" r="5.2603" gradientTransform="matrix(-0.11 0.2865 0.2865 0.11 1093.2306 -3127.0129)" gradientUnits="userSpaceOnUse">
			<stop  offset="0" style="stop-color:#F0F0F0"/>
			<stop  offset="1" style="stop-color:#AFAFAF"/>
		</radialGradient>
		<path class="st15" d="M428-78.5c-1.3,1.1-3.3,0.9-4.5-0.5c-1.1-1.3-0.9-3.3,0.5-4.5c1.4-1.1,3.3-0.9,4.5,0.5
			C429.5-81.5,429.3-79.5,428-78.5z"/>
	</g>
	
		<linearGradient id="SVGID_17_" gradientUnits="userSpaceOnUse" x1="-362.9504" y1="288.7119" x2="-356.3804" y2="281.5219" gradientTransform="matrix(0.6492 0.8021 0.8021 -0.6492 -909.7628 910.6026)">
		<stop  offset="0" style="stop-color:#000000"/>
		<stop  offset="1" style="stop-color:#000000;stop-opacity:0"/>
	</linearGradient>
	<path class="st16" d="M-910.7,441.9c-2.7,2.1-6.6,1.8-8.7-0.9c-2.1-2.7-1.8-6.6,0.9-8.7c2.7-2.1,6.6-1.8,8.7,0.9
		C-907.7,435.9-908.1,439.7-910.7,441.9z"/>
	
		<linearGradient id="SVGID_18_" gradientUnits="userSpaceOnUse" x1="-3791.4365" y1="2634.2407" x2="-3799.2666" y2="2645.4707" gradientTransform="matrix(-0.3839 6.077447e-002 6.077447e-002 0.3839 -2529.7554 -343.2401)">
		<stop  offset="0" style="stop-color:#000000"/>
		<stop  offset="1" style="stop-color:#000000;stop-opacity:0"/>
	</linearGradient>
	<path class="st17" d="M-920,437.9c-0.4-3,1.5-5.8,4.4-6.2c3-0.4,5.8,1.5,6.2,4.4c0.4,3-1.5,5.8-4.4,6.2
		C-916.7,442.9-919.5,440.9-920,437.9z"/>
	
		<linearGradient id="SVGID_19_" gradientUnits="userSpaceOnUse" x1="-3826.2336" y1="2726.7234" x2="-3839.6138" y2="2742.3335" gradientTransform="matrix(-0.369 5.833123e-002 5.833123e-002 0.369 -2488.2954 -348.1677)">
		<stop  offset="0" style="stop-color:#BFBFBF"/>
		<stop  offset="1" style="stop-color:#F4F4F4"/>
	</linearGradient>
	<path class="st18" d="M-919.8,437.9c-0.5-2.9,1.5-5.5,4.3-5.9c2.9-0.5,5.5,1.5,5.9,4.3c0.5,2.9-1.5,5.5-4.3,5.9
		C-916.7,442.7-919.4,440.8-919.8,437.9z"/>
	<g transform="matrix(.39958 -.69208 .69208 .39958 -1026.5 751.61)">
		
			<radialGradient id="SVGID_20_" cx="8598.9922" cy="1533.8389" r="5.869" gradientTransform="matrix(-0.1369 0.4392 0.4498 0.2045 898.1868 -4165.7295)" gradientUnits="userSpaceOnUse">
			<stop  offset="0" style="stop-color:#F2F2F2"/>
			<stop  offset="1" style="stop-color:#141414"/>
		</radialGradient>
		<path class="st19" d="M408.7-70.2c-0.2-1.8-0.6-3.8-3.7-4.6c2.4-1.4,2.5-3.3,2.1-5.4c1.8,1,3.8,1.1,5.7-0.9
			c0.1,2.5,1.4,3.8,3.7,4.6c-1.9,1.2-2.7,2.8-2.1,5.4C412.5-72.2,410.7-72,408.7-70.2z"/>
		
			<radialGradient id="SVGID_21_" cx="9990.0713" cy="1488.3755" r="5.2603" gradientTransform="matrix(-0.11 0.2865 0.2865 0.11 1083.3124 -3101.1248)" gradientUnits="userSpaceOnUse">
			<stop  offset="0" style="stop-color:#F0F0F0"/>
			<stop  offset="1" style="stop-color:#AFAFAF"/>
		</radialGradient>
		<path class="st20" d="M412.8-73.1c-1.3,1.1-3.3,0.9-4.5-0.5c-1.1-1.3-0.9-3.3,0.5-4.5c1.4-1.1,3.3-0.9,4.5,0.5
			C414.3-76.2,414.2-74.2,412.8-73.1z"/>
	</g>
	
		<linearGradient id="SVGID_22_" gradientUnits="userSpaceOnUse" x1="-362.967" y1="288.6968" x2="-356.397" y2="281.5068" gradientTransform="matrix(0.6492 0.8021 0.8021 -0.6492 -927.8585 888.249)">
		<stop  offset="0" style="stop-color:#000000"/>
		<stop  offset="1" style="stop-color:#000000;stop-opacity:0"/>
	</linearGradient>
	<path class="st21" d="M-928.8,419.5c-2.7,2.1-6.6,1.8-8.7-0.9c-2.1-2.7-1.8-6.6,0.9-8.7c2.7-2.1,6.6-1.8,8.7,0.9
		C-925.8,413.5-926.2,417.4-928.8,419.5z"/>
	
		<linearGradient id="SVGID_23_" gradientUnits="userSpaceOnUse" x1="-3791.4575" y1="2634.2261" x2="-3799.2876" y2="2645.4561" gradientTransform="matrix(-0.3839 6.077447e-002 6.077447e-002 0.3839 -2547.8511 -365.5936)">
		<stop  offset="0" style="stop-color:#000000"/>
		<stop  offset="1" style="stop-color:#000000;stop-opacity:0"/>
	</linearGradient>
	<path class="st22" d="M-938.1,415.5c-0.4-3,1.5-5.8,4.4-6.2s5.8,1.5,6.2,4.4c0.4,3-1.5,5.8-4.4,6.2
		C-934.8,420.6-937.6,418.5-938.1,415.5z"/>
	
		<linearGradient id="SVGID_24_" gradientUnits="userSpaceOnUse" x1="-3826.2634" y1="2726.698" x2="-3839.6433" y2="2742.3081" gradientTransform="matrix(-0.369 5.833123e-002 5.833123e-002 0.369 -2506.3911 -370.5213)">
		<stop  offset="0" style="stop-color:#BFBFBF"/>
		<stop  offset="1" style="stop-color:#F4F4F4"/>
	</linearGradient>
	<path class="st23" d="M-937.9,415.5c-0.5-2.9,1.5-5.5,4.3-5.9c2.9-0.5,5.5,1.5,5.9,4.3c0.5,2.9-1.5,5.5-4.3,5.9
		C-934.7,420.4-937.5,418.4-937.9,415.5z"/>
	<g transform="matrix(.39958 -.69208 .69208 .39958 -1055.3 751.61)">
		
			<radialGradient id="SVGID_25_" cx="8690.3223" cy="1613.9189" r="5.869" gradientTransform="matrix(-0.1369 0.4392 0.4498 0.2045 905.6072 -4224.6489)" gradientUnits="userSpaceOnUse">
			<stop  offset="0" style="stop-color:#F2F2F2"/>
			<stop  offset="1" style="stop-color:#141414"/>
		</radialGradient>
		<path class="st24" d="M439.6-72.5c-0.2-1.8-0.6-3.8-3.7-4.6c2.4-1.4,2.5-3.3,2.1-5.4c1.8,1,3.8,1.1,5.7-0.9
			c0.1,2.5,1.4,3.8,3.7,4.6c-1.9,1.2-2.7,2.8-2.1,5.4C443.5-74.6,441.6-74.5,439.6-72.5z"/>
		
			<radialGradient id="SVGID_26_" cx="10081.4023" cy="1568.4552" r="5.2603" gradientTransform="matrix(-0.11 0.2865 0.2865 0.11 1101.3573 -3138.5293)" gradientUnits="userSpaceOnUse">
			<stop  offset="0" style="stop-color:#F0F0F0"/>
			<stop  offset="1" style="stop-color:#AFAFAF"/>
		</radialGradient>
		<path class="st25" d="M443.7-75.5c-1.3,1.1-3.3,0.9-4.5-0.5c-1.1-1.3-0.9-3.3,0.5-4.5c1.4-1.1,3.3-0.9,4.5,0.5
			C445.3-78.7,445.1-76.6,443.7-75.5z"/>
	</g>
	
		<linearGradient id="SVGID_27_" gradientUnits="userSpaceOnUse" x1="-362.9863" y1="288.6791" x2="-356.4163" y2="281.4891" gradientTransform="matrix(0.6492 0.8021 0.8021 -0.6492 -894.9627 912.1655)">
		<stop  offset="0" style="stop-color:#000000"/>
		<stop  offset="1" style="stop-color:#000000;stop-opacity:0"/>
	</linearGradient>
	<path class="st26" d="M-896,443.4c-2.7,2.1-6.6,1.8-8.7-0.9c-2.1-2.7-1.8-6.6,0.9-8.7s6.6-1.8,8.7,0.9
		C-892.9,437.4-893.2,441.2-896,443.4z"/>
	
		<linearGradient id="SVGID_28_" gradientUnits="userSpaceOnUse" x1="-3791.3796" y1="2634.2808" x2="-3799.2097" y2="2645.5107" gradientTransform="matrix(-0.3839 6.077447e-002 6.077447e-002 0.3839 -2514.9517 -341.6888)">
		<stop  offset="0" style="stop-color:#000000"/>
		<stop  offset="1" style="stop-color:#000000;stop-opacity:0"/>
	</linearGradient>
	<path class="st27" d="M-905.2,439.5c-0.4-3,1.5-5.8,4.4-6.2s5.8,1.5,6.2,4.4c0.4,3-1.5,5.8-4.4,6.2
		C-902,444.5-904.7,442.5-905.2,439.5z"/>
	
		<linearGradient id="SVGID_29_" gradientUnits="userSpaceOnUse" x1="-3826.2148" y1="2726.7395" x2="-3839.595" y2="2742.3496" gradientTransform="matrix(-0.369 5.833123e-002 5.833123e-002 0.369 -2473.4856 -346.6087)">
		<stop  offset="0" style="stop-color:#BFBFBF"/>
		<stop  offset="1" style="stop-color:#F4F4F4"/>
	</linearGradient>
	<path class="st28" d="M-905,439.5c-0.5-2.9,1.5-5.5,4.3-5.9c2.9-0.5,5.5,1.5,5.9,4.3c0.5,2.9-1.5,5.5-4.3,5.9
		C-901.9,444.3-904.5,442.3-905,439.5z"/>
	<g transform="matrix(.39958 -.69208 .69208 .39958 -1016 741.08)">
		
			<radialGradient id="SVGID_30_" cx="8536.4092" cy="1505.0632" r="5.8672" gradientTransform="matrix(-0.1369 0.4392 0.4498 0.2045 892.1746 -4120.1621)" gradientUnits="userSpaceOnUse">
			<stop  offset="0" style="stop-color:#F2F2F2"/>
			<stop  offset="1" style="stop-color:#141414"/>
		</radialGradient>
		<path class="st29" d="M398.3-57.9c-0.2-1.8-0.6-3.8-3.7-4.6c2.4-1.4,2.5-3.3,2.1-5.4c1.8,1,3.8,1.1,5.7-0.9
			c0.1,2.5,1.4,3.8,3.7,4.6c-1.9,1.2-2.7,2.8-2.1,5.4C402.1-60,400.3-59.8,398.3-57.9z"/>
		
			<radialGradient id="SVGID_31_" cx="9927.4941" cy="1459.5962" r="5.2603" gradientTransform="matrix(-0.11 0.2865 0.2865 0.11 1074.2833 -3067.834)" gradientUnits="userSpaceOnUse">
			<stop  offset="0" style="stop-color:#F0F0F0"/>
			<stop  offset="1" style="stop-color:#AFAFAF"/>
		</radialGradient>
		<path class="st30" d="M402.4-60.9c-1.3,1.1-3.3,0.9-4.5-0.5c-1.1-1.3-0.9-3.3,0.5-4.5c1.4-1.1,3.3-0.9,4.5,0.5
			C404-64,403.7-61.9,402.4-60.9z"/>
	</g>
	
		<linearGradient id="SVGID_32_" gradientUnits="userSpaceOnUse" x1="-362.9601" y1="288.7032" x2="-356.39" y2="281.5132" gradientTransform="matrix(0.6492 0.8021 0.8021 -0.6492 -926.3074 873.4455)">
		<stop  offset="0" style="stop-color:#000000"/>
		<stop  offset="1" style="stop-color:#000000;stop-opacity:0"/>
	</linearGradient>
	<path class="st31" d="M-927.3,404.8c-2.7,2.1-6.6,1.8-8.7-0.9c-2.1-2.7-1.8-6.6,0.9-8.7c2.7-2.1,6.6-1.8,8.7,0.9
		C-924.2,398.7-924.6,402.6-927.3,404.8z"/>
	
		<linearGradient id="SVGID_33_" gradientUnits="userSpaceOnUse" x1="-3791.2927" y1="2634.3411" x2="-3799.1228" y2="2645.571" gradientTransform="matrix(-0.3839 6.077447e-002 6.077447e-002 0.3839 -2546.292 -380.4035)">
		<stop  offset="0" style="stop-color:#000000"/>
		<stop  offset="1" style="stop-color:#000000;stop-opacity:0"/>
	</linearGradient>
	<path class="st32" d="M-936.6,400.8c-0.4-3,1.5-5.8,4.4-6.2s5.8,1.5,6.2,4.4c0.4,3-1.5,5.8-4.4,6.2
		C-933.3,405.8-936.1,403.8-936.6,400.8z"/>
	
		<linearGradient id="SVGID_34_" gradientUnits="userSpaceOnUse" x1="-3826.3059" y1="2726.6616" x2="-3839.6858" y2="2742.2715" gradientTransform="matrix(-0.369 5.833123e-002 5.833123e-002 0.369 -2504.8323 -385.3311)">
		<stop  offset="0" style="stop-color:#BFBFBF"/>
		<stop  offset="1" style="stop-color:#F4F4F4"/>
	</linearGradient>
	<path class="st33" d="M-936.3,400.7c-0.5-2.9,1.5-5.5,4.3-5.9c2.9-0.5,5.5,1.5,5.9,4.3c0.5,2.9-1.5,5.5-4.3,5.9
		C-933.2,405.5-935.8,403.6-936.3,400.7z"/>
	<g transform="matrix(.39958 -.69208 .69208 .39958 -1065.8 741.08)">
		
			<radialGradient id="SVGID_35_" cx="8694.3418" cy="1643.5308" r="5.869" gradientTransform="matrix(-0.1369 0.4392 0.4498 0.2045 905.0057 -4222.0439)" gradientUnits="userSpaceOnUse">
			<stop  offset="0" style="stop-color:#F2F2F2"/>
			<stop  offset="1" style="stop-color:#141414"/>
		</radialGradient>
		<path class="st34" d="M451.8-62.1c-0.2-1.8-0.6-3.8-3.7-4.6c2.4-1.4,2.5-3.3,2.1-5.4c1.8,1,3.8,1.1,5.7-0.9
			c0.1,2.5,1.4,3.8,3.7,4.6c-1.9,1.2-2.7,2.8-2.1,5.4C455.6-64.2,453.8-63.9,451.8-62.1z"/>
		
			<radialGradient id="SVGID_36_" cx="10085.4209" cy="1598.0671" r="5.2603" gradientTransform="matrix(-0.11 0.2865 0.2865 0.11 1105.4862 -3132.5129)" gradientUnits="userSpaceOnUse">
			<stop  offset="0" style="stop-color:#F0F0F0"/>
			<stop  offset="1" style="stop-color:#AFAFAF"/>
		</radialGradient>
		<path class="st35" d="M456-65.1c-1.3,1.1-3.3,0.9-4.5-0.5c-1.1-1.3-0.9-3.3,0.5-4.5c1.4-1.1,3.3-0.9,4.5,0.5
			C457.4-68.2,457.3-66.2,456-65.1z"/>
	</g>
	
		<linearGradient id="SVGID_37_" gradientUnits="userSpaceOnUse" x1="-362.9331" y1="288.7278" x2="-356.3631" y2="281.5378" gradientTransform="matrix(0.6492 0.8021 0.8021 -0.6492 -881.3616 906.1124)">
		<stop  offset="0" style="stop-color:#000000"/>
		<stop  offset="1" style="stop-color:#000000;stop-opacity:0"/>
	</linearGradient>
	<path class="st36" d="M-882.3,437.4c-2.7,2.1-6.6,1.8-8.7-0.9c-2.1-2.7-1.8-6.6,0.9-8.7c2.7-2.1,6.6-1.8,8.7,0.9
		C-879.2,431.4-879.6,435.3-882.3,437.4z"/>
	
		<linearGradient id="SVGID_38_" gradientUnits="userSpaceOnUse" x1="-3791.3865" y1="2634.2759" x2="-3799.2166" y2="2645.5059" gradientTransform="matrix(-0.3839 6.077447e-002 6.077447e-002 0.3839 -2501.3462 -347.7366)">
		<stop  offset="0" style="stop-color:#000000"/>
		<stop  offset="1" style="stop-color:#000000;stop-opacity:0"/>
	</linearGradient>
	<path class="st37" d="M-891.6,433.5c-0.4-3,1.5-5.8,4.4-6.2c3-0.4,5.8,1.5,6.2,4.4c0.4,3-1.5,5.8-4.4,6.2S-891.1,436.5-891.6,433.5
		z"/>
	
		<linearGradient id="SVGID_39_" gradientUnits="userSpaceOnUse" x1="-3826.1628" y1="2726.7842" x2="-3839.5427" y2="2742.3943" gradientTransform="matrix(-0.369 5.833123e-002 5.833123e-002 0.369 -2459.8865 -352.6643)">
		<stop  offset="0" style="stop-color:#BFBFBF"/>
		<stop  offset="1" style="stop-color:#F4F4F4"/>
	</linearGradient>
	<path class="st38" d="M-891.4,433.5c-0.5-2.9,1.5-5.5,4.3-5.9c2.9-0.5,5.5,1.5,5.9,4.3c0.5,2.9-1.5,5.5-4.3,5.9
		C-888.3,438.3-891,436.3-891.4,433.5z"/>
	<g transform="matrix(.39958 -.69208 .69208 .39958 -1012.1 726.7)">
		
			<radialGradient id="SVGID_40_" cx="8484.0635" cy="1494.7843" r="5.869" gradientTransform="matrix(-0.1369 0.4392 0.4498 0.2045 886.6539 -4079.2908)" gradientUnits="userSpaceOnUse">
			<stop  offset="0" style="stop-color:#F2F2F2"/>
			<stop  offset="1" style="stop-color:#141414"/>
		</radialGradient>
		<path class="st39" d="M395.3-42.1c-0.2-1.8-0.6-3.8-3.7-4.6c2.4-1.4,2.5-3.3,2.1-5.4c1.8,1,3.8,1.1,5.7-0.9
			c0.1,2.5,1.4,3.8,3.7,4.6c-1.9,1.2-2.7,2.8-2.1,5.4C399.2-44.2,397.3-44,395.3-42.1z"/>
		
			<radialGradient id="SVGID_41_" cx="9875.1426" cy="1449.3207" r="5.2603" gradientTransform="matrix(-0.11 0.2865 0.2865 0.11 1068.4941 -3035.9294)" gradientUnits="userSpaceOnUse">
			<stop  offset="0" style="stop-color:#F0F0F0"/>
			<stop  offset="1" style="stop-color:#AFAFAF"/>
		</radialGradient>
		<path class="st40" d="M399.5-45.1c-1.3,1.1-3.3,0.9-4.5-0.5c-1.1-1.3-0.9-3.3,0.5-4.5c1.4-1.1,3.3-0.9,4.5,0.5
			C400.9-48.3,400.8-46.1,399.5-45.1z"/>
	</g>
	
		<linearGradient id="SVGID_42_" gradientUnits="userSpaceOnUse" x1="-362.9538" y1="288.7089" x2="-356.3838" y2="281.5189" gradientTransform="matrix(0.6492 0.8021 0.8021 -0.6492 -917.553 861.4052)">
		<stop  offset="0" style="stop-color:#000000"/>
		<stop  offset="1" style="stop-color:#000000;stop-opacity:0"/>
	</linearGradient>
	<path class="st41" d="M-918.5,392.8c-2.7,2.1-6.6,1.8-8.7-0.9c-2.1-2.7-1.8-6.6,0.9-8.7c2.7-2.1,6.6-1.8,8.7,0.9
		C-915.4,386.7-915.9,390.7-918.5,392.8z"/>
	
		<linearGradient id="SVGID_43_" gradientUnits="userSpaceOnUse" x1="-3791.436" y1="2634.2412" x2="-3799.2661" y2="2645.4712" gradientTransform="matrix(-0.3839 6.077447e-002 6.077447e-002 0.3839 -2537.5376 -392.4437)">
		<stop  offset="0" style="stop-color:#000000"/>
		<stop  offset="1" style="stop-color:#000000;stop-opacity:0"/>
	</linearGradient>
	<path class="st42" d="M-927.8,388.7c-0.4-3,1.5-5.8,4.4-6.2c3-0.4,5.8,1.5,6.2,4.4c0.4,3-1.5,5.8-4.4,6.2
		C-924.5,393.7-927.3,391.7-927.8,388.7z"/>
	
		<linearGradient id="SVGID_44_" gradientUnits="userSpaceOnUse" x1="-3826.2239" y1="2726.7319" x2="-3839.604" y2="2742.3418" gradientTransform="matrix(-0.369 5.833123e-002 5.833123e-002 0.369 -2496.0779 -397.3715)">
		<stop  offset="0" style="stop-color:#BFBFBF"/>
		<stop  offset="1" style="stop-color:#F4F4F4"/>
	</linearGradient>
	<path class="st43" d="M-927.6,388.7c-0.5-2.9,1.5-5.5,4.3-5.9c2.9-0.5,5.5,1.5,5.9,4.3c0.5,2.9-1.5,5.5-4.3,5.9
		C-924.5,393.5-927.1,391.5-927.6,388.7z"/>
	<g transform="matrix(.39958 -.69208 .69208 .39958 -1069.7 726.7)">
		
			<radialGradient id="SVGID_45_" cx="8666.7246" cy="1654.9431" r="5.869" gradientTransform="matrix(-0.1369 0.4392 0.4498 0.2045 901.4947 -4197.1294)" gradientUnits="userSpaceOnUse">
			<stop  offset="0" style="stop-color:#F2F2F2"/>
			<stop  offset="1" style="stop-color:#141414"/>
		</radialGradient>
		<path class="st44" d="M457.2-47.1c-0.2-1.8-0.6-3.8-3.7-4.6c2.4-1.4,2.5-3.3,2.1-5.4c1.8,1,3.8,1.1,5.7-0.9
			c0.1,2.5,1.4,3.8,3.7,4.6c-1.9,1.2-2.7,2.8-2.1,5.4C461.1-49,459.2-48.9,457.2-47.1z"/>
		
			<radialGradient id="SVGID_46_" cx="10057.8037" cy="1609.4795" r="5.2603" gradientTransform="matrix(-0.11 0.2865 0.2865 0.11 1104.5841 -3110.7385)" gradientUnits="userSpaceOnUse">
			<stop  offset="0" style="stop-color:#F0F0F0"/>
			<stop  offset="1" style="stop-color:#AFAFAF"/>
		</radialGradient>
		<path class="st45" d="M461.4-50c-1.3,1.1-3.3,0.9-4.5-0.5c-1.1-1.3-0.9-3.3,0.5-4.5c1.4-1.1,3.3-0.9,4.5,0.5
			C462.8-53.1,462.7-51.1,461.4-50z"/>
	</g>
	
		<linearGradient id="SVGID_47_" gradientUnits="userSpaceOnUse" x1="-362.9568" y1="288.7061" x2="-356.3867" y2="281.5161" gradientTransform="matrix(0.6492 0.8021 0.8021 -0.6492 -903.9506 855.3472)">
		<stop  offset="0" style="stop-color:#000000"/>
		<stop  offset="1" style="stop-color:#000000;stop-opacity:0"/>
	</linearGradient>
	<path class="st46" d="M-904.9,386.6c-2.7,2.1-6.6,1.8-8.7-0.9c-2.1-2.7-1.8-6.6,0.9-8.7s6.6-1.8,8.7,0.9
		C-901.9,380.6-902.3,384.5-904.9,386.6z"/>
	
		<linearGradient id="SVGID_48_" gradientUnits="userSpaceOnUse" x1="-3791.4133" y1="2634.2568" x2="-3799.2434" y2="2645.4868" gradientTransform="matrix(-0.3839 6.077447e-002 6.077447e-002 0.3839 -2523.9385 -398.4992)">
		<stop  offset="0" style="stop-color:#000000"/>
		<stop  offset="1" style="stop-color:#000000;stop-opacity:0"/>
	</linearGradient>
	<path class="st47" d="M-914.2,382.7c-0.4-3,1.5-5.8,4.4-6.2s5.8,1.5,6.2,4.4s-1.5,5.8-4.4,6.2
		C-910.9,387.7-913.7,385.7-914.2,382.7z"/>
	
		<linearGradient id="SVGID_49_" gradientUnits="userSpaceOnUse" x1="-3826.2129" y1="2726.7412" x2="-3839.593" y2="2742.3513" gradientTransform="matrix(-0.369 5.833123e-002 5.833123e-002 0.369 -2482.4785 -403.4269)">
		<stop  offset="0" style="stop-color:#BFBFBF"/>
		<stop  offset="1" style="stop-color:#F4F4F4"/>
	</linearGradient>
	<path class="st48" d="M-914,382.7c-0.5-2.9,1.5-5.5,4.3-5.9c2.9-0.5,5.5,1.5,5.9,4.3c0.5,2.9-1.5,5.5-4.3,5.9
		C-910.9,387.5-913.6,385.5-914,382.7z"/>
	<g transform="matrix(.39958 -.69208 .69208 .39958 -1065.8 712.32)">
		
			<radialGradient id="SVGID_50_" cx="8614.374" cy="1644.668" r="5.869" gradientTransform="matrix(-0.1369 0.4392 0.4498 0.2045 895.9739 -4156.2583)" gradientUnits="userSpaceOnUse">
			<stop  offset="0" style="stop-color:#F2F2F2"/>
			<stop  offset="1" style="stop-color:#141414"/>
		</radialGradient>
		<path class="st49" d="M454.3-31.3c-0.2-1.8-0.6-3.8-3.7-4.6c2.4-1.4,2.5-3.3,2.1-5.4c1.8,1,3.8,1.1,5.7-0.9
			c0.1,2.5,1.4,3.8,3.7,4.6c-1.9,1.2-2.7,2.8-2.1,5.4C458.1-33.3,456.2-33.1,454.3-31.3z"/>
		
			<radialGradient id="SVGID_51_" cx="10005.4521" cy="1599.2046" r="5.2603" gradientTransform="matrix(-0.11 0.2865 0.2865 0.11 1098.7947 -3078.834)" gradientUnits="userSpaceOnUse">
			<stop  offset="0" style="stop-color:#F0F0F0"/>
			<stop  offset="1" style="stop-color:#AFAFAF"/>
		</radialGradient>
		<path class="st50" d="M458.4-34.3c-1.3,1.1-3.3,0.9-4.5-0.5c-1.1-1.3-0.9-3.3,0.5-4.5c1.4-1.1,3.3-0.9,4.5,0.5
			C459.9-37.3,459.7-35.3,458.4-34.3z"/>
	</g>
	
		<linearGradient id="SVGID_52_" gradientUnits="userSpaceOnUse" x1="-362.993" y1="288.6731" x2="-356.423" y2="281.4831" gradientTransform="matrix(0.6492 0.8021 0.8021 -0.6492 -889.1431 856.9081)">
		<stop  offset="0" style="stop-color:#000000"/>
		<stop  offset="1" style="stop-color:#000000;stop-opacity:0"/>
	</linearGradient>
	<path class="st51" d="M-890.2,388.2c-2.7,2.1-6.6,1.8-8.7-0.9c-2.1-2.7-1.8-6.6,0.9-8.7s6.6-1.8,8.7,0.9
		C-887.1,382.1-887.4,386-890.2,388.2z"/>
	
		<linearGradient id="SVGID_53_" gradientUnits="userSpaceOnUse" x1="-3791.3867" y1="2634.2754" x2="-3799.2168" y2="2645.5054" gradientTransform="matrix(-0.3839 6.077447e-002 6.077447e-002 0.3839 -2509.1365 -396.9339)">
		<stop  offset="0" style="stop-color:#000000"/>
		<stop  offset="1" style="stop-color:#000000;stop-opacity:0"/>
	</linearGradient>
	<path class="st52" d="M-899.4,384.3c-0.4-3,1.5-5.8,4.4-6.2c3-0.4,5.8,1.5,6.2,4.4s-1.5,5.8-4.4,6.2
		C-896.1,389.3-898.9,387.2-899.4,384.3z"/>
	
		<linearGradient id="SVGID_54_" gradientUnits="userSpaceOnUse" x1="-3826.1943" y1="2726.7571" x2="-3839.5742" y2="2742.3672" gradientTransform="matrix(-0.369 5.833123e-002 5.833123e-002 0.369 -2467.6687 -401.8679)">
		<stop  offset="0" style="stop-color:#BFBFBF"/>
		<stop  offset="1" style="stop-color:#F4F4F4"/>
	</linearGradient>
	<path class="st53" d="M-899.2,384.2c-0.5-2.9,1.5-5.5,4.3-5.9c2.9-0.5,5.5,1.5,5.9,4.3c0.5,2.9-1.5,5.5-4.3,5.9
		C-896.1,389-898.7,387-899.2,384.2z"/>
	<g transform="matrix(.39958 -.69208 .69208 .39958 -1055.3 701.8)">
		
			<radialGradient id="SVGID_55_" cx="8551.8242" cy="1615.8887" r="5.869" gradientTransform="matrix(-0.1369 0.4392 0.4498 0.2045 889.9649 -4110.7134)" gradientUnits="userSpaceOnUse">
			<stop  offset="0" style="stop-color:#F2F2F2"/>
			<stop  offset="1" style="stop-color:#141414"/>
		</radialGradient>
		<path class="st54" d="M443.8-19c-0.2-1.8-0.6-3.8-3.7-4.6c2.4-1.4,2.5-3.3,2.1-5.4c1.8,1,3.8,1.1,5.7-0.9c0.1,2.5,1.4,3.8,3.7,4.6
			c-1.9,1.2-2.7,2.8-2.1,5.4C447.7-21.1,445.8-20.9,443.8-19z"/>
		
			<radialGradient id="SVGID_56_" cx="9942.9033" cy="1570.4247" r="5.2603" gradientTransform="matrix(-0.11 0.2865 0.2865 0.11 1089.7682 -3045.5618)" gradientUnits="userSpaceOnUse">
			<stop  offset="0" style="stop-color:#F0F0F0"/>
			<stop  offset="1" style="stop-color:#AFAFAF"/>
		</radialGradient>
		<path class="st55" d="M448-22c-1.3,1.1-3.3,0.9-4.5-0.5c-1.1-1.3-0.9-3.3,0.5-4.5c1.4-1.1,3.3-0.9,4.5,0.5
			C449.5-25.1,449.3-23.1,448-22z"/>
	</g>
	
		<linearGradient id="SVGID_57_" gradientUnits="userSpaceOnUse" x1="-362.9633" y1="288.7001" x2="-356.3933" y2="281.5101" gradientTransform="matrix(0.6492 0.8021 0.8021 -0.6492 -871.0474 879.2617)">
		<stop  offset="0" style="stop-color:#000000"/>
		<stop  offset="1" style="stop-color:#000000;stop-opacity:0"/>
	</linearGradient>
	<path class="st56" d="M-872,410.6c-2.7,2.1-6.6,1.8-8.7-0.9s-1.8-6.6,0.9-8.7s6.6-1.8,8.7,0.9C-869,404.5-869.3,408.4-872,410.6z"
		/>
	
		<linearGradient id="SVGID_58_" gradientUnits="userSpaceOnUse" x1="-3791.366" y1="2634.29" x2="-3799.196" y2="2645.52" gradientTransform="matrix(-0.3839 6.077447e-002 6.077447e-002 0.3839 -2491.0408 -374.5803)">
		<stop  offset="0" style="stop-color:#000000"/>
		<stop  offset="1" style="stop-color:#000000;stop-opacity:0"/>
	</linearGradient>
	<path class="st57" d="M-881.2,406.6c-0.4-3,1.5-5.8,4.4-6.2c3-0.4,5.8,1.5,6.2,4.4c0.4,3-1.5,5.8-4.4,6.2
		C-878,411.6-880.8,409.6-881.2,406.6z"/>
	
		<linearGradient id="SVGID_59_" gradientUnits="userSpaceOnUse" x1="-3826.3293" y1="2726.6414" x2="-3839.7095" y2="2742.2512" gradientTransform="matrix(-0.369 5.833123e-002 5.833123e-002 0.369 -2449.573 -379.5144)">
		<stop  offset="0" style="stop-color:#BFBFBF"/>
		<stop  offset="1" style="stop-color:#F4F4F4"/>
	</linearGradient>
	<path class="st58" d="M-881.1,406.5c-0.5-2.9,1.5-5.5,4.3-5.9c2.9-0.5,5.5,1.5,5.9,4.3c0.5,2.9-1.5,5.5-4.3,5.9
		C-877.9,411.4-880.6,409.4-881.1,406.5z"/>
	<g transform="matrix(.39958 -.69208 .69208 .39958 -1026.5 701.8)">
		
			<radialGradient id="SVGID_60_" cx="8460.4941" cy="1535.8086" r="5.869" gradientTransform="matrix(-0.1369 0.4392 0.4498 0.2045 882.5446 -4051.7942)" gradientUnits="userSpaceOnUse">
			<stop  offset="0" style="stop-color:#F2F2F2"/>
			<stop  offset="1" style="stop-color:#141414"/>
		</radialGradient>
		<path class="st59" d="M412.9-16.6c-0.2-1.8-0.6-3.8-3.7-4.6c2.4-1.4,2.5-3.3,2.1-5.4c1.8,1,3.8,1.1,5.7-0.9
			c0.1,2.5,1.4,3.8,3.7,4.6c-1.9,1.2-2.7,2.8-2.1,5.4C416.7-18.7,414.9-18.5,412.9-16.6z"/>
		
			<radialGradient id="SVGID_61_" cx="9851.5723" cy="1490.3452" r="5.2603" gradientTransform="matrix(-0.11 0.2865 0.2865 0.11 1071.723 -3008.157)" gradientUnits="userSpaceOnUse">
			<stop  offset="0" style="stop-color:#F0F0F0"/>
			<stop  offset="1" style="stop-color:#AFAFAF"/>
		</radialGradient>
		<path class="st60" d="M417.1-19.6c-1.3,1.1-3.3,0.9-4.5-0.5c-1.1-1.3-0.9-3.3,0.5-4.5c1.4-1.1,3.3-0.9,4.5,0.5
			C418.6-22.7,418.4-20.7,417.1-19.6z"/>
	</g>
	
		<linearGradient id="SVGID_62_" gradientUnits="userSpaceOnUse" x1="-362.941" y1="288.7206" x2="-356.371" y2="281.5306" gradientTransform="matrix(0.6492 0.8021 0.8021 -0.6492 -877.1005 865.6606)">
		<stop  offset="0" style="stop-color:#000000"/>
		<stop  offset="1" style="stop-color:#000000;stop-opacity:0"/>
	</linearGradient>
	<path class="st61" d="M-878,396.9c-2.7,2.1-6.6,1.8-8.7-0.9c-2.1-2.7-1.8-6.6,0.9-8.7s6.6-1.8,8.7,0.9
		C-875,390.9-875.4,394.8-878,396.9z"/>
	
		<linearGradient id="SVGID_63_" gradientUnits="userSpaceOnUse" x1="-3791.5215" y1="2634.1816" x2="-3799.3516" y2="2645.4116" gradientTransform="matrix(-0.3839 6.077447e-002 6.077447e-002 0.3839 -2497.0962 -388.1795)">
		<stop  offset="0" style="stop-color:#000000"/>
		<stop  offset="1" style="stop-color:#000000;stop-opacity:0"/>
	</linearGradient>
	<path class="st62" d="M-887.3,392.9c-0.4-3,1.5-5.8,4.4-6.2s5.8,1.5,6.2,4.4s-1.5,5.8-4.4,6.2C-884,397.9-886.8,395.9-887.3,392.9z
		"/>
	
		<linearGradient id="SVGID_64_" gradientUnits="userSpaceOnUse" x1="-3826.3076" y1="2726.6602" x2="-3839.6875" y2="2742.2703" gradientTransform="matrix(-0.369 5.833123e-002 5.833123e-002 0.369 -2455.6287 -393.1134)">
		<stop  offset="0" style="stop-color:#BFBFBF"/>
		<stop  offset="1" style="stop-color:#F4F4F4"/>
	</linearGradient>
	<path class="st63" d="M-887.1,392.9c-0.5-2.9,1.5-5.5,4.3-5.9c2.9-0.5,5.5,1.5,5.9,4.3c0.5,2.9-1.5,5.5-4.3,5.9
		C-883.9,397.8-886.7,395.8-887.1,392.9z"/>
	<g transform="matrix(.39958 -.69208 .69208 .39958 -1040.9 697.94)">
		
			<radialGradient id="SVGID_65_" cx="8495.4258" cy="1576.0013" r="5.869" gradientTransform="matrix(-0.1369 0.4392 0.4498 0.2045 885.0427 -4072.4246)" gradientUnits="userSpaceOnUse">
			<stop  offset="0" style="stop-color:#F2F2F2"/>
			<stop  offset="1" style="stop-color:#141414"/>
		</radialGradient>
		<path class="st64" d="M428.7-13.7c-0.2-1.8-0.6-3.8-3.7-4.6c2.4-1.4,2.5-3.3,2.1-5.4c1.8,1,3.8,1.1,5.7-0.9
			c0.1,2.5,1.4,3.8,3.7,4.6c-1.9,1.2-2.7,2.8-2.1,5.4C432.5-15.8,430.7-15.5,428.7-13.7z"/>
		
			<radialGradient id="SVGID_66_" cx="9886.5049" cy="1530.5377" r="5.2603" gradientTransform="matrix(-0.11 0.2865 0.2865 0.11 1079.8475 -3019.655)" gradientUnits="userSpaceOnUse">
			<stop  offset="0" style="stop-color:#F0F0F0"/>
			<stop  offset="1" style="stop-color:#AFAFAF"/>
		</radialGradient>
		<path class="st65" d="M432.8-16.6c-1.3,1.1-3.3,0.9-4.5-0.5c-1.1-1.3-0.9-3.3,0.5-4.5c1.4-1.1,3.3-0.9,4.5,0.5
			C434.4-19.8,434.2-17.7,432.8-16.6z"/>
	</g>
	
		<linearGradient id="SVGID_67_" gradientUnits="userSpaceOnUse" x1="-362.9878" y1="288.6779" x2="-356.4178" y2="281.4878" gradientTransform="matrix(0.6492 0.8021 0.8021 -0.6492 -872.606 894.0673)">
		<stop  offset="0" style="stop-color:#000000"/>
		<stop  offset="1" style="stop-color:#000000;stop-opacity:0"/>
	</linearGradient>
	<path class="st66" d="M-873.6,425.4c-2.7,2.1-6.6,1.8-8.7-0.9c-2.1-2.7-1.8-6.6,0.9-8.7c2.7-2.1,6.6-1.8,8.7,0.9
		C-870.5,419.3-870.9,423.3-873.6,425.4z"/>
	
		<linearGradient id="SVGID_68_" gradientUnits="userSpaceOnUse" x1="-3791.5" y1="2634.1965" x2="-3799.3301" y2="2645.4265" gradientTransform="matrix(-0.3839 6.077447e-002 6.077447e-002 0.3839 -2492.5981 -359.7846)">
		<stop  offset="0" style="stop-color:#000000"/>
		<stop  offset="1" style="stop-color:#000000;stop-opacity:0"/>
	</linearGradient>
	<path class="st67" d="M-882.8,421.4c-0.4-3,1.5-5.8,4.4-6.2s5.8,1.5,6.2,4.4c0.4,3-1.5,5.8-4.4,6.2
		C-879.6,426.3-882.3,424.3-882.8,421.4z"/>
	
		<linearGradient id="SVGID_69_" gradientUnits="userSpaceOnUse" x1="-3826.2473" y1="2726.7117" x2="-3839.6272" y2="2742.3218" gradientTransform="matrix(-0.369 5.833123e-002 5.833123e-002 0.369 -2451.1321 -364.7044)">
		<stop  offset="0" style="stop-color:#BFBFBF"/>
		<stop  offset="1" style="stop-color:#F4F4F4"/>
	</linearGradient>
	<path class="st68" d="M-882.6,421.3c-0.5-2.9,1.5-5.5,4.3-5.9c2.9-0.5,5.5,1.5,5.9,4.3c0.5,2.9-1.5,5.5-4.3,5.9
		C-879.5,426.2-882.2,424.3-882.6,421.3z"/>
	<g transform="matrix(.39958 -.69208 .69208 .39958 -1016 712.32)">
		
			<radialGradient id="SVGID_70_" cx="8456.4473" cy="1506.1969" r="5.869" gradientTransform="matrix(-0.1369 0.4392 0.4498 0.2045 883.1429 -4054.3767)" gradientUnits="userSpaceOnUse">
			<stop  offset="0" style="stop-color:#F2F2F2"/>
			<stop  offset="1" style="stop-color:#141414"/>
		</radialGradient>
		<path class="st69" d="M400.8-27c-0.2-1.8-0.6-3.8-3.7-4.6c2.4-1.4,2.5-3.3,2.1-5.4c1.8,1,3.8,1.1,5.7-0.9c0.1,2.5,1.4,3.8,3.7,4.6
			c-1.9,1.2-2.7,2.8-2.1,5.4C404.6-29.1,402.7-28.9,400.8-27z"/>
		
			<radialGradient id="SVGID_71_" cx="9847.5264" cy="1460.7335" r="5.2603" gradientTransform="matrix(-0.11 0.2865 0.2865 0.11 1067.5919 -3014.155)" gradientUnits="userSpaceOnUse">
			<stop  offset="0" style="stop-color:#F0F0F0"/>
			<stop  offset="1" style="stop-color:#AFAFAF"/>
		</radialGradient>
		<path class="st70" d="M404.9-30c-1.3,1.1-3.3,0.9-4.5-0.5c-1.1-1.3-0.9-3.3,0.5-4.5c1.4-1.1,3.3-0.9,4.5,0.5
			C406.3-33.1,406.2-31.1,404.9-30z"/>
	</g>
</g>
</svg>
