<?xml version="1.0" encoding="utf-8"?>
<!-- Generator: Adobe Illustrator 19.0.0, SVG Export Plug-In . SVG Version: 6.00 Build 0)  -->
<svg version="1.1" id="Capa_1" xmlns="http://www.w3.org/2000/svg" xmlns:xlink="http://www.w3.org/1999/xlink" x="0px" y="0px"
	 viewBox="-346 91.5 265.3 379.5" style="enable-background:new -346 91.5 265.3 379.5;" xml:space="preserve">
<style type="text/css">
	.st0{fill:url(#SVGID_1_);stroke:#1A1A1A;stroke-width:0.2401;stroke-linecap:round;stroke-linejoin:round;}
	.st1{fill:url(#SVGID_2_);}
	.st2{fill:url(#SVGID_3_);stroke:#1A1A1A;stroke-width:0.2401;stroke-linecap:round;stroke-linejoin:round;}
	.st3{fill:url(#SVGID_4_);}
	.st4{fill:url(#SVGID_5_);stroke:#1A1A1A;stroke-width:0.2401;stroke-linecap:round;stroke-linejoin:round;}
	.st5{fill:url(#SVGID_6_);}
	.st6{fill:url(#SVGID_7_);}
	.st7{fill:url(#SVGID_8_);}
	.st8{fill:url(#SVGID_9_);}
	.st9{fill:url(#SVGID_10_);}
	.st10{fill:url(#SVGID_11_);}
	.st11{fill:url(#SVGID_12_);}
	.st12{fill:url(#SVGID_13_);}
	.st13{fill:url(#SVGID_14_);}
	.st14{fill:url(#SVGID_15_);stroke:#4D4D4D;stroke-width:0.2503;}
	.st15{fill:url(#SVGID_16_);}
	.st16{fill:url(#SVGID_17_);}
	.st17{fill:url(#SVGID_18_);}
	.st18{fill:url(#SVGID_19_);}
	.st19{fill:url(#SVGID_20_);stroke:#4D4D4D;stroke-width:0.2503;}
	.st20{fill:url(#SVGID_21_);}
	.st21{fill:url(#SVGID_22_);}
	.st22{fill:url(#SVGID_23_);}
	.st23{fill:url(#SVGID_24_);}
	.st24{fill:url(#SVGID_25_);stroke:#4D4D4D;stroke-width:0.2503;}
	.st25{fill:url(#SVGID_26_);}
	.st26{fill:url(#SVGID_27_);}
	.st27{fill:url(#SVGID_28_);}
	.st28{fill:url(#SVGID_29_);}
	.st29{fill:url(#SVGID_30_);stroke:#4D4D4D;stroke-width:0.2503;}
	.st30{fill:url(#SVGID_31_);}
	.st31{fill:url(#SVGID_32_);}
	.st32{fill:url(#SVGID_33_);}
	.st33{fill:url(#SVGID_34_);}
	.st34{fill:url(#SVGID_35_);stroke:#4D4D4D;stroke-width:0.2503;}
	.st35{fill:url(#SVGID_36_);}
	.st36{fill:url(#SVGID_37_);}
	.st37{fill:url(#SVGID_38_);}
	.st38{fill:url(#SVGID_39_);}
	.st39{fill:url(#SVGID_40_);stroke:#4D4D4D;stroke-width:0.2503;}
	.st40{fill:url(#SVGID_41_);}
	.st41{fill:url(#SVGID_42_);}
	.st42{fill:url(#SVGID_43_);}
	.st43{fill:url(#SVGID_44_);}
	.st44{fill:url(#SVGID_45_);stroke:#4D4D4D;stroke-width:0.2503;}
	.st45{fill:url(#SVGID_46_);}
	.st46{fill:url(#SVGID_47_);}
	.st47{fill:url(#SVGID_48_);}
	.st48{fill:url(#SVGID_49_);}
	.st49{fill:url(#SVGID_50_);stroke:#4D4D4D;stroke-width:0.2503;}
	.st50{fill:url(#SVGID_51_);}
	.st51{fill:url(#SVGID_52_);}
	.st52{fill:url(#SVGID_53_);}
	.st53{fill:url(#SVGID_54_);}
	.st54{fill:url(#SVGID_55_);stroke:#4D4D4D;stroke-width:0.2503;}
	.st55{fill:url(#SVGID_56_);}
	.st56{fill:url(#SVGID_57_);}
	.st57{fill:url(#SVGID_58_);}
	.st58{fill:url(#SVGID_59_);}
	.st59{fill:url(#SVGID_60_);stroke:#4D4D4D;stroke-width:0.2503;}
	.st60{fill:url(#SVGID_61_);}
	.st61{fill:url(#SVGID_62_);}
	.st62{fill:url(#SVGID_63_);}
	.st63{fill:url(#SVGID_64_);}
	.st64{fill:url(#SVGID_65_);stroke:#4D4D4D;stroke-width:0.2503;}
	.st65{fill:url(#SVGID_66_);}
	.st66{fill:url(#SVGID_67_);}
	.st67{fill:url(#SVGID_68_);}
	.st68{fill:url(#SVGID_69_);}
	.st69{fill:url(#SVGID_70_);stroke:#4D4D4D;stroke-width:0.2503;}
	.st70{fill:url(#SVGID_71_);}
</style>
<g>
	
		<linearGradient id="SVGID_1_" gradientUnits="userSpaceOnUse" x1="151.6427" y1="115.7769" x2="-38.8873" y2="320.297" gradientTransform="matrix(0.8328 0 0 -0.8328 -263.1647 409.5672)">
		<stop  offset="0" style="stop-color:#A2A2A2"/>
		<stop  offset="1" style="stop-color:#FFFFFF;stop-opacity:0.9913"/>
	</linearGradient>
	<path class="st0" d="M-88.8,230.5c0,69.1-56,125.1-125.1,125.1s-125.1-56-125.1-125.1s56-125.1,125.1-125.1S-88.8,161.4-88.8,230.5
		z"/>
	
		<linearGradient id="SVGID_2_" gradientUnits="userSpaceOnUse" x1="-927.9086" y1="430.3034" x2="-627.5886" y2="430.3034" gradientTransform="matrix(-0.8209 0 0 0.8209 -852.3428 -122.7506)">
		<stop  offset="0" style="stop-color:#E4E4E4"/>
		<stop  offset="1" style="stop-color:#E4E4E4;stop-opacity:0"/>
	</linearGradient>
	<path class="st1" d="M-337.2,230.5c0-68.1,55.2-123.3,123.3-123.3s123.3,55.2,123.3,123.3s-55.2,123.3-123.3,123.3
		S-337.2,298.6-337.2,230.5z"/>
	
		<linearGradient id="SVGID_3_" gradientUnits="userSpaceOnUse" x1="151.6427" y1="115.7769" x2="-38.8873" y2="320.297" gradientTransform="matrix(0.8328 0 0 -0.8328 -263.1647 407.5672)">
		<stop  offset="0" style="stop-color:#A2A2A2"/>
		<stop  offset="1" style="stop-color:#FFFFFF;stop-opacity:0.9913"/>
	</linearGradient>
	<path class="st2" d="M-88.8,228.5c0,69.1-56,125.1-125.1,125.1s-125.1-56-125.1-125.1s56-125.1,125.1-125.1S-88.8,159.4-88.8,228.5
		z"/>
	
		<linearGradient id="SVGID_4_" gradientUnits="userSpaceOnUse" x1="-927.9086" y1="430.3034" x2="-627.5886" y2="430.3034" gradientTransform="matrix(-0.8209 0 0 0.8209 -852.3428 -124.7506)">
		<stop  offset="0" style="stop-color:#E4E4E4"/>
		<stop  offset="1" style="stop-color:#E4E4E4;stop-opacity:0"/>
	</linearGradient>
	<path class="st3" d="M-337.2,228.5c0-68.1,55.2-123.3,123.3-123.3s123.3,55.2,123.3,123.3s-55.2,123.3-123.3,123.3
		S-337.2,296.6-337.2,228.5z"/>
	
		<linearGradient id="SVGID_5_" gradientUnits="userSpaceOnUse" x1="151.6427" y1="115.7769" x2="-38.8873" y2="320.297" gradientTransform="matrix(0.8328 0 0 -0.8328 -263.1647 405.5672)">
		<stop  offset="0" style="stop-color:#A2A2A2"/>
		<stop  offset="1" style="stop-color:#FFFFFF;stop-opacity:0.9913"/>
	</linearGradient>
	<path class="st4" d="M-88.8,226.5c0,69.1-56,125.1-125.1,125.1s-125.1-56-125.1-125.1s56-125.1,125.1-125.1S-88.8,157.4-88.8,226.5
		z"/>
	
		<linearGradient id="SVGID_6_" gradientUnits="userSpaceOnUse" x1="-927.9086" y1="430.3034" x2="-627.5886" y2="430.3034" gradientTransform="matrix(-0.8209 0 0 0.8209 -852.3428 -126.7506)">
		<stop  offset="0" style="stop-color:#E4E4E4"/>
		<stop  offset="1" style="stop-color:#E4E4E4;stop-opacity:0"/>
	</linearGradient>
	<path class="st5" d="M-337.2,226.5c0-68.1,55.2-123.3,123.3-123.3s123.3,55.2,123.3,123.3s-55.2,123.3-123.3,123.3
		S-337.2,294.6-337.2,226.5z"/>
	
		<linearGradient id="SVGID_7_" gradientUnits="userSpaceOnUse" x1="-13.3202" y1="198.9517" x2="-27.2002" y2="236.6017" gradientTransform="matrix(1.1234 0 0 -1.1328 -181.0872 496.6244)">
		<stop  offset="0" style="stop-color:#060606"/>
		<stop  offset="1" style="stop-color:#909090;stop-opacity:0"/>
	</linearGradient>
	<path class="st6" d="M-169.3,228.6c0,23.6-18.9,42.7-42.3,42.7s-42.3-19.1-42.3-42.7S-235,186-211.6,186S-169.3,205-169.3,228.6
		L-169.3,228.6z"/>
	
		<radialGradient id="SVGID_8_" cx="-19.2689" cy="233.9021" r="37.653" gradientTransform="matrix(1.0952 0 0 -1.0952 -192.7916 482.6432)" gradientUnits="userSpaceOnUse">
		<stop  offset="0" style="stop-color:#F4F4F4"/>
		<stop  offset="0.8421" style="stop-color:#E5E5E5"/>
		<stop  offset="0.8549" style="stop-color:#878787"/>
		<stop  offset="0.9086" style="stop-color:#F0F0F0"/>
		<stop  offset="0.9598" style="stop-color:#E7E7E7"/>
		<stop  offset="1" style="stop-color:#A9A9A9;stop-opacity:0.9739"/>
	</radialGradient>
	<path class="st7" d="M-172.7,226.5c0,22.8-18.5,41.2-41.2,41.2s-41.2-18.5-41.2-41.2s18.5-41.2,41.2-41.2S-172.7,203.7-172.7,226.5
		L-172.7,226.5z"/>
	
		<radialGradient id="SVGID_9_" cx="-22.031" cy="236.9609" r="18.143" gradientTransform="matrix(1.1176 0 0 -1.1176 -189.2708 491.3027)" gradientUnits="userSpaceOnUse">
		<stop  offset="0" style="stop-color:#DADADA"/>
		<stop  offset="0.123" style="stop-color:#D5D5D5"/>
		<stop  offset="0.1518" style="stop-color:#B5B5B5"/>
		<stop  offset="0.2138" style="stop-color:#EEEEEE"/>
		<stop  offset="0.2565" style="stop-color:#D7D7D7"/>
		<stop  offset="0.271" style="stop-color:#E0E0E0"/>
		<stop  offset="0.8225" style="stop-color:#EAEAEA"/>
		<stop  offset="0.8501" style="stop-color:#828282;stop-opacity:0.9843"/>
		<stop  offset="0.9007" style="stop-color:#E9E9E9"/>
		<stop  offset="0.9605" style="stop-color:#E7E7E7"/>
		<stop  offset="1" style="stop-color:#ADADAD"/>
	</radialGradient>
	<path class="st8" d="M-193.6,226.5c0,11.2-9.1,20.3-20.3,20.3c-11.2,0-20.3-9.1-20.3-20.3c0-11.2,9.1-20.3,20.3-20.3
		C-202.7,206.2-193.6,215.3-193.6,226.5z"/>
	
		<radialGradient id="SVGID_10_" cx="2792.3494" cy="-704.9752" r="23.479" gradientTransform="matrix(0.1026 0 0 -0.1026 -500.3477 154.1602)" gradientUnits="userSpaceOnUse">
		<stop  offset="0" style="stop-color:#111111"/>
		<stop  offset="0.9324" style="stop-color:#505050"/>
		<stop  offset="1" style="stop-color:#ABABAB"/>
	</radialGradient>
	<path class="st9" d="M-211.5,226.5c0,1.3-1.1,2.4-2.4,2.4c-1.3,0-2.4-1.1-2.4-2.4c0-1.3,1.1-2.4,2.4-2.4
		C-212.6,224.1-211.5,225.2-211.5,226.5z"/>
	
		<linearGradient id="SVGID_11_" gradientUnits="userSpaceOnUse" x1="-628.7999" y1="372.2728" x2="-674.7798" y2="422.0428" gradientTransform="matrix(-1.0952 0 0 1.0952 -927.0184 -207.6776)">
		<stop  offset="0" style="stop-color:#FFFFFF;stop-opacity:0.8261"/>
		<stop  offset="0.5" style="stop-color:#7E7E7E;stop-opacity:0"/>
		<stop  offset="1" style="stop-color:#000000;stop-opacity:9.570000e-002"/>
	</linearGradient>
	<path class="st10" d="M-255.2,226.5c0-22.8,18.5-41.2,41.2-41.2s41.2,18.5,41.2,41.2s-18.5,41.2-41.2,41.2
		S-255.2,249.3-255.2,226.5L-255.2,226.5z"/>
	
		<linearGradient id="SVGID_12_" gradientUnits="userSpaceOnUse" x1="341.0668" y1="342.0237" x2="347.6368" y2="334.8337" gradientTransform="matrix(1.0319 0 0 -1.0319 -569.2651 604.4246)">
		<stop  offset="0" style="stop-color:#000000"/>
		<stop  offset="1" style="stop-color:#000000;stop-opacity:0"/>
	</linearGradient>
	<path class="st11" d="M-207.7,255.2c0,3.4-2.8,6.2-6.2,6.2s-6.2-2.8-6.2-6.2c0-3.4,2.8-6.2,6.2-6.2S-207.7,251.8-207.7,255.2z"/>
	
		<linearGradient id="SVGID_13_" gradientUnits="userSpaceOnUse" x1="-1627.7778" y1="999.8541" x2="-1635.6079" y2="1011.0841" gradientTransform="matrix(-0.1943 0.3366 0.3366 0.1943 -866.0382 608.7883)">
		<stop  offset="0" style="stop-color:#000000"/>
		<stop  offset="1" style="stop-color:#000000;stop-opacity:0"/>
	</linearGradient>
	<path class="st12" d="M-216.6,259.9c-2.6-1.5-3.5-4.8-2-7.4c1.5-2.6,4.8-3.5,7.4-2c2.6,1.5,3.5,4.8,2,7.4
		C-210.7,260.6-214,261.4-216.6,259.9z"/>
	
		<linearGradient id="SVGID_14_" gradientUnits="userSpaceOnUse" x1="-1630.3806" y1="1026.7141" x2="-1643.7606" y2="1042.3241" gradientTransform="matrix(-0.1868 0.3235 0.3235 0.1868 -854.1646 591.6219)">
		<stop  offset="0" style="stop-color:#BFBFBF"/>
		<stop  offset="1" style="stop-color:#F4F4F4"/>
	</linearGradient>
	<path class="st13" d="M-216.5,259.8c-2.5-1.4-3.4-4.6-1.9-7.1c1.4-2.5,4.6-3.4,7.1-1.9c2.5,1.4,3.4,4.6,1.9,7.1
		C-210.8,260.4-214,261.2-216.5,259.8z"/>
	<g transform="matrix(.39958 -.69208 .69208 .39958 -1040.9 755.46)">
		
			<radialGradient id="SVGID_15_" cx="3673.8523" cy="810.9438" r="5.869" gradientTransform="matrix(0.3996 0.5993 0.6921 -0.346 -969.7771 -1337.9956)" gradientUnits="userSpaceOnUse">
			<stop  offset="0" style="stop-color:#F2F2F2"/>
			<stop  offset="1" style="stop-color:#141414"/>
		</radialGradient>
		<path class="st14" d="M1062.4,588.3c-1.5-0.9-3.3-1.9-5.8,0c0.4-2.7-1-4-2.9-5c1.9-0.8,3.2-2.2,2.9-5c2,1.5,3.9,1.3,5.8,0
			c-0.3,2.2,0.5,3.9,2.9,5C1063.2,584,1062.2,585.6,1062.4,588.3z"/>
		
			<radialGradient id="SVGID_16_" cx="3966.8816" cy="762.273" r="5.2603" gradientTransform="matrix(0.2403 0.4161 0.4161 -0.2403 -210.7739 -884.3169)" gradientUnits="userSpaceOnUse">
			<stop  offset="0" style="stop-color:#F0F0F0"/>
			<stop  offset="1" style="stop-color:#AFAFAF"/>
		</radialGradient>
		<path class="st15" d="M1062.7,583.2c0,1.7-1.4,3.2-3.2,3.2c-1.7,0-3.2-1.4-3.2-3.2s1.4-3.2,3.2-3.2
			C1061.2,580.1,1062.7,581.5,1062.7,583.2z"/>
	</g>
	
		<linearGradient id="SVGID_17_" gradientUnits="userSpaceOnUse" x1="341.0668" y1="342.0237" x2="347.6368" y2="334.8337" gradientTransform="matrix(1.0319 0 0 -1.0319 -554.8851 600.5646)">
		<stop  offset="0" style="stop-color:#000000"/>
		<stop  offset="1" style="stop-color:#000000;stop-opacity:0"/>
	</linearGradient>
	<path class="st16" d="M-193.3,251.4c0,3.4-2.8,6.2-6.2,6.2c-3.4,0-6.2-2.8-6.2-6.2c0-3.4,2.8-6.2,6.2-6.2
		C-196.1,245.2-193.3,248-193.3,251.4z"/>
	
		<linearGradient id="SVGID_18_" gradientUnits="userSpaceOnUse" x1="-1627.7778" y1="999.8541" x2="-1635.6079" y2="1011.0841" gradientTransform="matrix(-0.1943 0.3366 0.3366 0.1943 -851.6582 604.9384)">
		<stop  offset="0" style="stop-color:#000000"/>
		<stop  offset="1" style="stop-color:#000000;stop-opacity:0"/>
	</linearGradient>
	<path class="st17" d="M-202.2,256.1c-2.6-1.5-3.5-4.8-2-7.4c1.5-2.6,4.8-3.5,7.4-2c2.6,1.5,3.5,4.8,2,7.4
		C-196.3,256.7-199.6,257.6-202.2,256.1z"/>
	
		<linearGradient id="SVGID_19_" gradientUnits="userSpaceOnUse" x1="-1630.3806" y1="1026.7141" x2="-1643.7606" y2="1042.3241" gradientTransform="matrix(-0.1868 0.3235 0.3235 0.1868 -839.7846 587.7719)">
		<stop  offset="0" style="stop-color:#BFBFBF"/>
		<stop  offset="1" style="stop-color:#F4F4F4"/>
	</linearGradient>
	<path class="st18" d="M-202.1,255.9c-2.5-1.4-3.4-4.6-1.9-7.1c1.4-2.5,4.6-3.4,7.1-1.9c2.5,1.4,3.4,4.6,1.9,7.1
		C-196.4,256.5-199.6,257.4-202.1,255.9z"/>
	<g transform="matrix(.39958 -.69208 .69208 .39958 -1026.5 751.61)">
		
			<radialGradient id="SVGID_20_" cx="3660.6704" cy="797.7477" r="5.869" gradientTransform="matrix(0.3996 0.5993 0.6921 -0.346 -955.3771 -1334.6615)" gradientUnits="userSpaceOnUse">
			<stop  offset="0" style="stop-color:#F2F2F2"/>
			<stop  offset="1" style="stop-color:#141414"/>
		</radialGradient>
		<path class="st19" d="M1062.4,588.3c-1.5-0.9-3.3-1.9-5.8,0c0.4-2.7-1-4-2.9-5c1.9-0.8,3.2-2.2,2.9-5c2,1.5,3.9,1.3,5.8,0
			c-0.3,2.2,0.5,3.9,2.9,5C1063.2,584,1062.2,585.6,1062.4,588.3z"/>
		
			<radialGradient id="SVGID_21_" cx="3953.6997" cy="749.0768" r="5.2603" gradientTransform="matrix(0.2403 0.4161 0.4161 -0.2403 -202.1157 -882.002)" gradientUnits="userSpaceOnUse">
			<stop  offset="0" style="stop-color:#F0F0F0"/>
			<stop  offset="1" style="stop-color:#AFAFAF"/>
		</radialGradient>
		<path class="st20" d="M1062.7,583.2c0,1.7-1.4,3.2-3.2,3.2c-1.7,0-3.2-1.4-3.2-3.2s1.4-3.2,3.2-3.2
			C1061.2,580.1,1062.7,581.5,1062.7,583.2z"/>
	</g>
	
		<linearGradient id="SVGID_22_" gradientUnits="userSpaceOnUse" x1="341.0668" y1="342.0237" x2="347.6368" y2="334.8337" gradientTransform="matrix(1.0319 0 0 -1.0319 -583.6451 600.5646)">
		<stop  offset="0" style="stop-color:#000000"/>
		<stop  offset="1" style="stop-color:#000000;stop-opacity:0"/>
	</linearGradient>
	<path class="st21" d="M-222.1,251.4c0,3.4-2.8,6.2-6.2,6.2s-6.2-2.8-6.2-6.2c0-3.4,2.8-6.2,6.2-6.2S-222.1,248-222.1,251.4z"/>
	
		<linearGradient id="SVGID_23_" gradientUnits="userSpaceOnUse" x1="-1627.7778" y1="999.8541" x2="-1635.6079" y2="1011.0841" gradientTransform="matrix(-0.1943 0.3366 0.3366 0.1943 -880.4182 604.9384)">
		<stop  offset="0" style="stop-color:#000000"/>
		<stop  offset="1" style="stop-color:#000000;stop-opacity:0"/>
	</linearGradient>
	<path class="st22" d="M-231,256.1c-2.6-1.5-3.5-4.8-2-7.4c1.5-2.6,4.8-3.5,7.4-2c2.6,1.5,3.5,4.8,2,7.4
		C-225,256.7-228.4,257.6-231,256.1z"/>
	
		<linearGradient id="SVGID_24_" gradientUnits="userSpaceOnUse" x1="-1630.3806" y1="1026.7141" x2="-1643.7606" y2="1042.3241" gradientTransform="matrix(-0.1868 0.3235 0.3235 0.1868 -868.5446 587.7719)">
		<stop  offset="0" style="stop-color:#BFBFBF"/>
		<stop  offset="1" style="stop-color:#F4F4F4"/>
	</linearGradient>
	<path class="st23" d="M-230.9,255.9c-2.5-1.4-3.4-4.6-1.9-7.1c1.4-2.5,4.6-3.4,7.1-1.9c2.5,1.4,3.4,4.6,1.9,7.1
		C-225.2,256.5-228.4,257.4-230.9,255.9z"/>
	<g transform="matrix(.39958 -.69208 .69208 .39958 -1055.3 751.61)">
		
			<radialGradient id="SVGID_25_" cx="3678.6897" cy="828.9577" r="5.869" gradientTransform="matrix(0.3996 0.5993 0.6921 -0.346 -984.1771 -1334.6615)" gradientUnits="userSpaceOnUse">
			<stop  offset="0" style="stop-color:#F2F2F2"/>
			<stop  offset="1" style="stop-color:#141414"/>
		</radialGradient>
		<path class="st24" d="M1062.4,588.3c-1.5-0.9-3.3-1.9-5.8,0c0.4-2.7-1-4-2.9-5c1.9-0.8,3.2-2.2,2.9-5c2,1.5,3.9,1.3,5.8,0
			c-0.3,2.2,0.5,3.9,2.9,5C1063.2,584,1062.2,585.6,1062.4,588.3z"/>
		
			<radialGradient id="SVGID_26_" cx="3971.7192" cy="780.2869" r="5.2603" gradientTransform="matrix(0.2403 0.4161 0.4161 -0.2403 -219.432 -882.002)" gradientUnits="userSpaceOnUse">
			<stop  offset="0" style="stop-color:#F0F0F0"/>
			<stop  offset="1" style="stop-color:#AFAFAF"/>
		</radialGradient>
		<path class="st25" d="M1062.7,583.2c0,1.7-1.4,3.2-3.2,3.2c-1.7,0-3.2-1.4-3.2-3.2s1.4-3.2,3.2-3.2
			C1061.2,580.1,1062.7,581.5,1062.7,583.2z"/>
	</g>
	
		<linearGradient id="SVGID_27_" gradientUnits="userSpaceOnUse" x1="341.0668" y1="342.0237" x2="347.6368" y2="334.8337" gradientTransform="matrix(1.0319 0 0 -1.0319 -544.3582 590.0446)">
		<stop  offset="0" style="stop-color:#000000"/>
		<stop  offset="1" style="stop-color:#000000;stop-opacity:0"/>
	</linearGradient>
	<path class="st26" d="M-182.8,240.9c0,3.4-2.8,6.2-6.2,6.2s-6.2-2.8-6.2-6.2s2.8-6.2,6.2-6.2S-182.8,237.4-182.8,240.9z"/>
	
		<linearGradient id="SVGID_28_" gradientUnits="userSpaceOnUse" x1="-1627.7778" y1="999.8541" x2="-1635.6079" y2="1011.0841" gradientTransform="matrix(-0.1943 0.3366 0.3366 0.1943 -841.1382 594.4084)">
		<stop  offset="0" style="stop-color:#000000"/>
		<stop  offset="1" style="stop-color:#000000;stop-opacity:0"/>
	</linearGradient>
	<path class="st27" d="M-191.7,245.6c-2.6-1.5-3.5-4.8-2-7.4c1.5-2.6,4.8-3.5,7.4-2c2.6,1.5,3.5,4.8,2,7.4
		C-185.8,246.2-189.1,247.1-191.7,245.6z"/>
	
		<linearGradient id="SVGID_29_" gradientUnits="userSpaceOnUse" x1="-1630.3806" y1="1026.7141" x2="-1643.7606" y2="1042.3241" gradientTransform="matrix(-0.1868 0.3235 0.3235 0.1868 -829.2546 577.2419)">
		<stop  offset="0" style="stop-color:#BFBFBF"/>
		<stop  offset="1" style="stop-color:#F4F4F4"/>
	</linearGradient>
	<path class="st28" d="M-191.6,245.4c-2.5-1.4-3.4-4.6-1.9-7.1c1.4-2.5,4.6-3.4,7.1-1.9c2.5,1.4,3.4,4.6,1.9,7.1
		C-185.9,246-189.1,246.8-191.6,245.4z"/>
	<g transform="matrix(.39958 -.69208 .69208 .39958 -1016 741.08)">
		
			<radialGradient id="SVGID_30_" cx="3642.6897" cy="792.9574" r="5.869" gradientTransform="matrix(0.3996 0.5993 0.6921 -0.346 -944.8771 -1325.5426)" gradientUnits="userSpaceOnUse">
			<stop  offset="0" style="stop-color:#F2F2F2"/>
			<stop  offset="1" style="stop-color:#141414"/>
		</radialGradient>
		<path class="st29" d="M1062.4,588.3c-1.5-0.9-3.3-1.9-5.8,0c0.4-2.7-1-4-2.9-5c1.9-0.8,3.2-2.2,2.9-5c2,1.5,3.9,1.3,5.8,0
			c-0.3,2.2,0.5,3.9,2.9,5C1063.2,584,1062.2,585.6,1062.4,588.3z"/>
		
			<radialGradient id="SVGID_31_" cx="3935.719" cy="744.2866" r="5.2603" gradientTransform="matrix(0.2403 0.4161 0.4161 -0.2403 -195.8025 -875.6708)" gradientUnits="userSpaceOnUse">
			<stop  offset="0" style="stop-color:#F0F0F0"/>
			<stop  offset="1" style="stop-color:#AFAFAF"/>
		</radialGradient>
		<path class="st30" d="M1062.7,583.2c0,1.7-1.4,3.2-3.2,3.2c-1.7,0-3.2-1.4-3.2-3.2s1.4-3.2,3.2-3.2
			C1061.2,580.1,1062.7,581.5,1062.7,583.2z"/>
	</g>
	
		<linearGradient id="SVGID_32_" gradientUnits="userSpaceOnUse" x1="341.0668" y1="342.0237" x2="347.6368" y2="334.8337" gradientTransform="matrix(1.0319 0 0 -1.0319 -594.1752 590.0446)">
		<stop  offset="0" style="stop-color:#000000"/>
		<stop  offset="1" style="stop-color:#000000;stop-opacity:0"/>
	</linearGradient>
	<path class="st31" d="M-232.6,240.9c0,3.4-2.8,6.2-6.2,6.2s-6.2-2.8-6.2-6.2s2.8-6.2,6.2-6.2S-232.6,237.4-232.6,240.9z"/>
	
		<linearGradient id="SVGID_33_" gradientUnits="userSpaceOnUse" x1="-1627.7778" y1="999.8541" x2="-1635.6079" y2="1011.0841" gradientTransform="matrix(-0.1943 0.3366 0.3366 0.1943 -890.9482 594.4084)">
		<stop  offset="0" style="stop-color:#000000"/>
		<stop  offset="1" style="stop-color:#000000;stop-opacity:0"/>
	</linearGradient>
	<path class="st32" d="M-241.5,245.6c-2.6-1.5-3.5-4.8-2-7.4c1.5-2.6,4.8-3.5,7.4-2c2.6,1.5,3.5,4.8,2,7.4
		C-235.6,246.2-238.9,247.1-241.5,245.6z"/>
	
		<linearGradient id="SVGID_34_" gradientUnits="userSpaceOnUse" x1="-1630.3806" y1="1026.7141" x2="-1643.7606" y2="1042.3241" gradientTransform="matrix(-0.1868 0.3235 0.3235 0.1868 -879.0746 577.2419)">
		<stop  offset="0" style="stop-color:#BFBFBF"/>
		<stop  offset="1" style="stop-color:#F4F4F4"/>
	</linearGradient>
	<path class="st33" d="M-241.4,245.4c-2.5-1.4-3.4-4.6-1.9-7.1c1.4-2.5,4.6-3.4,7.1-1.9c2.5,1.4,3.4,4.6,1.9,7.1
		C-235.7,246-238.9,246.8-241.4,245.4z"/>
	<g transform="matrix(.39958 -.69208 .69208 .39958 -1065.8 741.08)">
		
			<radialGradient id="SVGID_35_" cx="3673.8484" cy="846.9247" r="5.869" gradientTransform="matrix(0.3996 0.5993 0.6921 -0.346 -994.6771 -1325.5426)" gradientUnits="userSpaceOnUse">
			<stop  offset="0" style="stop-color:#F2F2F2"/>
			<stop  offset="1" style="stop-color:#141414"/>
		</radialGradient>
		<path class="st34" d="M1062.4,588.3c-1.5-0.9-3.3-1.9-5.8,0c0.4-2.7-1-4-2.9-5c1.9-0.8,3.2-2.2,2.9-5c2,1.5,3.9,1.3,5.8,0
			c-0.3,2.2,0.5,3.9,2.9,5C1063.2,584,1062.2,585.6,1062.4,588.3z"/>
		
			<radialGradient id="SVGID_36_" cx="3966.8777" cy="798.2538" r="5.2603" gradientTransform="matrix(0.2403 0.4161 0.4161 -0.2403 -225.7453 -875.6708)" gradientUnits="userSpaceOnUse">
			<stop  offset="0" style="stop-color:#F0F0F0"/>
			<stop  offset="1" style="stop-color:#AFAFAF"/>
		</radialGradient>
		<path class="st35" d="M1062.7,583.2c0,1.7-1.4,3.2-3.2,3.2c-1.7,0-3.2-1.4-3.2-3.2s1.4-3.2,3.2-3.2
			C1061.2,580.1,1062.7,581.5,1062.7,583.2z"/>
	</g>
	
		<linearGradient id="SVGID_37_" gradientUnits="userSpaceOnUse" x1="341.0668" y1="342.0237" x2="347.6368" y2="334.8337" gradientTransform="matrix(1.0319 0 0 -1.0319 -540.5051 575.6646)">
		<stop  offset="0" style="stop-color:#000000"/>
		<stop  offset="1" style="stop-color:#000000;stop-opacity:0"/>
	</linearGradient>
	<path class="st36" d="M-178.9,226.5c0,3.4-2.8,6.2-6.2,6.2c-3.4,0-6.2-2.8-6.2-6.2s2.8-6.2,6.2-6.2
		C-181.7,220.3-178.9,223.1-178.9,226.5z"/>
	
		<linearGradient id="SVGID_38_" gradientUnits="userSpaceOnUse" x1="-1627.7778" y1="999.8541" x2="-1635.6079" y2="1011.0841" gradientTransform="matrix(-0.1943 0.3366 0.3366 0.1943 -837.2782 580.0284)">
		<stop  offset="0" style="stop-color:#000000"/>
		<stop  offset="1" style="stop-color:#000000;stop-opacity:0"/>
	</linearGradient>
	<path class="st37" d="M-187.8,231.2c-2.6-1.5-3.5-4.8-2-7.4c1.5-2.6,4.8-3.5,7.4-2c2.6,1.5,3.5,4.8,2,7.4
		C-181.9,231.8-185.2,232.7-187.8,231.2z"/>
	
		<linearGradient id="SVGID_39_" gradientUnits="userSpaceOnUse" x1="-1630.3806" y1="1026.7141" x2="-1643.7606" y2="1042.3241" gradientTransform="matrix(-0.1868 0.3235 0.3235 0.1868 -825.4046 562.8619)">
		<stop  offset="0" style="stop-color:#BFBFBF"/>
		<stop  offset="1" style="stop-color:#F4F4F4"/>
	</linearGradient>
	<path class="st38" d="M-187.7,231c-2.5-1.4-3.4-4.6-1.9-7.1c1.4-2.5,4.6-3.4,7.1-1.9c2.5,1.4,3.4,4.6,1.9,7.1
		C-182,231.6-185.2,232.5-187.7,231z"/>
	<g transform="matrix(.39958 -.69208 .69208 .39958 -1012.1 726.7)">
		
			<radialGradient id="SVGID_40_" cx="3624.6663" cy="797.7282" r="5.869" gradientTransform="matrix(0.3996 0.5993 0.6921 -0.346 -940.9771 -1313.0897)" gradientUnits="userSpaceOnUse">
			<stop  offset="0" style="stop-color:#F2F2F2"/>
			<stop  offset="1" style="stop-color:#141414"/>
		</radialGradient>
		<path class="st39" d="M1062.4,588.3c-1.5-0.9-3.3-1.9-5.8,0c0.4-2.7-1-4-2.9-5c1.9-0.8,3.2-2.2,2.9-5c2,1.5,3.9,1.3,5.8,0
			c-0.3,2.2,0.5,3.9,2.9,5C1063.2,584,1062.2,585.6,1062.4,588.3z"/>
		
			<radialGradient id="SVGID_41_" cx="3917.6956" cy="749.0574" r="5.2603" gradientTransform="matrix(0.2403 0.4161 0.4161 -0.2403 -193.4576 -867.0247)" gradientUnits="userSpaceOnUse">
			<stop  offset="0" style="stop-color:#F0F0F0"/>
			<stop  offset="1" style="stop-color:#AFAFAF"/>
		</radialGradient>
		<path class="st40" d="M1062.7,583.2c0,1.7-1.4,3.2-3.2,3.2c-1.7,0-3.2-1.4-3.2-3.2s1.4-3.2,3.2-3.2
			C1061.2,580.1,1062.7,581.5,1062.7,583.2z"/>
	</g>
	
		<linearGradient id="SVGID_42_" gradientUnits="userSpaceOnUse" x1="341.0668" y1="342.0237" x2="347.6368" y2="334.8337" gradientTransform="matrix(1.0319 0 0 -1.0319 -598.0251 575.6646)">
		<stop  offset="0" style="stop-color:#000000"/>
		<stop  offset="1" style="stop-color:#000000;stop-opacity:0"/>
	</linearGradient>
	<path class="st41" d="M-236.4,226.5c0,3.4-2.8,6.2-6.2,6.2c-3.4,0-6.2-2.8-6.2-6.2s2.8-6.2,6.2-6.2
		C-239.2,220.3-236.4,223.1-236.4,226.5z"/>
	
		<linearGradient id="SVGID_43_" gradientUnits="userSpaceOnUse" x1="-1627.7778" y1="999.8541" x2="-1635.6079" y2="1011.0841" gradientTransform="matrix(-0.1943 0.3366 0.3366 0.1943 -894.7982 580.0284)">
		<stop  offset="0" style="stop-color:#000000"/>
		<stop  offset="1" style="stop-color:#000000;stop-opacity:0"/>
	</linearGradient>
	<path class="st42" d="M-245.4,231.2c-2.6-1.5-3.5-4.8-2-7.4c1.5-2.6,4.8-3.5,7.4-2c2.6,1.5,3.5,4.8,2,7.4
		C-239.4,231.8-242.8,232.7-245.4,231.2z"/>
	
		<linearGradient id="SVGID_44_" gradientUnits="userSpaceOnUse" x1="-1630.3806" y1="1026.7141" x2="-1643.7606" y2="1042.3241" gradientTransform="matrix(-0.1868 0.3235 0.3235 0.1868 -882.9246 562.8619)">
		<stop  offset="0" style="stop-color:#BFBFBF"/>
		<stop  offset="1" style="stop-color:#F4F4F4"/>
	</linearGradient>
	<path class="st43" d="M-245.3,231c-2.5-1.4-3.4-4.6-1.9-7.1c1.4-2.5,4.6-3.4,7.1-1.9c2.5,1.4,3.4,4.6,1.9,7.1
		C-239.6,231.6-242.8,232.5-245.3,231z"/>
	<g transform="matrix(.39958 -.69208 .69208 .39958 -1069.7 726.7)">
		
			<radialGradient id="SVGID_45_" cx="3660.7051" cy="860.1481" r="5.869" gradientTransform="matrix(0.3996 0.5993 0.6921 -0.346 -998.577 -1313.0897)" gradientUnits="userSpaceOnUse">
			<stop  offset="0" style="stop-color:#F2F2F2"/>
			<stop  offset="1" style="stop-color:#141414"/>
		</radialGradient>
		<path class="st44" d="M1062.4,588.3c-1.5-0.9-3.3-1.9-5.8,0c0.4-2.7-1-4-2.9-5c1.9-0.8,3.2-2.2,2.9-5c2,1.5,3.9,1.3,5.8,0
			c-0.3,2.2,0.5,3.9,2.9,5C1063.2,584,1062.2,585.6,1062.4,588.3z"/>
		
			<radialGradient id="SVGID_46_" cx="3953.7344" cy="811.4773" r="5.2603" gradientTransform="matrix(0.2403 0.4161 0.4161 -0.2403 -228.0901 -867.0247)" gradientUnits="userSpaceOnUse">
			<stop  offset="0" style="stop-color:#F0F0F0"/>
			<stop  offset="1" style="stop-color:#AFAFAF"/>
		</radialGradient>
		<path class="st45" d="M1062.7,583.2c0,1.7-1.4,3.2-3.2,3.2c-1.7,0-3.2-1.4-3.2-3.2s1.4-3.2,3.2-3.2
			C1061.2,580.1,1062.7,581.5,1062.7,583.2z"/>
	</g>
	
		<linearGradient id="SVGID_47_" gradientUnits="userSpaceOnUse" x1="341.0668" y1="342.0237" x2="347.6368" y2="334.8337" gradientTransform="matrix(1.0319 0 0 -1.0319 -594.1752 561.2806)">
		<stop  offset="0" style="stop-color:#000000"/>
		<stop  offset="1" style="stop-color:#000000;stop-opacity:0"/>
	</linearGradient>
	<path class="st46" d="M-232.6,212.1c0,3.4-2.8,6.2-6.2,6.2s-6.2-2.8-6.2-6.2c0-3.4,2.8-6.2,6.2-6.2S-232.6,208.7-232.6,212.1z"/>
	
		<linearGradient id="SVGID_48_" gradientUnits="userSpaceOnUse" x1="-1627.7778" y1="999.8541" x2="-1635.6079" y2="1011.0841" gradientTransform="matrix(-0.1943 0.3366 0.3366 0.1943 -890.9482 565.6484)">
		<stop  offset="0" style="stop-color:#000000"/>
		<stop  offset="1" style="stop-color:#000000;stop-opacity:0"/>
	</linearGradient>
	<path class="st47" d="M-241.5,216.8c-2.6-1.5-3.5-4.8-2-7.4c1.5-2.6,4.8-3.5,7.4-2c2.6,1.5,3.5,4.8,2,7.4
		C-235.6,217.4-238.9,218.3-241.5,216.8z"/>
	
		<linearGradient id="SVGID_49_" gradientUnits="userSpaceOnUse" x1="-1630.3806" y1="1026.7141" x2="-1643.7606" y2="1042.3241" gradientTransform="matrix(-0.1868 0.3235 0.3235 0.1868 -879.0746 548.4819)">
		<stop  offset="0" style="stop-color:#BFBFBF"/>
		<stop  offset="1" style="stop-color:#F4F4F4"/>
	</linearGradient>
	<path class="st48" d="M-241.4,216.6c-2.5-1.4-3.4-4.6-1.9-7.1c1.4-2.5,4.6-3.4,7.1-1.9c2.5,1.4,3.4,4.6,1.9,7.1
		C-235.7,217.2-238.9,218.1-241.4,216.6z"/>
	<g transform="matrix(.39958 -.69208 .69208 .39958 -1065.8 712.32)">
		
			<radialGradient id="SVGID_50_" cx="3642.6816" cy="864.9191" r="5.869" gradientTransform="matrix(0.3996 0.5993 0.6921 -0.346 -994.6771 -1300.6367)" gradientUnits="userSpaceOnUse">
			<stop  offset="0" style="stop-color:#F2F2F2"/>
			<stop  offset="1" style="stop-color:#141414"/>
		</radialGradient>
		<path class="st49" d="M1062.4,588.3c-1.5-0.9-3.3-1.9-5.8,0c0.4-2.7-1-4-2.9-5c1.9-0.8,3.2-2.2,2.9-5c2,1.5,3.9,1.3,5.8,0
			c-0.3,2.2,0.5,3.9,2.9,5C1063.2,584,1062.2,585.6,1062.4,588.3z"/>
		
			<radialGradient id="SVGID_51_" cx="3935.7109" cy="816.2483" r="5.2603" gradientTransform="matrix(0.2403 0.4161 0.4161 -0.2403 -225.7453 -858.3785)" gradientUnits="userSpaceOnUse">
			<stop  offset="0" style="stop-color:#F0F0F0"/>
			<stop  offset="1" style="stop-color:#AFAFAF"/>
		</radialGradient>
		<path class="st50" d="M1062.7,583.2c0,1.7-1.4,3.2-3.2,3.2c-1.7,0-3.2-1.4-3.2-3.2s1.4-3.2,3.2-3.2
			C1061.2,580.1,1062.7,581.5,1062.7,583.2z"/>
	</g>
	
		<linearGradient id="SVGID_52_" gradientUnits="userSpaceOnUse" x1="341.0668" y1="342.0237" x2="347.6368" y2="334.8337" gradientTransform="matrix(1.0319 0 0 -1.0319 -583.6451 550.7536)">
		<stop  offset="0" style="stop-color:#000000"/>
		<stop  offset="1" style="stop-color:#000000;stop-opacity:0"/>
	</linearGradient>
	<path class="st51" d="M-222.1,201.6c0,3.4-2.8,6.2-6.2,6.2s-6.2-2.8-6.2-6.2s2.8-6.2,6.2-6.2S-222.1,198.1-222.1,201.6z"/>
	
		<linearGradient id="SVGID_53_" gradientUnits="userSpaceOnUse" x1="-1627.7778" y1="999.8541" x2="-1635.6079" y2="1011.0841" gradientTransform="matrix(-0.1943 0.3366 0.3366 0.1943 -880.4182 555.1284)">
		<stop  offset="0" style="stop-color:#000000"/>
		<stop  offset="1" style="stop-color:#000000;stop-opacity:0"/>
	</linearGradient>
	<path class="st52" d="M-231,206.3c-2.6-1.5-3.5-4.8-2-7.4c1.5-2.6,4.8-3.5,7.4-2c2.6,1.5,3.5,4.8,2,7.4
		C-225,206.9-228.4,207.8-231,206.3z"/>
	
		<linearGradient id="SVGID_54_" gradientUnits="userSpaceOnUse" x1="-1630.3806" y1="1026.7141" x2="-1643.7606" y2="1042.3241" gradientTransform="matrix(-0.1868 0.3235 0.3235 0.1868 -868.5446 537.9519)">
		<stop  offset="0" style="stop-color:#BFBFBF"/>
		<stop  offset="1" style="stop-color:#F4F4F4"/>
	</linearGradient>
	<path class="st53" d="M-230.9,206.1c-2.5-1.4-3.4-4.6-1.9-7.1c1.4-2.5,4.6-3.4,7.1-1.9c2.5,1.4,3.4,4.6,1.9,7.1
		C-225.2,206.7-228.4,207.5-230.9,206.1z"/>
	<g transform="matrix(.39958 -.69208 .69208 .39958 -1055.3 701.8)">
		
			<radialGradient id="SVGID_55_" cx="3624.7117" cy="860.1226" r="5.869" gradientTransform="matrix(0.3996 0.5993 0.6921 -0.346 -984.1771 -1291.5265)" gradientUnits="userSpaceOnUse">
			<stop  offset="0" style="stop-color:#F2F2F2"/>
			<stop  offset="1" style="stop-color:#141414"/>
		</radialGradient>
		<path class="st54" d="M1062.4,588.3c-1.5-0.9-3.3-1.9-5.8,0c0.4-2.7-1-4-2.9-5c1.9-0.8,3.2-2.2,2.9-5c2,1.5,3.9,1.3,5.8,0
			c-0.3,2.2,0.5,3.9,2.9,5C1063.2,584,1062.2,585.6,1062.4,588.3z"/>
		
			<radialGradient id="SVGID_56_" cx="3917.7412" cy="811.4517" r="5.2603" gradientTransform="matrix(0.2403 0.4161 0.4161 -0.2403 -219.432 -852.0532)" gradientUnits="userSpaceOnUse">
			<stop  offset="0" style="stop-color:#F0F0F0"/>
			<stop  offset="1" style="stop-color:#AFAFAF"/>
		</radialGradient>
		<path class="st55" d="M1062.7,583.2c0,1.7-1.4,3.2-3.2,3.2c-1.7,0-3.2-1.4-3.2-3.2s1.4-3.2,3.2-3.2
			C1061.2,580.1,1062.7,581.5,1062.7,583.2z"/>
	</g>
	
		<linearGradient id="SVGID_57_" gradientUnits="userSpaceOnUse" x1="341.0668" y1="342.0237" x2="347.6368" y2="334.8337" gradientTransform="matrix(1.0319 0 0 -1.0319 -554.8851 550.7536)">
		<stop  offset="0" style="stop-color:#000000"/>
		<stop  offset="1" style="stop-color:#000000;stop-opacity:0"/>
	</linearGradient>
	<path class="st56" d="M-193.3,201.6c0,3.4-2.8,6.2-6.2,6.2c-3.4,0-6.2-2.8-6.2-6.2s2.8-6.2,6.2-6.2
		C-196.1,195.4-193.3,198.1-193.3,201.6z"/>
	
		<linearGradient id="SVGID_58_" gradientUnits="userSpaceOnUse" x1="-1627.7778" y1="999.8541" x2="-1635.6079" y2="1011.0841" gradientTransform="matrix(-0.1943 0.3366 0.3366 0.1943 -851.6582 555.1284)">
		<stop  offset="0" style="stop-color:#000000"/>
		<stop  offset="1" style="stop-color:#000000;stop-opacity:0"/>
	</linearGradient>
	<path class="st57" d="M-202.2,206.3c-2.6-1.5-3.5-4.8-2-7.4c1.5-2.6,4.8-3.5,7.4-2c2.6,1.5,3.5,4.8,2,7.4
		C-196.3,206.9-199.6,207.8-202.2,206.3z"/>
	
		<linearGradient id="SVGID_59_" gradientUnits="userSpaceOnUse" x1="-1630.3806" y1="1026.7141" x2="-1643.7606" y2="1042.3241" gradientTransform="matrix(-0.1868 0.3235 0.3235 0.1868 -839.7846 537.9519)">
		<stop  offset="0" style="stop-color:#BFBFBF"/>
		<stop  offset="1" style="stop-color:#F4F4F4"/>
	</linearGradient>
	<path class="st58" d="M-202.1,206.1c-2.5-1.4-3.4-4.6-1.9-7.1c1.4-2.5,4.6-3.4,7.1-1.9c2.5,1.4,3.4,4.6,1.9,7.1
		C-196.4,206.7-199.6,207.5-202.1,206.1z"/>
	<g transform="matrix(.39958 -.69208 .69208 .39958 -1026.5 701.8)">
		
			<radialGradient id="SVGID_60_" cx="3606.6924" cy="828.9125" r="5.869" gradientTransform="matrix(0.3996 0.5993 0.6921 -0.346 -955.3771 -1291.5265)" gradientUnits="userSpaceOnUse">
			<stop  offset="0" style="stop-color:#F2F2F2"/>
			<stop  offset="1" style="stop-color:#141414"/>
		</radialGradient>
		<path class="st59" d="M1062.4,588.3c-1.5-0.9-3.3-1.9-5.8,0c0.4-2.7-1-4-2.9-5c1.9-0.8,3.2-2.2,2.9-5c2,1.5,3.9,1.3,5.8,0
			c-0.3,2.2,0.5,3.9,2.9,5C1063.2,584,1062.2,585.6,1062.4,588.3z"/>
		
			<radialGradient id="SVGID_61_" cx="3899.7217" cy="780.2417" r="5.2603" gradientTransform="matrix(0.2403 0.4161 0.4161 -0.2403 -202.1157 -852.0532)" gradientUnits="userSpaceOnUse">
			<stop  offset="0" style="stop-color:#F0F0F0"/>
			<stop  offset="1" style="stop-color:#AFAFAF"/>
		</radialGradient>
		<path class="st60" d="M1062.7,583.2c0,1.7-1.4,3.2-3.2,3.2c-1.7,0-3.2-1.4-3.2-3.2s1.4-3.2,3.2-3.2
			C1061.2,580.1,1062.7,581.5,1062.7,583.2z"/>
	</g>
	
		<linearGradient id="SVGID_62_" gradientUnits="userSpaceOnUse" x1="341.0668" y1="342.0237" x2="347.6368" y2="334.8337" gradientTransform="matrix(1.0319 0 0 -1.0319 -569.2651 546.9006)">
		<stop  offset="0" style="stop-color:#000000"/>
		<stop  offset="1" style="stop-color:#000000;stop-opacity:0"/>
	</linearGradient>
	<path class="st61" d="M-207.7,197.7c0,3.4-2.8,6.2-6.2,6.2s-6.2-2.8-6.2-6.2c0-3.4,2.8-6.2,6.2-6.2S-207.7,194.3-207.7,197.7z"/>
	
		<linearGradient id="SVGID_63_" gradientUnits="userSpaceOnUse" x1="-1627.7778" y1="999.8541" x2="-1635.6079" y2="1011.0841" gradientTransform="matrix(-0.1943 0.3366 0.3366 0.1943 -866.0382 551.2784)">
		<stop  offset="0" style="stop-color:#000000"/>
		<stop  offset="1" style="stop-color:#000000;stop-opacity:0"/>
	</linearGradient>
	<path class="st62" d="M-216.6,202.4c-2.6-1.5-3.5-4.8-2-7.4c1.5-2.6,4.8-3.5,7.4-2c2.6,1.5,3.5,4.8,2,7.4
		C-210.7,203-214,203.9-216.6,202.4z"/>
	
		<linearGradient id="SVGID_64_" gradientUnits="userSpaceOnUse" x1="-1630.3806" y1="1026.7141" x2="-1643.7606" y2="1042.3241" gradientTransform="matrix(-0.1868 0.3235 0.3235 0.1868 -854.1646 534.1019)">
		<stop  offset="0" style="stop-color:#BFBFBF"/>
		<stop  offset="1" style="stop-color:#F4F4F4"/>
	</linearGradient>
	<path class="st63" d="M-216.5,202.2c-2.5-1.4-3.4-4.6-1.9-7.1c1.4-2.5,4.6-3.4,7.1-1.9c2.5,1.4,3.4,4.6,1.9,7.1
		C-210.8,202.8-214,203.7-216.5,202.2z"/>
	<g transform="matrix(.39958 -.69208 .69208 .39958 -1040.9 697.94)">
		
			<radialGradient id="SVGID_65_" cx="3611.519" cy="846.9326" r="5.869" gradientTransform="matrix(0.3996 0.5993 0.6921 -0.346 -969.7771 -1288.1838)" gradientUnits="userSpaceOnUse">
			<stop  offset="0" style="stop-color:#F2F2F2"/>
			<stop  offset="1" style="stop-color:#141414"/>
		</radialGradient>
		<path class="st64" d="M1062.4,588.3c-1.5-0.9-3.3-1.9-5.8,0c0.4-2.7-1-4-2.9-5c1.9-0.8,3.2-2.2,2.9-5c2,1.5,3.9,1.3,5.8,0
			c-0.3,2.2,0.5,3.9,2.9,5C1063.2,584,1062.2,585.6,1062.4,588.3z"/>
		
			<radialGradient id="SVGID_66_" cx="3904.5483" cy="798.2618" r="5.2603" gradientTransform="matrix(0.2403 0.4161 0.4161 -0.2403 -210.7739 -849.7324)" gradientUnits="userSpaceOnUse">
			<stop  offset="0" style="stop-color:#F0F0F0"/>
			<stop  offset="1" style="stop-color:#AFAFAF"/>
		</radialGradient>
		<path class="st65" d="M1062.7,583.2c0,1.7-1.4,3.2-3.2,3.2c-1.7,0-3.2-1.4-3.2-3.2s1.4-3.2,3.2-3.2
			C1061.2,580.1,1062.7,581.5,1062.7,583.2z"/>
	</g>
	
		<linearGradient id="SVGID_67_" gradientUnits="userSpaceOnUse" x1="341.0668" y1="342.0237" x2="347.6368" y2="334.8337" gradientTransform="matrix(1.0319 0 0 -1.0319 -544.3582 561.2806)">
		<stop  offset="0" style="stop-color:#000000"/>
		<stop  offset="1" style="stop-color:#000000;stop-opacity:0"/>
	</linearGradient>
	<path class="st66" d="M-182.8,212.1c0,3.4-2.8,6.2-6.2,6.2s-6.2-2.8-6.2-6.2c0-3.4,2.8-6.2,6.2-6.2S-182.8,208.7-182.8,212.1z"/>
	
		<linearGradient id="SVGID_68_" gradientUnits="userSpaceOnUse" x1="-1627.7778" y1="999.8541" x2="-1635.6079" y2="1011.0841" gradientTransform="matrix(-0.1943 0.3366 0.3366 0.1943 -841.1382 565.6484)">
		<stop  offset="0" style="stop-color:#000000"/>
		<stop  offset="1" style="stop-color:#000000;stop-opacity:0"/>
	</linearGradient>
	<path class="st67" d="M-191.7,216.8c-2.6-1.5-3.5-4.8-2-7.4c1.5-2.6,4.8-3.5,7.4-2c2.6,1.5,3.5,4.8,2,7.4
		C-185.8,217.4-189.1,218.3-191.7,216.8z"/>
	
		<linearGradient id="SVGID_69_" gradientUnits="userSpaceOnUse" x1="-1630.3806" y1="1026.7141" x2="-1643.7606" y2="1042.3241" gradientTransform="matrix(-0.1868 0.3235 0.3235 0.1868 -829.2546 548.4819)">
		<stop  offset="0" style="stop-color:#BFBFBF"/>
		<stop  offset="1" style="stop-color:#F4F4F4"/>
	</linearGradient>
	<path class="st68" d="M-191.6,216.6c-2.5-1.4-3.4-4.6-1.9-7.1c1.4-2.5,4.6-3.4,7.1-1.9c2.5,1.4,3.4,4.6,1.9,7.1
		C-185.9,217.2-189.1,218.1-191.6,216.6z"/>
	<g transform="matrix(.39958 -.69208 .69208 .39958 -1016 712.32)">
		
			<radialGradient id="SVGID_70_" cx="3611.5229" cy="810.9518" r="5.869" gradientTransform="matrix(0.3996 0.5993 0.6921 -0.346 -944.8771 -1300.6367)" gradientUnits="userSpaceOnUse">
			<stop  offset="0" style="stop-color:#F2F2F2"/>
			<stop  offset="1" style="stop-color:#141414"/>
		</radialGradient>
		<path class="st69" d="M1062.4,588.3c-1.5-0.9-3.3-1.9-5.8,0c0.4-2.7-1-4-2.9-5c1.9-0.8,3.2-2.2,2.9-5c2,1.5,3.9,1.3,5.8,0
			c-0.3,2.2,0.5,3.9,2.9,5C1063.2,584,1062.2,585.6,1062.4,588.3z"/>
		
			<radialGradient id="SVGID_71_" cx="3904.5525" cy="762.2809" r="5.2603" gradientTransform="matrix(0.2403 0.4161 0.4161 -0.2403 -195.8025 -858.3785)" gradientUnits="userSpaceOnUse">
			<stop  offset="0" style="stop-color:#F0F0F0"/>
			<stop  offset="1" style="stop-color:#AFAFAF"/>
		</radialGradient>
		<path class="st70" d="M1062.7,583.2c0,1.7-1.4,3.2-3.2,3.2c-1.7,0-3.2-1.4-3.2-3.2s1.4-3.2,3.2-3.2
			C1061.2,580.1,1062.7,581.5,1062.7,583.2z"/>
	</g>
</g>
</svg>
