<?xml version="1.0" encoding="utf-8"?>
<!-- Generator: Adobe Illustrator 19.0.0, SVG Export Plug-In . SVG Version: 6.00 Build 0)  -->
<svg version="1.1" id="Capa_1" xmlns="http://www.w3.org/2000/svg" xmlns:xlink="http://www.w3.org/1999/xlink" x="0px" y="0px"
	 viewBox="-346 91.5 265.3 379.5" style="enable-background:new -346 91.5 265.3 379.5;" xml:space="preserve">
<style type="text/css">
	.st0{fill:url(#SVGID_1_);stroke:#1A1A1A;stroke-width:0.2401;stroke-linecap:round;stroke-linejoin:round;}
	.st1{fill:url(#SVGID_2_);}
	.st2{fill:url(#SVGID_3_);stroke:#1A1A1A;stroke-width:0.2401;stroke-linecap:round;stroke-linejoin:round;}
	.st3{fill:url(#SVGID_4_);}
	.st4{fill:url(#SVGID_5_);stroke:#1A1A1A;stroke-width:0.2401;stroke-linecap:round;stroke-linejoin:round;}
	.st5{fill:url(#SVGID_6_);}
	.st6{fill:url(#SVGID_7_);}
	.st7{fill:url(#SVGID_8_);}
	.st8{fill:url(#SVGID_9_);}
	.st9{fill:url(#SVGID_10_);}
	.st10{fill:url(#SVGID_11_);}
	.st11{fill:url(#SVGID_12_);}
	.st12{fill:url(#SVGID_13_);}
	.st13{fill:url(#SVGID_14_);}
	.st14{fill:url(#SVGID_15_);stroke:#4D4D4D;stroke-width:0.2503;}
	.st15{fill:url(#SVGID_16_);}
	.st16{fill:url(#SVGID_17_);}
	.st17{fill:url(#SVGID_18_);}
	.st18{fill:url(#SVGID_19_);}
	.st19{fill:url(#SVGID_20_);stroke:#4D4D4D;stroke-width:0.2503;}
	.st20{fill:url(#SVGID_21_);}
	.st21{fill:url(#SVGID_22_);}
	.st22{fill:url(#SVGID_23_);}
	.st23{fill:url(#SVGID_24_);}
	.st24{fill:url(#SVGID_25_);stroke:#4D4D4D;stroke-width:0.2503;}
	.st25{fill:url(#SVGID_26_);}
	.st26{fill:url(#SVGID_27_);}
	.st27{fill:url(#SVGID_28_);}
	.st28{fill:url(#SVGID_29_);}
	.st29{fill:url(#SVGID_30_);stroke:#4D4D4D;stroke-width:0.2503;}
	.st30{fill:url(#SVGID_31_);}
	.st31{fill:url(#SVGID_32_);}
	.st32{fill:url(#SVGID_33_);}
	.st33{fill:url(#SVGID_34_);}
	.st34{fill:url(#SVGID_35_);stroke:#4D4D4D;stroke-width:0.2503;}
	.st35{fill:url(#SVGID_36_);}
	.st36{fill:url(#SVGID_37_);}
	.st37{fill:url(#SVGID_38_);}
	.st38{fill:url(#SVGID_39_);}
	.st39{fill:url(#SVGID_40_);stroke:#4D4D4D;stroke-width:0.2503;}
	.st40{fill:url(#SVGID_41_);}
	.st41{fill:url(#SVGID_42_);}
	.st42{fill:url(#SVGID_43_);}
	.st43{fill:url(#SVGID_44_);}
	.st44{fill:url(#SVGID_45_);stroke:#4D4D4D;stroke-width:0.2503;}
	.st45{fill:url(#SVGID_46_);}
	.st46{fill:url(#SVGID_47_);}
	.st47{fill:url(#SVGID_48_);}
	.st48{fill:url(#SVGID_49_);}
	.st49{fill:url(#SVGID_50_);stroke:#4D4D4D;stroke-width:0.2503;}
	.st50{fill:url(#SVGID_51_);}
	.st51{fill:url(#SVGID_52_);}
	.st52{fill:url(#SVGID_53_);}
	.st53{fill:url(#SVGID_54_);}
	.st54{fill:url(#SVGID_55_);stroke:#4D4D4D;stroke-width:0.2503;}
	.st55{fill:url(#SVGID_56_);}
	.st56{fill:url(#SVGID_57_);}
	.st57{fill:url(#SVGID_58_);}
	.st58{fill:url(#SVGID_59_);}
	.st59{fill:url(#SVGID_60_);stroke:#4D4D4D;stroke-width:0.2503;}
	.st60{fill:url(#SVGID_61_);}
	.st61{fill:url(#SVGID_62_);}
	.st62{fill:url(#SVGID_63_);}
	.st63{fill:url(#SVGID_64_);}
	.st64{fill:url(#SVGID_65_);stroke:#4D4D4D;stroke-width:0.2503;}
	.st65{fill:url(#SVGID_66_);}
	.st66{fill:url(#SVGID_67_);}
	.st67{fill:url(#SVGID_68_);}
	.st68{fill:url(#SVGID_69_);}
	.st69{fill:url(#SVGID_70_);stroke:#4D4D4D;stroke-width:0.2503;}
	.st70{fill:url(#SVGID_71_);}
</style>
<g>
	
		<linearGradient id="SVGID_1_" gradientUnits="userSpaceOnUse" x1="-124.9098" y1="553.6086" x2="-315.4398" y2="349.0886" gradientTransform="matrix(0.7832 0.2832 -0.2832 0.7832 -261.675 27.5983)">
		<stop  offset="0" style="stop-color:#A2A2A2"/>
		<stop  offset="1" style="stop-color:#FFFFFF;stop-opacity:0.9913"/>
	</linearGradient>
	<path class="st0" d="M-442.9,364.4c-23.5,65-95.2,98.6-160.2,75.1c-65-23.5-98.6-95.2-75.1-160.2s95.2-98.6,160.2-75.1
		S-419.4,299.4-442.9,364.4z"/>
	
		<linearGradient id="SVGID_2_" gradientUnits="userSpaceOnUse" x1="-2041.4247" y1="23.7613" x2="-1741.0227" y2="23.7613" gradientTransform="matrix(-0.772 -0.2791 0.2791 -0.772 -2027.2157 -187.6621)">
		<stop  offset="0" style="stop-color:#E4E4E4"/>
		<stop  offset="1" style="stop-color:#E4E4E4;stop-opacity:0"/>
	</linearGradient>
	<path class="st1" d="M-676.5,280c23.2-64,93.8-97.2,157.9-74s97.2,93.8,74,157.9s-93.8,97.2-157.9,74S-699.7,344-676.5,280z"/>
	
		<linearGradient id="SVGID_3_" gradientUnits="userSpaceOnUse" x1="-124.9098" y1="553.6086" x2="-315.4398" y2="349.0886" gradientTransform="matrix(0.7832 0.2832 -0.2832 0.7832 -260.995 25.7175)">
		<stop  offset="0" style="stop-color:#A2A2A2"/>
		<stop  offset="1" style="stop-color:#FFFFFF;stop-opacity:0.9913"/>
	</linearGradient>
	<path class="st2" d="M-442.3,362.5c-23.5,65-95.2,98.6-160.2,75.1c-65-23.5-98.6-95.2-75.1-160.2s95.2-98.6,160.2-75.1
		S-418.8,297.6-442.3,362.5z"/>
	
		<linearGradient id="SVGID_4_" gradientUnits="userSpaceOnUse" x1="-2041.4247" y1="23.7613" x2="-1741.0227" y2="23.7613" gradientTransform="matrix(-0.772 -0.2791 0.2791 -0.772 -2026.5356 -189.543)">
		<stop  offset="0" style="stop-color:#E4E4E4"/>
		<stop  offset="1" style="stop-color:#E4E4E4;stop-opacity:0"/>
	</linearGradient>
	<path class="st3" d="M-675.9,278.1c23.2-64,93.8-97.2,157.9-74s97.2,93.8,74,157.9s-93.8,97.2-157.9,74S-699,342.1-675.9,278.1z"/>
	
		<linearGradient id="SVGID_5_" gradientUnits="userSpaceOnUse" x1="-124.9098" y1="553.6086" x2="-315.4398" y2="349.0886" gradientTransform="matrix(0.7832 0.2832 -0.2832 0.7832 -260.3149 23.8366)">
		<stop  offset="0" style="stop-color:#A2A2A2"/>
		<stop  offset="1" style="stop-color:#FFFFFF;stop-opacity:0.9913"/>
	</linearGradient>
	<path class="st4" d="M-441.6,360.7c-23.5,65-95.2,98.6-160.2,75.1s-98.6-95.2-75.1-160.2s95.2-98.6,160.2-75.1
		S-418.1,295.7-441.6,360.7z"/>
	
		<linearGradient id="SVGID_6_" gradientUnits="userSpaceOnUse" x1="-2041.4247" y1="23.7613" x2="-1741.0227" y2="23.7613" gradientTransform="matrix(-0.772 -0.2791 0.2791 -0.772 -2025.8556 -191.4238)">
		<stop  offset="0" style="stop-color:#E4E4E4"/>
		<stop  offset="1" style="stop-color:#E4E4E4;stop-opacity:0"/>
	</linearGradient>
	<path class="st5" d="M-675.2,276.2c23.2-64,93.8-97.2,157.9-74s97.2,93.8,74,157.9c-23.2,64-93.8,97.2-157.9,74
		C-665.2,410.9-698.3,340.2-675.2,276.2z"/>
	
		<linearGradient id="SVGID_7_" gradientUnits="userSpaceOnUse" x1="-397.2934" y1="442.1024" x2="-411.1734" y2="404.4525" gradientTransform="matrix(1.0565 0.382 -0.3852 1.0653 32.4029 47.058)">
		<stop  offset="0" style="stop-color:#060606"/>
		<stop  offset="1" style="stop-color:#909090;stop-opacity:0"/>
	</linearGradient>
	<path class="st6" d="M-518,335.3c-8,22.2-32.3,33.7-54.3,25.8c-22-8-33.3-32.3-25.3-54.5s32.3-33.6,54.3-25.7
		C-521.3,288.8-510,313.1-518,335.3L-518,335.3z"/>
	
		<radialGradient id="SVGID_8_" cx="-395.3495" cy="409.8857" r="37.6187" gradientTransform="matrix(1.0299 0.3724 -0.3724 1.0299 0.6066 43.1846)" gradientUnits="userSpaceOnUse">
		<stop  offset="0" style="stop-color:#F4F4F4"/>
		<stop  offset="0.8421" style="stop-color:#E5E5E5"/>
		<stop  offset="0.8549" style="stop-color:#878787"/>
		<stop  offset="0.9086" style="stop-color:#F0F0F0"/>
		<stop  offset="0.9598" style="stop-color:#E7E7E7"/>
		<stop  offset="1" style="stop-color:#A9A9A9;stop-opacity:0.9739"/>
	</radialGradient>
	<path class="st7" d="M-520.5,332.1c-7.8,21.4-31.4,32.5-52.8,24.7s-32.5-31.4-24.7-52.8s31.4-32.5,52.8-24.7
		S-512.7,310.7-520.5,332.1L-520.5,332.1z"/>
	
		<radialGradient id="SVGID_9_" cx="-404.4456" cy="405.1962" r="18.1352" gradientTransform="matrix(1.051 0.38 -0.38 1.051 19.8347 45.9466)" gradientUnits="userSpaceOnUse">
		<stop  offset="0" style="stop-color:#DADADA"/>
		<stop  offset="0.123" style="stop-color:#D5D5D5"/>
		<stop  offset="0.1518" style="stop-color:#B5B5B5"/>
		<stop  offset="0.2138" style="stop-color:#EEEEEE"/>
		<stop  offset="0.2565" style="stop-color:#D7D7D7"/>
		<stop  offset="0.271" style="stop-color:#E0E0E0"/>
		<stop  offset="0.8225" style="stop-color:#EAEAEA"/>
		<stop  offset="0.8501" style="stop-color:#828282;stop-opacity:0.9843"/>
		<stop  offset="0.9007" style="stop-color:#E9E9E9"/>
		<stop  offset="0.9605" style="stop-color:#E7E7E7"/>
		<stop  offset="1" style="stop-color:#ADADAD"/>
	</radialGradient>
	<path class="st8" d="M-540.1,325c-3.8,10.5-15.5,16-26,12.2c-10.5-3.8-16-15.5-12.2-26c3.8-10.5,15.5-16,26-12.2
		S-536.3,314.5-540.1,325z"/>
	
		<radialGradient id="SVGID_10_" cx="5472.6689" cy="2134.9216" r="23.479" gradientTransform="matrix(9.648682e-002 3.488628e-002 -3.488628e-002 9.648682e-002 -1012.7332 -78.7864)" gradientUnits="userSpaceOnUse">
		<stop  offset="0" style="stop-color:#111111"/>
		<stop  offset="0.9324" style="stop-color:#505050"/>
		<stop  offset="1" style="stop-color:#ABABAB"/>
	</radialGradient>
	<path class="st9" d="M-557,318.9c-0.4,1.2-1.9,1.9-3.1,1.4s-1.9-1.9-1.4-3.1c0.4-1.2,1.9-1.9,3.1-1.4
		C-557.2,316.3-556.5,317.7-557,318.9z"/>
	
		<linearGradient id="SVGID_11_" gradientUnits="userSpaceOnUse" x1="-1636.6696" y1="108.9132" x2="-1682.6494" y2="59.1432" gradientTransform="matrix(-1.0299 -0.3724 0.3724 -1.0299 -2299.5339 -212.3613)">
		<stop  offset="0" style="stop-color:#FFFFFF;stop-opacity:0.8261"/>
		<stop  offset="0.5" style="stop-color:#7E7E7E;stop-opacity:0"/>
		<stop  offset="1" style="stop-color:#000000;stop-opacity:9.570000e-002"/>
	</linearGradient>
	<path class="st10" d="M-598.1,304.1c7.8-21.4,31.4-32.5,52.8-24.7s32.5,31.4,24.7,52.8s-31.4,32.5-52.8,24.7
		S-605.8,325.5-598.1,304.1L-598.1,304.1z"/>
	
		<linearGradient id="SVGID_12_" gradientUnits="userSpaceOnUse" x1="-15.6144" y1="306.7112" x2="-9.0444" y2="313.9012" gradientTransform="matrix(0.9704 0.3509 -0.3509 0.9704 -448.1445 48.2911)">
		<stop  offset="0" style="stop-color:#000000"/>
		<stop  offset="1" style="stop-color:#000000;stop-opacity:0"/>
	</linearGradient>
	<path class="st11" d="M-563.1,347.2c-1.2,3.2-4.7,4.9-7.9,3.7c-3.2-1.2-4.9-4.7-3.7-7.9c1.2-3.2,4.7-4.9,7.9-3.7
		C-563.7,340.4-562,344-563.1,347.2z"/>
	
		<linearGradient id="SVGID_13_" gradientUnits="userSpaceOnUse" x1="-2566.5066" y1="-1322.8593" x2="-2574.3367" y2="-1334.0892" gradientTransform="matrix(-0.2972 0.2505 -0.2505 -0.2972 -1662.3619 595.035)">
		<stop  offset="0" style="stop-color:#000000"/>
		<stop  offset="1" style="stop-color:#000000;stop-opacity:0"/>
	</linearGradient>
	<path class="st12" d="M-573.1,348.6c-1.9-2.3-1.7-5.7,0.6-7.6c2.3-1.9,5.7-1.7,7.6,0.6s1.7,5.7-0.6,7.6
		C-567.8,351.3-571.2,350.9-573.1,348.6z"/>
	
		<linearGradient id="SVGID_14_" gradientUnits="userSpaceOnUse" x1="-2579.2957" y1="-1385.3938" x2="-2592.6755" y2="-1401.0038" gradientTransform="matrix(-0.2857 0.2407 -0.2407 -0.2857 -1642.8909 569.6954)">
		<stop  offset="0" style="stop-color:#BFBFBF"/>
		<stop  offset="1" style="stop-color:#F4F4F4"/>
	</linearGradient>
	<path class="st13" d="M-573,348.6c-1.9-2.2-1.6-5.5,0.6-7.3c2.2-1.9,5.5-1.6,7.3,0.6c1.9,2.2,1.6,5.5-0.6,7.3
		C-567.8,351.1-571.1,350.7-573,348.6z"/>
	<g transform="matrix(.39958 -.69208 .69208 .39958 -1040.9 755.46)">
		
			<radialGradient id="SVGID_15_" cx="3792.7854" cy="4509.9604" r="5.869" gradientTransform="matrix(0.6006 0.2172 -0.188 0.5201 -689.9755 -2914.542)" gradientUnits="userSpaceOnUse">
			<stop  offset="0" style="stop-color:#F2F2F2"/>
			<stop  offset="1" style="stop-color:#141414"/>
		</radialGradient>
		<path class="st14" d="M740.9,260.4c-1.1-1.4-2.5-2.9-5.5-2c1.3-2.4,0.4-4.1-1-5.7c2.1-0.1,3.8-1,4.4-3.7c1.4,2.1,3.2,2.5,5.5,2
			c-1,2-0.9,3.8,1,5.7C743.1,256.7,741.6,257.8,740.9,260.4z"/>
		
			<radialGradient id="SVGID_16_" cx="4047.9177" cy="5200.7661" r="5.2603" gradientTransform="matrix(0.3611 0.1305 -0.1305 0.3611 -42.9032 -2151.8801)" gradientUnits="userSpaceOnUse">
			<stop  offset="0" style="stop-color:#F0F0F0"/>
			<stop  offset="1" style="stop-color:#AFAFAF"/>
		</radialGradient>
		<path class="st15" d="M742.9,255.7c-0.6,1.6-2.4,2.5-4.1,1.9c-1.6-0.6-2.5-2.4-1.9-4.1c0.6-1.7,2.4-2.5,4.1-1.9
			C742.6,252.3,743.5,254.1,742.9,255.7z"/>
	</g>
	
		<linearGradient id="SVGID_17_" gradientUnits="userSpaceOnUse" x1="-15.6328" y1="306.7281" x2="-9.0628" y2="313.9181" gradientTransform="matrix(0.9704 0.3509 -0.3509 0.9704 -433.3088 49.5505)">
		<stop  offset="0" style="stop-color:#000000"/>
		<stop  offset="1" style="stop-color:#000000;stop-opacity:0"/>
	</linearGradient>
	<path class="st16" d="M-548.3,348.5c-1.2,3.2-4.7,4.9-7.9,3.7c-3.2-1.2-4.9-4.7-3.7-7.9s4.7-4.9,7.9-3.7
		C-548.8,341.8-547.2,345.3-548.3,348.5z"/>
	
		<linearGradient id="SVGID_18_" gradientUnits="userSpaceOnUse" x1="-2566.427" y1="-1322.9147" x2="-2574.2571" y2="-1334.1447" gradientTransform="matrix(-0.2972 0.2505 -0.2505 -0.2972 -1647.5297 596.304)">
		<stop  offset="0" style="stop-color:#000000"/>
		<stop  offset="1" style="stop-color:#000000;stop-opacity:0"/>
	</linearGradient>
	<path class="st17" d="M-558.3,349.9c-1.9-2.3-1.7-5.7,0.6-7.6c2.3-1.9,5.7-1.7,7.6,0.6s1.7,5.7-0.6,7.6
		C-552.9,352.5-556.3,352.2-558.3,349.9z"/>
	
		<linearGradient id="SVGID_19_" gradientUnits="userSpaceOnUse" x1="-2579.3472" y1="-1385.3495" x2="-2592.7273" y2="-1400.9595" gradientTransform="matrix(-0.2857 0.2407 -0.2407 -0.2857 -1628.0586 570.9644)">
		<stop  offset="0" style="stop-color:#BFBFBF"/>
		<stop  offset="1" style="stop-color:#F4F4F4"/>
	</linearGradient>
	<path class="st18" d="M-558.1,349.8c-1.9-2.2-1.6-5.5,0.6-7.3c2.2-1.9,5.5-1.6,7.3,0.6c1.9,2.2,1.6,5.5-0.6,7.3
		C-553,352.3-556.3,352-558.1,349.8z"/>
	<g transform="matrix(.39958 -.69208 .69208 .39958 -1026.5 751.61)">
		
			<radialGradient id="SVGID_20_" cx="3757.0554" cy="4490.7358" r="5.869" gradientTransform="matrix(0.6006 0.2172 -0.188 0.5201 -677.4037 -2893.0886)" gradientUnits="userSpaceOnUse">
			<stop  offset="0" style="stop-color:#F2F2F2"/>
			<stop  offset="1" style="stop-color:#141414"/>
		</radialGradient>
		<path class="st19" d="M735.6,264.1c-1.1-1.4-2.5-2.9-5.5-2c1.3-2.4,0.4-4.1-1-5.7c2.1-0.1,3.8-1,4.4-3.7c1.4,2.1,3.2,2.5,5.5,2
			c-1,2-0.9,3.8,1,5.7C737.8,260.4,736.4,261.5,735.6,264.1z"/>
		
			<radialGradient id="SVGID_21_" cx="4012.1877" cy="5181.5415" r="5.2603" gradientTransform="matrix(0.3611 0.1305 -0.1305 0.3611 -37.7825 -2136.5774)" gradientUnits="userSpaceOnUse">
			<stop  offset="0" style="stop-color:#F0F0F0"/>
			<stop  offset="1" style="stop-color:#AFAFAF"/>
		</radialGradient>
		<path class="st20" d="M737.6,259.4c-0.6,1.6-2.4,2.5-4.1,1.9c-1.6-0.6-2.5-2.4-1.9-4.1c0.6-1.7,2.4-2.5,4.1-1.9
			C737.3,256,738.2,257.8,737.6,259.4z"/>
	</g>
	
		<linearGradient id="SVGID_22_" gradientUnits="userSpaceOnUse" x1="-15.6539" y1="306.7473" x2="-9.0839" y2="313.9373" gradientTransform="matrix(0.9704 0.3509 -0.3509 0.9704 -460.3552 39.7715)">
		<stop  offset="0" style="stop-color:#000000"/>
		<stop  offset="1" style="stop-color:#000000;stop-opacity:0"/>
	</linearGradient>
	<path class="st21" d="M-575.4,338.7c-1.2,3.2-4.7,4.9-7.9,3.7c-3.2-1.2-4.9-4.7-3.7-7.9c1.2-3.2,4.7-4.9,7.9-3.7
		C-575.9,332-574.2,335.5-575.4,338.7z"/>
	
		<linearGradient id="SVGID_23_" gradientUnits="userSpaceOnUse" x1="-2566.4316" y1="-1322.9114" x2="-2574.2617" y2="-1334.1414" gradientTransform="matrix(-0.2972 0.2505 -0.2505 -0.2972 -1674.576 586.525)">
		<stop  offset="0" style="stop-color:#000000"/>
		<stop  offset="1" style="stop-color:#000000;stop-opacity:0"/>
	</linearGradient>
	<path class="st22" d="M-585.4,340.1c-1.9-2.3-1.7-5.7,0.6-7.6s5.7-1.7,7.6,0.6c1.9,2.3,1.7,5.7-0.6,7.6
		C-579.9,342.7-583.4,342.4-585.4,340.1z"/>
	
		<linearGradient id="SVGID_24_" gradientUnits="userSpaceOnUse" x1="-2579.3623" y1="-1385.3367" x2="-2592.7422" y2="-1400.9467" gradientTransform="matrix(-0.2857 0.2407 -0.2407 -0.2857 -1655.105 561.1853)">
		<stop  offset="0" style="stop-color:#BFBFBF"/>
		<stop  offset="1" style="stop-color:#F4F4F4"/>
	</linearGradient>
	<path class="st23" d="M-585.2,340c-1.9-2.2-1.6-5.5,0.6-7.3c2.2-1.9,5.5-1.6,7.3,0.6c1.9,2.2,1.6,5.5-0.6,7.3
		C-580,342.5-583.4,342.2-585.2,340z"/>
	<g transform="matrix(.39958 -.69208 .69208 .39958 -1055.3 751.61)">
		
			<radialGradient id="SVGID_25_" cx="3820.1709" cy="4521.9453" r="5.869" gradientTransform="matrix(0.6006 0.2172 -0.188 0.5201 -697.756 -2927.2935)" gradientUnits="userSpaceOnUse">
			<stop  offset="0" style="stop-color:#F2F2F2"/>
			<stop  offset="1" style="stop-color:#141414"/>
		</radialGradient>
		<path class="st24" d="M747.3,259.9c-1.1-1.4-2.5-2.9-5.5-2c1.3-2.4,0.4-4.1-1-5.7c2.1-0.1,3.8-1,4.4-3.7c1.4,2.1,3.2,2.5,5.5,2
			c-1,2-0.9,3.8,1,5.7C749.5,256.1,748,257.2,747.3,259.9z"/>
		
			<radialGradient id="SVGID_26_" cx="4075.3035" cy="5212.752" r="5.2603" gradientTransform="matrix(0.3611 0.1305 -0.1305 0.3611 -44.8149 -2160.3555)" gradientUnits="userSpaceOnUse">
			<stop  offset="0" style="stop-color:#F0F0F0"/>
			<stop  offset="1" style="stop-color:#AFAFAF"/>
		</radialGradient>
		<path class="st25" d="M749.3,255.2c-0.6,1.6-2.4,2.5-4.1,1.9c-1.6-0.6-2.5-2.4-1.9-4.1s2.4-2.5,4.1-1.9
			C749,251.7,749.9,253.6,749.3,255.2z"/>
	</g>
	
		<linearGradient id="SVGID_27_" gradientUnits="userSpaceOnUse" x1="-15.647" y1="306.7411" x2="-9.077" y2="313.9311" gradientTransform="matrix(0.9704 0.3509 -0.3509 0.9704 -419.8321 43.2368)">
		<stop  offset="0" style="stop-color:#000000"/>
		<stop  offset="1" style="stop-color:#000000;stop-opacity:0"/>
	</linearGradient>
	<path class="st26" d="M-534.9,342.2c-1.2,3.2-4.7,4.9-7.9,3.7c-3.2-1.2-4.9-4.7-3.7-7.9s4.7-4.9,7.9-3.7
		C-535.4,335.5-533.7,338.9-534.9,342.2z"/>
	
		<linearGradient id="SVGID_28_" gradientUnits="userSpaceOnUse" x1="-2566.3674" y1="-1322.9563" x2="-2574.1975" y2="-1334.1863" gradientTransform="matrix(-0.2972 0.2505 -0.2505 -0.2972 -1634.0559 589.9785)">
		<stop  offset="0" style="stop-color:#000000"/>
		<stop  offset="1" style="stop-color:#000000;stop-opacity:0"/>
	</linearGradient>
	<path class="st27" d="M-544.8,343.6c-1.9-2.3-1.7-5.7,0.6-7.6s5.7-1.7,7.6,0.6c1.9,2.3,1.7,5.7-0.6,7.6
		C-539.5,346.2-542.9,345.9-544.8,343.6z"/>
	
		<linearGradient id="SVGID_29_" gradientUnits="userSpaceOnUse" x1="-2579.3391" y1="-1385.3563" x2="-2592.7192" y2="-1400.9663" gradientTransform="matrix(-0.2857 0.2407 -0.2407 -0.2857 -1614.5756 564.6422)">
		<stop  offset="0" style="stop-color:#BFBFBF"/>
		<stop  offset="1" style="stop-color:#F4F4F4"/>
	</linearGradient>
	<path class="st28" d="M-544.7,343.5c-1.9-2.2-1.6-5.5,0.6-7.3c2.2-1.9,5.5-1.6,7.3,0.6c1.9,2.2,1.6,5.5-0.6,7.3
		C-539.5,346-542.8,345.6-544.7,343.5z"/>
	<g transform="matrix(.39958 -.69208 .69208 .39958 -1016 741.08)">
		
			<radialGradient id="SVGID_30_" cx="3722.6335" cy="4469.457" r="5.869" gradientTransform="matrix(0.6006 0.2172 -0.188 0.5201 -663.4315 -2868.7183)" gradientUnits="userSpaceOnUse">
			<stop  offset="0" style="stop-color:#F2F2F2"/>
			<stop  offset="1" style="stop-color:#141414"/>
		</radialGradient>
		<path class="st29" d="M732.9,270c-1.1-1.4-2.5-2.9-5.5-2c1.3-2.4,0.4-4.1-1-5.7c2.1-0.1,3.8-1,4.4-3.7c1.4,2.1,3.2,2.5,5.5,2
			c-1,2-0.9,3.8,1,5.7C735.1,266.2,733.7,267.3,732.9,270z"/>
		
			<radialGradient id="SVGID_31_" cx="3977.7659" cy="5160.2632" r="5.2603" gradientTransform="matrix(0.3611 0.1305 -0.1305 0.3611 -30.8303 -2118.5713)" gradientUnits="userSpaceOnUse">
			<stop  offset="0" style="stop-color:#F0F0F0"/>
			<stop  offset="1" style="stop-color:#AFAFAF"/>
		</radialGradient>
		<path class="st30" d="M734.9,265.3c-0.6,1.6-2.4,2.5-4.1,1.9c-1.6-0.6-2.5-2.4-1.9-4.1c0.6-1.7,2.4-2.5,4.1-1.9
			C734.6,261.8,735.5,263.7,734.9,265.3z"/>
	</g>
	
		<linearGradient id="SVGID_32_" gradientUnits="userSpaceOnUse" x1="-15.6381" y1="306.7329" x2="-9.0681" y2="313.9229" gradientTransform="matrix(0.9704 0.3509 -0.3509 0.9704 -466.6808 26.2979)">
		<stop  offset="0" style="stop-color:#000000"/>
		<stop  offset="1" style="stop-color:#000000;stop-opacity:0"/>
	</linearGradient>
	<path class="st31" d="M-581.7,325.3c-1.2,3.2-4.7,4.9-7.9,3.7s-4.9-4.7-3.7-7.9c1.2-3.2,4.7-4.9,7.9-3.7
		C-582.2,318.5-580.5,322-581.7,325.3z"/>
	
		<linearGradient id="SVGID_33_" gradientUnits="userSpaceOnUse" x1="-2566.3655" y1="-1322.9575" x2="-2574.1956" y2="-1334.1875" gradientTransform="matrix(-0.2972 0.2505 -0.2505 -0.2972 -1680.8982 573.0419)">
		<stop  offset="0" style="stop-color:#000000"/>
		<stop  offset="1" style="stop-color:#000000;stop-opacity:0"/>
	</linearGradient>
	<path class="st32" d="M-591.7,326.7c-1.9-2.3-1.7-5.7,0.6-7.6c2.3-1.9,5.7-1.7,7.6,0.6c1.9,2.3,1.7,5.7-0.6,7.6
		C-586.3,329.3-589.7,329-591.7,326.7z"/>
	
		<linearGradient id="SVGID_34_" gradientUnits="userSpaceOnUse" x1="-2579.3318" y1="-1385.3628" x2="-2592.7117" y2="-1400.9728" gradientTransform="matrix(-0.2857 0.2407 -0.2407 -0.2857 -1661.4271 547.7023)">
		<stop  offset="0" style="stop-color:#BFBFBF"/>
		<stop  offset="1" style="stop-color:#F4F4F4"/>
	</linearGradient>
	<path class="st33" d="M-591.5,326.5c-1.9-2.2-1.6-5.5,0.6-7.3c2.2-1.9,5.5-1.6,7.3,0.6c1.9,2.2,1.6,5.5-0.6,7.3
		C-586.4,329-589.6,328.7-591.5,326.5z"/>
	<g transform="matrix(.39958 -.69208 .69208 .39958 -1065.8 741.08)">
		
			<radialGradient id="SVGID_35_" cx="3831.7708" cy="4523.4248" r="5.869" gradientTransform="matrix(0.6006 0.2172 -0.188 0.5201 -698.6241 -2927.864)" gradientUnits="userSpaceOnUse">
			<stop  offset="0" style="stop-color:#F2F2F2"/>
			<stop  offset="1" style="stop-color:#141414"/>
		</radialGradient>
		<path class="st34" d="M753.1,262.6c-1.1-1.4-2.5-2.9-5.5-2c1.3-2.4,0.4-4.1-1-5.7c2.1-0.1,3.8-1,4.4-3.7c1.4,2.1,3.2,2.5,5.5,2
			c-1,2-0.9,3.8,1,5.7C755.3,258.8,753.9,260,753.1,262.6z"/>
		
			<radialGradient id="SVGID_36_" cx="4086.9028" cy="5214.2305" r="5.2603" gradientTransform="matrix(0.3611 0.1305 -0.1305 0.3611 -42.9905 -2159.6877)" gradientUnits="userSpaceOnUse">
			<stop  offset="0" style="stop-color:#F0F0F0"/>
			<stop  offset="1" style="stop-color:#AFAFAF"/>
		</radialGradient>
		<path class="st35" d="M755.2,257.9c-0.6,1.6-2.4,2.5-4.1,1.9c-1.6-0.6-2.5-2.4-1.9-4.1c0.6-1.7,2.4-2.5,4.1-1.9
			C754.8,254.5,755.7,256.3,755.2,257.9z"/>
	</g>
	
		<linearGradient id="SVGID_37_" gradientUnits="userSpaceOnUse" x1="-15.6222" y1="306.7184" x2="-9.0522" y2="313.9084" gradientTransform="matrix(0.9704 0.3509 -0.3509 0.9704 -411.3191 31.0237)">
		<stop  offset="0" style="stop-color:#000000"/>
		<stop  offset="1" style="stop-color:#000000;stop-opacity:0"/>
	</linearGradient>
	<path class="st36" d="M-526.3,330c-1.2,3.2-4.7,4.9-7.9,3.7c-3.2-1.2-4.9-4.7-3.7-7.9s4.7-4.9,7.9-3.7
		C-526.8,323.2-525.1,326.8-526.3,330z"/>
	
		<linearGradient id="SVGID_38_" gradientUnits="userSpaceOnUse" x1="-2566.4023" y1="-1322.9319" x2="-2574.2324" y2="-1334.1619" gradientTransform="matrix(-0.2972 0.2505 -0.2505 -0.2972 -1625.5365 577.7677)">
		<stop  offset="0" style="stop-color:#000000"/>
		<stop  offset="1" style="stop-color:#000000;stop-opacity:0"/>
	</linearGradient>
	<path class="st37" d="M-536.3,331.4c-1.9-2.3-1.7-5.7,0.6-7.6s5.7-1.7,7.6,0.6s1.7,5.7-0.6,7.6S-534.3,333.7-536.3,331.4z"/>
	
		<linearGradient id="SVGID_39_" gradientUnits="userSpaceOnUse" x1="-2579.3198" y1="-1385.373" x2="-2592.6997" y2="-1400.983" gradientTransform="matrix(-0.2857 0.2407 -0.2407 -0.2857 -1606.0654 552.428)">
		<stop  offset="0" style="stop-color:#BFBFBF"/>
		<stop  offset="1" style="stop-color:#F4F4F4"/>
	</linearGradient>
	<path class="st38" d="M-536.1,331.3c-1.9-2.2-1.6-5.5,0.6-7.3c2.2-1.9,5.5-1.6,7.3,0.6c1.9,2.2,1.6,5.5-0.6,7.3
		C-531,333.8-534.3,333.5-536.1,331.3z"/>
	<g transform="matrix(.39958 -.69208 .69208 .39958 -1012.1 726.7)">
		
			<radialGradient id="SVGID_40_" cx="3698.5034" cy="4451.7114" r="5.869" gradientTransform="matrix(0.6006 0.2172 -0.188 0.5201 -651.7278 -2847.8357)" gradientUnits="userSpaceOnUse">
			<stop  offset="0" style="stop-color:#F2F2F2"/>
			<stop  offset="1" style="stop-color:#141414"/>
		</radialGradient>
		<path class="st39" d="M733.5,276.4c-1.1-1.4-2.5-2.9-5.5-2c1.3-2.4,0.4-4.1-1-5.7c2.1-0.1,3.8-1,4.4-3.7c1.4,2.1,3.2,2.5,5.5,2
			c-1,2-0.9,3.8,1,5.7C735.7,272.6,734.2,273.8,733.5,276.4z"/>
		
			<radialGradient id="SVGID_41_" cx="3953.6357" cy="5142.5176" r="5.2603" gradientTransform="matrix(0.3611 0.1305 -0.1305 0.3611 -23.8851 -2102.6008)" gradientUnits="userSpaceOnUse">
			<stop  offset="0" style="stop-color:#F0F0F0"/>
			<stop  offset="1" style="stop-color:#AFAFAF"/>
		</radialGradient>
		<path class="st40" d="M735.5,271.7c-0.6,1.6-2.4,2.5-4.1,1.9c-1.6-0.6-2.5-2.4-1.9-4.1c0.6-1.7,2.4-2.5,4.1-1.9
			C735.1,268.2,736.1,270.1,735.5,271.7z"/>
	</g>
	
		<linearGradient id="SVGID_42_" gradientUnits="userSpaceOnUse" x1="-15.6116" y1="306.7087" x2="-9.0416" y2="313.8987" gradientTransform="matrix(0.9704 0.3509 -0.3509 0.9704 -465.4119 11.4656)">
		<stop  offset="0" style="stop-color:#000000"/>
		<stop  offset="1" style="stop-color:#000000;stop-opacity:0"/>
	</linearGradient>
	<path class="st41" d="M-580.4,310.5c-1.2,3.2-4.7,4.9-7.9,3.7c-3.2-1.2-4.9-4.7-3.7-7.9c1.2-3.2,4.7-4.9,7.9-3.7
		C-580.9,303.7-579.2,307.3-580.4,310.5z"/>
	
		<linearGradient id="SVGID_43_" gradientUnits="userSpaceOnUse" x1="-2566.4143" y1="-1322.9236" x2="-2574.2444" y2="-1334.1536" gradientTransform="matrix(-0.2972 0.2505 -0.2505 -0.2972 -1679.6293 558.2097)">
		<stop  offset="0" style="stop-color:#000000"/>
		<stop  offset="1" style="stop-color:#000000;stop-opacity:0"/>
	</linearGradient>
	<path class="st42" d="M-590.4,311.8c-1.9-2.3-1.7-5.7,0.6-7.6c2.3-1.9,5.7-1.7,7.6,0.6c1.9,2.3,1.7,5.7-0.6,7.6
		C-585,314.4-588.5,314.1-590.4,311.8z"/>
	
		<linearGradient id="SVGID_44_" gradientUnits="userSpaceOnUse" x1="-2579.3496" y1="-1385.3474" x2="-2592.7297" y2="-1400.9574" gradientTransform="matrix(-0.2857 0.2407 -0.2407 -0.2857 -1660.1582 532.8699)">
		<stop  offset="0" style="stop-color:#BFBFBF"/>
		<stop  offset="1" style="stop-color:#F4F4F4"/>
	</linearGradient>
	<path class="st43" d="M-590.3,311.7c-1.9-2.2-1.6-5.5,0.6-7.3c2.2-1.9,5.5-1.6,7.3,0.6c1.9,2.2,1.6,5.5-0.6,7.3
		C-585.1,314.2-588.4,313.9-590.3,311.7z"/>
	<g transform="matrix(.39958 -.69208 .69208 .39958 -1069.7 726.7)">
		
			<radialGradient id="SVGID_45_" cx="3824.7339" cy="4514.1313" r="5.869" gradientTransform="matrix(0.6006 0.2172 -0.188 0.5201 -692.4324 -2916.2451)" gradientUnits="userSpaceOnUse">
			<stop  offset="0" style="stop-color:#F2F2F2"/>
			<stop  offset="1" style="stop-color:#141414"/>
		</radialGradient>
		<path class="st44" d="M756.8,267.8c-1.1-1.4-2.5-2.9-5.5-2c1.3-2.4,0.4-4.1-1-5.7c2.1-0.1,3.8-1,4.4-3.7c1.4,2.1,3.2,2.5,5.5,2
			c-1,2-0.9,3.8,1,5.7C759.1,264.1,757.6,265.2,756.8,267.8z"/>
		
			<radialGradient id="SVGID_46_" cx="4079.8662" cy="5204.9375" r="5.2603" gradientTransform="matrix(0.3611 0.1305 -0.1305 0.3611 -37.9498 -2150.1572)" gradientUnits="userSpaceOnUse">
			<stop  offset="0" style="stop-color:#F0F0F0"/>
			<stop  offset="1" style="stop-color:#AFAFAF"/>
		</radialGradient>
		<path class="st45" d="M758.9,263.1c-0.6,1.6-2.4,2.5-4.1,1.9c-1.6-0.6-2.5-2.4-1.9-4.1c0.6-1.7,2.4-2.5,4.1-1.9
			C758.5,259.7,759.4,261.5,758.9,263.1z"/>
	</g>
	
		<linearGradient id="SVGID_47_" gradientUnits="userSpaceOnUse" x1="-15.6303" y1="306.7258" x2="-9.0603" y2="313.9158" gradientTransform="matrix(0.9704 0.3509 -0.3509 0.9704 -456.9004 -0.7523)">
		<stop  offset="0" style="stop-color:#000000"/>
		<stop  offset="1" style="stop-color:#000000;stop-opacity:0"/>
	</linearGradient>
	<path class="st46" d="M-571.9,298.2c-1.2,3.2-4.7,4.9-7.9,3.7c-3.2-1.2-4.9-4.7-3.7-7.9s4.7-4.9,7.9-3.7S-570.8,295-571.9,298.2z"
		/>
	
		<linearGradient id="SVGID_48_" gradientUnits="userSpaceOnUse" x1="-2566.4497" y1="-1322.8988" x2="-2574.2798" y2="-1334.1288" gradientTransform="matrix(-0.2972 0.2505 -0.2505 -0.2972 -1671.1191 545.9955)">
		<stop  offset="0" style="stop-color:#000000"/>
		<stop  offset="1" style="stop-color:#000000;stop-opacity:0"/>
	</linearGradient>
	<path class="st47" d="M-581.9,299.6c-1.9-2.3-1.7-5.7,0.6-7.6c2.3-1.9,5.7-1.7,7.6,0.6s1.7,5.7-0.6,7.6
		C-576.5,302.2-579.9,301.9-581.9,299.6z"/>
	
		<linearGradient id="SVGID_49_" gradientUnits="userSpaceOnUse" x1="-2579.3708" y1="-1385.3292" x2="-2592.751" y2="-1400.9392" gradientTransform="matrix(-0.2857 0.2407 -0.2407 -0.2857 -1651.6481 520.6558)">
		<stop  offset="0" style="stop-color:#BFBFBF"/>
		<stop  offset="1" style="stop-color:#F4F4F4"/>
	</linearGradient>
	<path class="st48" d="M-581.7,299.5c-1.9-2.2-1.6-5.5,0.6-7.3c2.2-1.9,5.5-1.6,7.3,0.6c1.9,2.2,1.6,5.5-0.6,7.3
		C-576.6,302-579.9,301.7-581.7,299.5z"/>
	<g transform="matrix(.39958 -.69208 .69208 .39958 -1065.8 712.32)">
		
			<radialGradient id="SVGID_50_" cx="3800.604" cy="4496.3857" r="5.869" gradientTransform="matrix(0.6006 0.2172 -0.188 0.5201 -680.7288 -2895.3625)" gradientUnits="userSpaceOnUse">
			<stop  offset="0" style="stop-color:#F2F2F2"/>
			<stop  offset="1" style="stop-color:#141414"/>
		</radialGradient>
		<path class="st49" d="M757.4,274.2c-1.1-1.4-2.5-2.9-5.5-2c1.3-2.4,0.4-4.1-1-5.7c2.1-0.1,3.8-1,4.4-3.7c1.4,2.1,3.2,2.5,5.5,2
			c-1,2-0.9,3.8,1,5.7C759.6,270.5,758.1,271.6,757.4,274.2z"/>
		
			<radialGradient id="SVGID_51_" cx="4055.7363" cy="5187.1914" r="5.2603" gradientTransform="matrix(0.3611 0.1305 -0.1305 0.3611 -31.0048 -2134.1865)" gradientUnits="userSpaceOnUse">
			<stop  offset="0" style="stop-color:#F0F0F0"/>
			<stop  offset="1" style="stop-color:#AFAFAF"/>
		</radialGradient>
		<path class="st50" d="M759.4,269.5c-0.6,1.6-2.4,2.5-4.1,1.9c-1.6-0.6-2.5-2.4-1.9-4.1c0.6-1.7,2.4-2.5,4.1-1.9
			C759.1,266.1,760,267.9,759.4,269.5z"/>
	</g>
	
		<linearGradient id="SVGID_52_" gradientUnits="userSpaceOnUse" x1="-15.6496" y1="306.7434" x2="-9.0796" y2="313.9334" gradientTransform="matrix(0.9704 0.3509 -0.3509 0.9704 -443.4183 -7.0716)">
		<stop  offset="0" style="stop-color:#000000"/>
		<stop  offset="1" style="stop-color:#000000;stop-opacity:0"/>
	</linearGradient>
	<path class="st51" d="M-558.5,291.9c-1.2,3.2-4.7,4.9-7.9,3.7c-3.2-1.2-4.9-4.7-3.7-7.9c1.2-3.2,4.7-4.9,7.9-3.7
		C-559,285.1-557.3,288.6-558.5,291.9z"/>
	
		<linearGradient id="SVGID_53_" gradientUnits="userSpaceOnUse" x1="-2566.4106" y1="-1322.926" x2="-2574.2407" y2="-1334.156" gradientTransform="matrix(-0.2972 0.2505 -0.2505 -0.2972 -1657.6395 539.6828)">
		<stop  offset="0" style="stop-color:#000000"/>
		<stop  offset="1" style="stop-color:#000000;stop-opacity:0"/>
	</linearGradient>
	<path class="st52" d="M-568.4,293.3c-1.9-2.3-1.7-5.7,0.6-7.6s5.7-1.7,7.6,0.6s1.7,5.7-0.6,7.6C-563,295.9-566.5,295.6-568.4,293.3
		z"/>
	
		<linearGradient id="SVGID_54_" gradientUnits="userSpaceOnUse" x1="-2579.363" y1="-1385.3359" x2="-2592.7429" y2="-1400.9459" gradientTransform="matrix(-0.2857 0.2407 -0.2407 -0.2857 -1638.165 514.3337)">
		<stop  offset="0" style="stop-color:#BFBFBF"/>
		<stop  offset="1" style="stop-color:#F4F4F4"/>
	</linearGradient>
	<path class="st53" d="M-568.3,293.2c-1.9-2.2-1.6-5.5,0.6-7.3c2.2-1.9,5.5-1.6,7.3,0.6c1.9,2.2,1.6,5.5-0.6,7.3
		C-563.1,295.7-566.4,295.3-568.3,293.2z"/>
	<g transform="matrix(.39958 -.69208 .69208 .39958 -1055.3 701.8)">
		
			<radialGradient id="SVGID_55_" cx="3766.1929" cy="4475.1162" r="5.869" gradientTransform="matrix(0.6006 0.2172 -0.188 0.5201 -666.7628 -2871.0034)" gradientUnits="userSpaceOnUse">
			<stop  offset="0" style="stop-color:#F2F2F2"/>
			<stop  offset="1" style="stop-color:#141414"/>
		</radialGradient>
		<path class="st54" d="M754.7,280.1c-1.1-1.4-2.5-2.9-5.5-2c1.3-2.4,0.4-4.1-1-5.7c2.1-0.1,3.8-1,4.4-3.7c1.4,2.1,3.2,2.5,5.5,2
			c-1,2-0.9,3.8,1,5.7C756.9,276.3,755.4,277.5,754.7,280.1z"/>
		
			<radialGradient id="SVGID_56_" cx="4021.3252" cy="5165.9229" r="5.2603" gradientTransform="matrix(0.3611 0.1305 -0.1305 0.3611 -24.0566 -2116.1895)" gradientUnits="userSpaceOnUse">
			<stop  offset="0" style="stop-color:#F0F0F0"/>
			<stop  offset="1" style="stop-color:#AFAFAF"/>
		</radialGradient>
		<path class="st55" d="M756.7,275.4c-0.6,1.6-2.4,2.5-4.1,1.9c-1.6-0.6-2.5-2.4-1.9-4.1c0.6-1.7,2.4-2.5,4.1-1.9
			C756.4,271.9,757.3,273.8,756.7,275.4z"/>
	</g>
	
		<linearGradient id="SVGID_57_" gradientUnits="userSpaceOnUse" x1="-15.6285" y1="306.7242" x2="-9.0585" y2="313.9142" gradientTransform="matrix(0.9704 0.3509 -0.3509 0.9704 -416.3719 2.7074)">
		<stop  offset="0" style="stop-color:#000000"/>
		<stop  offset="1" style="stop-color:#000000;stop-opacity:0"/>
	</linearGradient>
	<path class="st56" d="M-531.4,301.7c-1.2,3.2-4.7,4.9-7.9,3.7c-3.2-1.2-4.9-4.7-3.7-7.9s4.7-4.9,7.9-3.7
		C-531.9,294.9-530.2,298.4-531.4,301.7z"/>
	
		<linearGradient id="SVGID_58_" gradientUnits="userSpaceOnUse" x1="-2566.406" y1="-1322.9293" x2="-2574.2361" y2="-1334.1594" gradientTransform="matrix(-0.2972 0.2505 -0.2505 -0.2972 -1630.5931 549.4619)">
		<stop  offset="0" style="stop-color:#000000"/>
		<stop  offset="1" style="stop-color:#000000;stop-opacity:0"/>
	</linearGradient>
	<path class="st57" d="M-541.3,303.1c-1.9-2.3-1.7-5.7,0.6-7.6c2.3-1.9,5.7-1.7,7.6,0.6s1.7,5.7-0.6,7.6
		C-536,305.7-539.4,305.4-541.3,303.1z"/>
	
		<linearGradient id="SVGID_59_" gradientUnits="userSpaceOnUse" x1="-2579.3479" y1="-1385.3488" x2="-2592.728" y2="-1400.9587" gradientTransform="matrix(-0.2857 0.2407 -0.2407 -0.2857 -1611.1187 524.1127)">
		<stop  offset="0" style="stop-color:#BFBFBF"/>
		<stop  offset="1" style="stop-color:#F4F4F4"/>
	</linearGradient>
	<path class="st58" d="M-541.2,302.9c-1.9-2.2-1.6-5.5,0.6-7.3c2.2-1.9,5.5-1.6,7.3,0.6c1.9,2.2,1.6,5.5-0.6,7.3
		C-536,305.4-539.3,305.1-541.2,302.9z"/>
	<g transform="matrix(.39958 -.69208 .69208 .39958 -1026.5 701.8)">
		
			<radialGradient id="SVGID_60_" cx="3703.0774" cy="4443.9067" r="5.869" gradientTransform="matrix(0.6006 0.2172 -0.188 0.5201 -646.4105 -2836.7988)" gradientUnits="userSpaceOnUse">
			<stop  offset="0" style="stop-color:#F2F2F2"/>
			<stop  offset="1" style="stop-color:#141414"/>
		</radialGradient>
		<path class="st59" d="M743,284.3c-1.1-1.4-2.5-2.9-5.5-2c1.3-2.4,0.4-4.1-1-5.7c2.1-0.1,3.8-1,4.4-3.7c1.4,2.1,3.2,2.5,5.5,2
			c-1,2-0.9,3.8,1,5.7C745.2,280.6,743.7,281.7,743,284.3z"/>
		
			<radialGradient id="SVGID_61_" cx="3958.2097" cy="5134.7124" r="5.2603" gradientTransform="matrix(0.3611 0.1305 -0.1305 0.3611 -17.0243 -2092.4111)" gradientUnits="userSpaceOnUse">
			<stop  offset="0" style="stop-color:#F0F0F0"/>
			<stop  offset="1" style="stop-color:#AFAFAF"/>
		</radialGradient>
		<path class="st60" d="M745,279.6c-0.6,1.6-2.4,2.5-4.1,1.9c-1.6-0.6-2.5-2.4-1.9-4.1c0.6-1.7,2.4-2.5,4.1-1.9
			C744.7,276.2,745.6,278,745,279.6z"/>
	</g>
	
		<linearGradient id="SVGID_62_" gradientUnits="userSpaceOnUse" x1="-15.626" y1="306.7218" x2="-9.056" y2="313.9118" gradientTransform="matrix(0.9704 0.3509 -0.3509 0.9704 -428.585 -5.8055)">
		<stop  offset="0" style="stop-color:#000000"/>
		<stop  offset="1" style="stop-color:#000000;stop-opacity:0"/>
	</linearGradient>
	<path class="st61" d="M-543.6,293.1c-1.2,3.2-4.7,4.9-7.9,3.7c-3.2-1.2-4.9-4.7-3.7-7.9s4.7-4.9,7.9-3.7
		C-544.1,286.4-542.4,289.9-543.6,293.1z"/>
	
		<linearGradient id="SVGID_63_" gradientUnits="userSpaceOnUse" x1="-2566.5146" y1="-1322.8536" x2="-2574.3447" y2="-1334.0836" gradientTransform="matrix(-0.2972 0.2505 -0.2505 -0.2972 -1642.8073 540.9517)">
		<stop  offset="0" style="stop-color:#000000"/>
		<stop  offset="1" style="stop-color:#000000;stop-opacity:0"/>
	</linearGradient>
	<path class="st62" d="M-553.6,294.5c-1.9-2.3-1.7-5.7,0.6-7.6c2.3-1.9,5.7-1.7,7.6,0.6s1.7,5.7-0.6,7.6
		C-548.2,297.1-551.6,296.8-553.6,294.5z"/>
	
		<linearGradient id="SVGID_64_" gradientUnits="userSpaceOnUse" x1="-2579.4148" y1="-1385.2916" x2="-2592.7947" y2="-1400.9016" gradientTransform="matrix(-0.2857 0.2407 -0.2407 -0.2857 -1623.3328 515.6027)">
		<stop  offset="0" style="stop-color:#BFBFBF"/>
		<stop  offset="1" style="stop-color:#F4F4F4"/>
	</linearGradient>
	<path class="st63" d="M-553.4,294.4c-1.9-2.2-1.6-5.5,0.6-7.3c2.2-1.9,5.5-1.6,7.3,0.6c1.9,2.2,1.6,5.5-0.6,7.3
		C-548.2,296.9-551.6,296.6-553.4,294.4z"/>
	<g transform="matrix(.39958 -.69208 .69208 .39958 -1040.9 697.94)">
		
			<radialGradient id="SVGID_65_" cx="3730.4521" cy="4455.8823" r="5.869" gradientTransform="matrix(0.6006 0.2172 -0.188 0.5201 -654.1848 -2849.5391)" gradientUnits="userSpaceOnUse">
			<stop  offset="0" style="stop-color:#F2F2F2"/>
			<stop  offset="1" style="stop-color:#141414"/>
		</radialGradient>
		<path class="st64" d="M749.4,283.8c-1.1-1.4-2.5-2.9-5.5-2c1.3-2.4,0.4-4.1-1-5.7c2.1-0.1,3.8-1,4.4-3.7c1.4,2.1,3.2,2.5,5.5,2
			c-1,2-0.9,3.8,1,5.7C751.6,280,750.2,281.2,749.4,283.8z"/>
		
			<radialGradient id="SVGID_66_" cx="3985.5845" cy="5146.6885" r="5.2603" gradientTransform="matrix(0.3611 0.1305 -0.1305 0.3611 -18.9318 -2100.8777)" gradientUnits="userSpaceOnUse">
			<stop  offset="0" style="stop-color:#F0F0F0"/>
			<stop  offset="1" style="stop-color:#AFAFAF"/>
		</radialGradient>
		<path class="st65" d="M751.4,279.1c-0.6,1.6-2.4,2.5-4.1,1.9c-1.6-0.6-2.5-2.4-1.9-4.1c0.6-1.7,2.4-2.5,4.1-1.9
			C751.1,275.6,752,277.5,751.4,279.1z"/>
	</g>
	
		<linearGradient id="SVGID_67_" gradientUnits="userSpaceOnUse" x1="-15.6393" y1="306.7339" x2="-9.0693" y2="313.924" gradientTransform="matrix(0.9704 0.3509 -0.3509 0.9704 -410.0517 16.1866)">
		<stop  offset="0" style="stop-color:#000000"/>
		<stop  offset="1" style="stop-color:#000000;stop-opacity:0"/>
	</linearGradient>
	<path class="st66" d="M-525.1,315.2c-1.2,3.2-4.7,4.9-7.9,3.7s-4.9-4.7-3.7-7.9c1.2-3.2,4.7-4.9,7.9-3.7
		C-525.6,308.4-523.9,312-525.1,315.2z"/>
	
		<linearGradient id="SVGID_68_" gradientUnits="userSpaceOnUse" x1="-2566.4514" y1="-1322.8976" x2="-2574.2815" y2="-1334.1276" gradientTransform="matrix(-0.2972 0.2505 -0.2505 -0.2972 -1624.277 562.932)">
		<stop  offset="0" style="stop-color:#000000"/>
		<stop  offset="1" style="stop-color:#000000;stop-opacity:0"/>
	</linearGradient>
	<path class="st67" d="M-535,316.5c-1.9-2.3-1.7-5.7,0.6-7.6c2.3-1.9,5.7-1.7,7.6,0.6s1.7,5.7-0.6,7.6
		C-529.7,319.1-533.1,318.8-535,316.5z"/>
	
		<linearGradient id="SVGID_69_" gradientUnits="userSpaceOnUse" x1="-2579.3784" y1="-1385.3228" x2="-2592.7583" y2="-1400.9327" gradientTransform="matrix(-0.2857 0.2407 -0.2407 -0.2857 -1604.7965 537.5958)">
		<stop  offset="0" style="stop-color:#BFBFBF"/>
		<stop  offset="1" style="stop-color:#F4F4F4"/>
	</linearGradient>
	<path class="st68" d="M-534.9,316.4c-1.9-2.2-1.6-5.5,0.6-7.3c2.2-1.9,5.5-1.6,7.3,0.6c1.9,2.2,1.6,5.5-0.6,7.3
		C-529.7,318.9-533,318.7-534.9,316.4z"/>
	<g transform="matrix(.39958 -.69208 .69208 .39958 -1016 712.32)">
		
			<radialGradient id="SVGID_70_" cx="3691.4668" cy="4442.4185" r="5.869" gradientTransform="matrix(0.6006 0.2172 -0.188 0.5201 -645.5362 -2836.2168)" gradientUnits="userSpaceOnUse">
			<stop  offset="0" style="stop-color:#F2F2F2"/>
			<stop  offset="1" style="stop-color:#141414"/>
		</radialGradient>
		<path class="st69" d="M737.2,281.6c-1.1-1.4-2.5-2.9-5.5-2c1.3-2.4,0.4-4.1-1-5.7c2.1-0.1,3.8-1,4.4-3.7c1.4,2.1,3.2,2.5,5.5,2
			c-1,2-0.9,3.8,1,5.7C739.4,277.8,737.9,279,737.2,281.6z"/>
		
			<radialGradient id="SVGID_71_" cx="3946.5994" cy="5133.2246" r="5.2603" gradientTransform="matrix(0.3611 0.1305 -0.1305 0.3611 -18.8446 -2093.0701)" gradientUnits="userSpaceOnUse">
			<stop  offset="0" style="stop-color:#F0F0F0"/>
			<stop  offset="1" style="stop-color:#AFAFAF"/>
		</radialGradient>
		<path class="st70" d="M739.2,276.9c-0.6,1.6-2.4,2.5-4.1,1.9c-1.6-0.6-2.5-2.4-1.9-4.1c0.6-1.7,2.4-2.5,4.1-1.9
			C738.8,273.5,739.8,275.3,739.2,276.9z"/>
	</g>
</g>
</svg>
