<?xml version="1.0" encoding="UTF-8"?>
<svg viewBox="0 0 265.27966 379.5242" xmlns="http://www.w3.org/2000/svg" xmlns:xlink="http://www.w3.org/1999/xlink">
 <defs>
  <filter id="an">
   <feGaussianBlur stdDeviation="3.6558"/>
  </filter>
  <filter id="am">
   <feGaussianBlur stdDeviation=".9431"/>
  </filter>
  <filter id="al">
   <feGaussianBlur stdDeviation=".8932"/>
  </filter>
  <filter id="ai">
   <feGaussianBlur stdDeviation="1.0617"/>
  </filter>
  <filter id="ah">
   <feGaussianBlur stdDeviation=".5891"/>
  </filter>
  <filter id="ak" x="-.16141" y="-.01296" width="1.3228" height="1.0259">
   <feGaussianBlur stdDeviation="1.7175"/>
  </filter>
  <filter id="aj" x="-.09389" y="-.30881" width="1.1878" height="1.6176">
   <feGaussianBlur stdDeviation="7.2847"/>
  </filter>
  <filter id="ao" x="-.10609" y="-.13811" width="1.2122" height="1.2762">
   <feGaussianBlur stdDeviation="3.0066"/>
  </filter>
  <linearGradient id="l">
   <stop stop-color="#999" offset="0"/>
   <stop stop-color="#6f6f6f" offset="1"/>
  </linearGradient>
  <linearGradient id="m">
   <stop stop-color="#d7d7d7" offset="0"/>
   <stop stop-color="#404040" offset="1"/>
  </linearGradient>
  <linearGradient id="h">
   <stop stop-color="#8e3900" offset="0"/>
   <stop stop-color="#ffb27e" stop-opacity="0" offset="1"/>
  </linearGradient>
  <linearGradient id="i">
   <stop offset="0"/>
   <stop stop-opacity="0" offset="1"/>
  </linearGradient>
  <linearGradient id="c" x1="-681.94" x2="-695.32" y1="457.18" y2="441.57" gradientUnits="userSpaceOnUse">
   <stop stop-color="#bfbfbf" offset="0"/>
   <stop stop-color="#f4f4f4" offset="1"/>
  </linearGradient>
  <linearGradient id="k" x1="426.7" x2="236.17" y1="341.23" y2="136.71" gradientUnits="userSpaceOnUse">
   <stop stop-color="#a2a2a2" offset="0"/>
   <stop stop-color="#fff" stop-opacity=".9913" offset="1"/>
  </linearGradient>
  <linearGradient id="j" x1="185.57" x2="485.9" gradientUnits="userSpaceOnUse">
   <stop stop-color="#e4e4e4" offset="0"/>
   <stop stop-color="#e4e4e4" stop-opacity="0" offset="1"/>
  </linearGradient>
  <linearGradient id="x" x1="370.68" x2="356.8" y1="284.96" y2="247.31" gradientUnits="userSpaceOnUse">
   <stop stop-color="#060606" offset="0"/>
   <stop stop-color="#909090" stop-opacity="0" offset="1"/>
  </linearGradient>
  <linearGradient id="w" x1="379.9" x2="333.92" y1="270.75" y2="220.98" gradientUnits="userSpaceOnUse">
   <stop stop-color="#fff" stop-opacity=".8261" offset="0"/>
   <stop stop-color="#7e7e7e" stop-opacity="0" offset=".5"/>
   <stop stop-opacity=".0957" offset="1"/>
  </linearGradient>
  <linearGradient id="v" x1="743.29" x2="658.31" gradientUnits="userSpaceOnUse">
   <stop stop-color="#0b0b0b" offset="0"/>
   <stop stop-color="#1a1a1a" offset=".0394"/>
   <stop stop-color="#1a1a1a" offset=".973"/>
   <stop stop-color="#404040" offset="1"/>
  </linearGradient>
  <linearGradient id="u" x2="0" y1="419.58" y2="423.81" gradientUnits="userSpaceOnUse">
   <stop stop-color="#e9e9e9" offset="0"/>
   <stop stop-color="#686868" offset=".3488"/>
   <stop stop-color="#2e2e2e" offset=".604"/>
   <stop stop-color="#0b0b0b" offset="1"/>
  </linearGradient>
  <linearGradient id="ag" x1="414.91" x2="459.03" y1="261.04" y2="261.07" gradientTransform="matrix(.99179 -.26577 .27876 .94558 229.55 227.5)" gradientUnits="userSpaceOnUse">
   <stop stop-color="#cb792e" offset="0"/>
   <stop stop-color="#e3b080" offset=".0203"/>
   <stop stop-color="#cb792e" offset=".0411"/>
   <stop stop-color="#cb792e" offset=".0748"/>
   <stop stop-color="#e3b080" offset=".0942"/>
   <stop stop-color="#cb792e" offset=".1264"/>
   <stop stop-color="#cb792e" offset=".1636"/>
   <stop stop-color="#e3b080" offset=".191"/>
   <stop stop-color="#cb792e" offset=".2177"/>
   <stop stop-color="#d68c46" offset=".6089"/>
   <stop stop-color="#d68b46" offset="1"/>
  </linearGradient>
  <linearGradient id="ac" x1="617.56" x2="653.67" y1="380.38" y2="405.9" gradientUnits="userSpaceOnUse">
   <stop stop-color="#a40" offset="0"/>
   <stop stop-color="#281000" stop-opacity=".9913" offset="1"/>
  </linearGradient>
  <linearGradient id="ab" x1="595.49" x2="609.22" y1="359.12" y2="373.55" gradientUnits="userSpaceOnUse">
   <stop stop-color="#f0f0f0" offset="0"/>
   <stop stop-color="#e0e0e0" offset=".2"/>
   <stop stop-color="#8c8c8c" offset=".3542"/>
   <stop stop-color="#e9e9e9" offset=".5863"/>
   <stop stop-color="#999" offset=".7454"/>
   <stop stop-color="#bfbfbf" offset="1"/>
  </linearGradient>
  <linearGradient id="aa" x1="666.22" x2="668.84" y1="-272.87" y2="-272.87" gradientUnits="userSpaceOnUse">
   <stop stop-color="#7c7c7c" offset="0"/>
   <stop stop-color="#9e9e9e" stop-opacity=".9922" offset=".0431"/>
   <stop stop-color="#4d4d4d" stop-opacity=".9882" offset=".11"/>
   <stop stop-color="#787878" stop-opacity=".9882" offset=".2985"/>
   <stop stop-color="#ababab" stop-opacity=".9882" offset=".3534"/>
   <stop stop-color="#646464" stop-opacity=".9882" offset=".4107"/>
   <stop stop-color="#525252" stop-opacity=".9882" offset=".6146"/>
   <stop stop-color="#a6a6a6" stop-opacity=".9882" offset=".6719"/>
   <stop stop-color="#595959" stop-opacity=".9882" offset=".7406"/>
   <stop stop-color="#5f5f5f" stop-opacity=".9882" offset=".8839"/>
   <stop stop-color="#adadad" stop-opacity=".9843" offset=".9365"/>
   <stop stop-color="#525252" stop-opacity=".9843" offset="1"/>
  </linearGradient>
  <linearGradient id="z" x1="589.82" x2="534.08" y1="429.71" y2="382.39" gradientUnits="userSpaceOnUse">
   <stop stop-color="#bdbdbd" offset="0"/>
   <stop stop-color="#dcdcdc" offset=".3215"/>
   <stop stop-color="#afafaf" offset=".3949"/>
   <stop stop-color="#f4f4f4" offset=".6622"/>
   <stop stop-color="#c8c8c8" offset="1"/>
  </linearGradient>
  <linearGradient id="y" x1="697.92" x2="705.66" y1="134.06" y2="142.77" gradientUnits="userSpaceOnUse" xlink:href="#i"/>
  <linearGradient id="d" x1="-689.67" x2="-697.5" y1="448.51" y2="437.28" gradientUnits="userSpaceOnUse" xlink:href="#i"/>
  <linearGradient id="g" x1="694.57" x2="707.6" gradientUnits="userSpaceOnUse" xlink:href="#l"/>
  <linearGradient id="f" x1="308.19" x2="316.83" gradientUnits="userSpaceOnUse" xlink:href="#m"/>
  <linearGradient id="e" x1="697.92" x2="704.49" y1="134.06" y2="141.25" gradientUnits="userSpaceOnUse" xlink:href="#i"/>
  <linearGradient id="t" x1="693.84" x2="706.87" gradientUnits="userSpaceOnUse" xlink:href="#l"/>
  <linearGradient id="s" x1="307.57" x2="316.21" gradientUnits="userSpaceOnUse" xlink:href="#m"/>
  <linearGradient id="af" x1="597.09" x2="653.03" gradientUnits="userSpaceOnUse" xlink:href="#h"/>
  <linearGradient id="ae" x1="597.05" x2="652.99" gradientUnits="userSpaceOnUse" xlink:href="#h"/>
  <linearGradient id="ad" x1="596.97" x2="652.91" gradientUnits="userSpaceOnUse" xlink:href="#h"/>
  <linearGradient id="n" x1="596.98" x2="652.92" gradientUnits="userSpaceOnUse" xlink:href="#h"/>
  <radialGradient id="b" cx="1560.3" cy="1528.3" r="5.869" gradientTransform="matrix(1 0 0 .86599 -2.2328 180.91)" gradientUnits="userSpaceOnUse">
   <stop stop-color="#f2f2f2" offset="0"/>
   <stop stop-color="#141414" offset="1"/>
  </radialGradient>
  <radialGradient id="a" cx="1564.1" cy="1531.6" r="5.2603" gradientUnits="userSpaceOnUse">
   <stop stop-color="#f0f0f0" offset="0"/>
   <stop stop-color="#afafaf" offset="1"/>
  </radialGradient>
  <radialGradient id="r" cx="356.8" cy="247.31" r="37.653" gradientUnits="userSpaceOnUse">
   <stop stop-color="#f4f4f4" offset="0"/>
   <stop stop-color="#e5e5e5" offset=".8421"/>
   <stop stop-color="#878787" offset=".8549"/>
   <stop stop-color="#f0f0f0" offset=".9086"/>
   <stop stop-color="#e7e7e7" offset=".9598"/>
   <stop stop-color="#a9a9a9" stop-opacity=".9739" offset="1"/>
  </radialGradient>
  <radialGradient id="q" cx="360.37" cy="245.88" r="18.143" gradientUnits="userSpaceOnUse">
   <stop stop-color="#dadada" offset="0"/>
   <stop stop-color="#d5d5d5" offset=".123"/>
   <stop stop-color="#b5b5b5" offset=".1518"/>
   <stop stop-color="#eee" offset=".2138"/>
   <stop stop-color="#d7d7d7" offset=".2565"/>
   <stop stop-color="#e0e0e0" offset=".271"/>
   <stop stop-color="#eaeaea" offset=".8225"/>
   <stop stop-color="#828282" stop-opacity=".9843" offset=".8501"/>
   <stop stop-color="#e9e9e9" offset=".9007"/>
   <stop stop-color="#e7e7e7" offset=".9605"/>
   <stop stop-color="#adadad" offset="1"/>
  </radialGradient>
  <radialGradient id="p" cx="111.71" cy="399.92" r="23.479" gradientUnits="userSpaceOnUse">
   <stop stop-color="#111" offset="0"/>
   <stop stop-color="#505050" offset=".9324"/>
   <stop stop-color="#ababab" offset="1"/>
  </radialGradient>
  <radialGradient id="o" cx="701.08" cy="137.84" r="6.014" gradientUnits="userSpaceOnUse">
   <stop offset="0"/>
   <stop stop-color="#212121" offset=".1335"/>
   <stop stop-color="#adadad" offset=".2148"/>
   <stop stop-color="#afafaf" offset=".27"/>
   <stop stop-color="#fff" offset=".3041"/>
   <stop stop-color="#cacaca" offset=".3495"/>
   <stop stop-color="#b6b6b6" offset=".5665"/>
   <stop stop-color="#fff" offset=".6588"/>
   <stop stop-color="#bdbdbd" offset=".7055"/>
   <stop stop-color="#c6c6c6" offset=".7333"/>
   <stop stop-color="#dfdfdf" offset=".9114"/>
   <stop stop-color="#9e9e9e" offset=".9544"/>
   <stop stop-color="#5d5d5d" offset="1"/>
  </radialGradient>
 </defs>
 <g transform="translate(-490.74 -114.47)">
  <g transform="translate(245.74 97.964)" fill-rule="evenodd">
   <path d="m257 16.504h241.28a12 12 0 0 1 12 12v355.52a12 12 0 0 1 -12 12h-241.28a12 12 0 0 1 -12 -12v-355.52a12 12 0 0 1 12 -12" fill="#42454c"/>
   <path transform="matrix(.91346 -.54882 .53567 .93589 -2.392 18.056)" d="m212.62 127.43c0 2.2754-2.7668 4.12-6.1799 4.12s-6.1799-1.8446-6.1799-4.12 2.7668-4.12 6.1799-4.12 6.1799 1.8446 6.1799 4.12z"/>
   <path transform="matrix(.86965 -.50998 .50998 .86965 9.0525 17.751)" d="m212.62 127.43c0 2.2754-2.7668 4.12-6.1799 4.12s-6.1799-1.8446-6.1799-4.12 2.7668-4.12 6.1799-4.12 6.1799 1.8446 6.1799 4.12z" fill="#dedede"/>
   <path transform="matrix(-.91346 -.54882 -.53567 .93589 759.25 17.946)" d="m212.62 127.43c0 2.2754-2.7668 4.12-6.1799 4.12s-6.1799-1.8446-6.1799-4.12 2.7668-4.12 6.1799-4.12 6.1799 1.8446 6.1799 4.12z"/>
   <path transform="matrix(-.86965 -.50998 -.50998 .86965 746.06 17.86)" d="m212.62 127.43c0 2.2754-2.7668 4.12-6.1799 4.12s-6.1799-1.8446-6.1799-4.12 2.7668-4.12 6.1799-4.12 6.1799 1.8446 6.1799 4.12z" fill="#dedede"/>
  </g>
  <path d="m724.69 465.82h-227.91v-155.08h237.66l14.961 19.569 2.5926 119.82" fill="#282b33" fill-rule="evenodd"/>
  <path d="m498.75 354.91 4.5263 26.646 1.915 68.795-3.83 15.281 120.57 0.22284-87.741-33.076-26.909-79.396-7.1377 1.8782-1.3927-0.35018z" fill="#101010" fill-rule="evenodd" filter="url(#ah)"/>
  <path d="m707.47 348.19 16.358-20.313 9.5211-5.6547 17.657 8.5497-25.185 52.005-7.5923 2.0822-10.76-36.67z" fill="#101010" fill-rule="evenodd" filter="url(#ai)"/>
  <path d="m728.34 328.69c-21.439 32.727-57.868 54.928-99.941 56.523-32.829 1.2446-63.181-10.281-86.267-30.138" fill-opacity=".9826" fill-rule="evenodd" filter="url(#aj)" stroke="#000" stroke-linecap="round" stroke-linejoin="round" stroke-width=".2"/>
  <path d="m497.16 341.92h38.685l10.916 13.524h-49.41l-0.19151-13.524z"/>
  <path d="m543.22 124.66 167.84 8.506 29.052 26.406 8.1724 20.957 2.117 68.597-256.05-6.3704 17.089-94.738 31.781-23.358z" fill="#282b33"/>
  <path d="m505.66 150.14 12.876-1.254c1.6677 1.3663 3.3354 2.2462 5.0031 1.857l15.912-15.846 10.418-4.1288 158.22 7.9952 13.045 18.515 7.9952-0.4208 16.832 18.515 3.3664 67.328 1.2624-78.269-21.882-22.723-9.6784-0.4208-4.6288-11.782c-7.5643-3.9101-14.709-9.7188-22.711-9.6878l-145.85 0.56432-14.903 5.7571-25.272 24z" fill="#101010" filter="url(#am)"/>
  <path d="m662.47 122.45c22.572 0.3526 46.572-6.4553 52.945 21.315-0.59316 6.8995-3.8187 9.4118-7.53 11.114-16.516-18.445-40.519-25.104-61.428-31.296l16.014-1.1335h-3.6e-4z" fill="#e2e2e2"/>
  <path transform="matrix(1.0581 0 0 1.0581 -40.397 -7.6618)" d="m707.1 137.84c0 3.3215-2.6926 6.014-6.014 6.014s-6.014-2.6926-6.014-6.014 2.6926-6.014 6.014-6.014 6.014 2.6926 6.014 6.014z" fill="url(#y)" fill-rule="evenodd"/>
  <path transform="matrix(-.19434 .33661 -.33661 -.19434 718.93 456.96)" d="m-673.9 449.61c0 7.732-6.2642 14-13.992 14s-13.992-6.268-13.992-14 6.2642-14 13.992-14 13.992 6.268 13.992 14z" fill="url(#d)" fill-rule="evenodd"/>
  <path transform="matrix(-.1868 .32355 -.32355 -.1868 718.25 444.59)" d="m-673.9 449.61c0 7.732-6.2642 14-13.992 14s-13.992-6.268-13.992-14 6.2642-14 13.992-14 13.992 6.268 13.992 14z" fill="url(#c)" fill-rule="evenodd"/>
  <g transform="matrix(.39958 -.69208 .69208 .39958 -962.49 615.26)" fill-rule="evenodd">
   <path d="m1561 1509.4c-1.4775-0.9199-3.2848-1.9215-5.769 0 0.4-2.6921-1.0244-4.0309-2.8845-4.9825 1.8852-0.8459 3.1957-2.1989 2.8845-4.9825 2.0365 1.4935 3.9477 1.3378 5.769 0-0.3106 2.2053 0.5333 3.9165 2.8845 4.9825-2.0865 0.6958-3.0751 2.3334-2.8845 4.9825z" fill="url(#b)" stroke="#4d4d4d" stroke-width=".25027"/>
   <path transform="matrix(.60126 0 0 .60126 617.65 583.5)" d="m1569.4 1531.6c0 2.9052-2.3552 5.2603-5.2604 5.2603s-5.2603-2.3551-5.2603-5.2603 2.3552-5.2603 5.2603-5.2603 5.2604 2.3551 5.2604 5.2603z" fill="url(#a)"/>
  </g>
  <path d="m523.06 148.36c-9.7897 0.56539-10.324-1.2834-15.441 2.422-5.0625 3.6656-9.5423 8.9777-9.1166 16.923l-0.97948 78.611m0.14266-25.892v245.9" fill="none" filter="url(#ak)" stroke="#101010" stroke-width="3.6"/>
  <path d="m525.84 154.59c-8.0886-7.8221-22.696-5.7424-25.697 13.184l0.39483 45.966c6.457-20.725 16.834-37.446 29.393-50.405 1.9345-1.9961-1.9245-5.6031-4.0903-8.7451z" fill="#e3e3e3"/>
  <g transform="translate(43.005 -393.87)" fill-rule="evenodd">
   <path transform="matrix(1.0319 0 0 1.0319 -253.63 414.13)" d="m707.1 137.84c0 3.3215-2.6926 6.014-6.014 6.014s-6.014-2.6926-6.014-6.014 2.6926-6.014 6.014-6.014 6.014 2.6926 6.014 6.014z" fill="#333" stroke="url(#g)"/>
   <path transform="matrix(.24025 -.41612 .41612 .24025 -543.31 839.28)" d="m1569.4 1531.6c0 2.9052-2.3552 5.2603-5.2604 5.2603s-5.2603-2.3551-5.2603-5.2603 2.3552-5.2603 5.2603-5.2603 5.2604 2.3551 5.2604 5.2603z" fill="#1a1a1a"/>
   <path transform="matrix(1.2209 0 0 1.2217 88.184 15.207)" d="m314.55 446.49h-4.0765l-2.0382-3.5303 2.0382-3.5303h4.0765l2.0382 3.5303z" fill="#aeaeae" stroke="url(#f)" stroke-linecap="round" stroke-linejoin="round" stroke-width=".49129"/>
   <path transform="matrix(1.1379 0 0 1.1379 110.04 48.274)" d="m318.55 446.56c0 1.4018-1.1364 2.5382-2.5382 2.5382s-2.5382-1.1364-2.5382-2.5382 1.1364-2.5382 2.5382-2.5382 2.5382 1.1364 2.5382 2.5382z"/>
   <path d="m467.75 554.14c0.82508-0.61146 1.8656-0.86987 2.8883-0.46024 1.4426 0.57788 2.1744 2.1216 1.797 3.5877 0.25322-1.3997-0.50969-2.828-1.8812-3.3774-0.95744-0.3835-1.9223-0.17222-2.7284 0.34826" fill="#fff"/>
  </g>
  <path transform="matrix(.83284 0 0 .83284 343.25 53.109)" d="m485.9 240.59c0 82.932-67.23 150.16-150.16 150.16s-150.16-67.23-150.16-150.16 67.23-150.16 150.16-150.16 150.16 67.23 150.16 150.16z" fill="url(#k)" fill-rule="evenodd" stroke="#1a1a1a" stroke-linecap="round" stroke-linejoin="round" stroke-width=".24014"/>
  <path transform="matrix(-.8209 0 0 -.8209 898.46 450.98)" d="m485.9 240.59c0 82.932-67.23 150.16-150.16 150.16s-150.16-67.23-150.16-150.16 67.23-150.16 150.16-150.16 150.16 67.23 150.16 150.16z" fill="url(#j)" fill-rule="evenodd"/>
  <path transform="matrix(.83284 0 0 .83284 343.25 51.109)" d="m485.9 240.59c0 82.932-67.23 150.16-150.16 150.16s-150.16-67.23-150.16-150.16 67.23-150.16 150.16-150.16 150.16 67.23 150.16 150.16z" fill="url(#k)" fill-rule="evenodd" stroke="#1a1a1a" stroke-linecap="round" stroke-linejoin="round" stroke-width=".24014"/>
  <path transform="matrix(-.8209 0 0 -.8209 898.46 448.98)" d="m485.9 240.59c0 82.932-67.23 150.16-150.16 150.16s-150.16-67.23-150.16-150.16 67.23-150.16 150.16-150.16 150.16 67.23 150.16 150.16z" fill="url(#j)" fill-rule="evenodd"/>
  <path transform="matrix(.83284 0 0 .83284 343.25 49.109)" d="m485.9 240.59c0 82.932-67.23 150.16-150.16 150.16s-150.16-67.23-150.16-150.16 67.23-150.16 150.16-150.16 150.16 67.23 150.16 150.16z" fill="url(#k)" fill-rule="evenodd" stroke="#1a1a1a" stroke-linecap="round" stroke-linejoin="round" stroke-width=".24014"/>
  <path transform="matrix(-.8209 0 0 -.8209 898.46 446.98)" d="m485.9 240.59c0 82.932-67.23 150.16-150.16 150.16s-150.16-67.23-150.16-150.16 67.23-150.16 150.16-150.16 150.16 67.23 150.16 150.16z" fill="url(#j)" fill-rule="evenodd"/>
  <path transform="matrix(1.1234 0 0 1.1328 224.26 -28.554)" d="m394.46 247.31c0 20.795-16.858 37.653-37.653 37.653s-37.653-16.858-37.653-37.653 16.858-37.653 37.653-37.653 37.653 16.858 37.653 37.653z" fill="url(#x)" fill-rule="evenodd"/>
  <path transform="matrix(1.0952 0 0 1.0952 232.07 -21.386)" d="m394.46 247.31c0 20.795-16.858 37.653-37.653 37.653s-37.653-16.858-37.653-37.653 16.858-37.653 37.653-37.653 37.653 16.858 37.653 37.653z" fill="url(#r)" fill-rule="evenodd"/>
  <path transform="matrix(1.1176 0 0 1.1176 220.09 -25.326)" d="m378.52 245.88c0 10.02-8.123 18.143-18.143 18.143s-18.143-8.123-18.143-18.143 8.123-18.143 18.143-18.143 18.143 8.123 18.143 18.143z" fill="url(#q)" fill-rule="evenodd"/>
  <path transform="matrix(.10259 0 0 .10259 611.4 208.45)" d="m135.18 399.92c0 12.967-10.512 23.479-23.479 23.479s-23.479-10.512-23.479-23.479 10.512-23.479 23.479-23.479 23.479 10.512 23.479 23.479z" fill="url(#p)" fill-rule="evenodd"/>
  <path transform="matrix(-1.0952 0 0 -1.0952 1013.6 520.34)" d="m394.46 247.31c0 20.795-16.858 37.653-37.653 37.653s-37.653-16.858-37.653-37.653 16.858-37.653 37.653-37.653 37.653 16.858 37.653 37.653z" fill="url(#w)" fill-rule="evenodd"/>
  <path transform="matrix(1.0319 0 0 1.0319 -100.6 136)" d="m707.1 137.84c0 3.3215-2.6926 6.014-6.014 6.014s-6.014-2.6926-6.014-6.014 2.6926-6.014 6.014-6.014 6.014 2.6926 6.014 6.014z" fill="url(#e)" fill-rule="evenodd"/>
  <path transform="matrix(-.19434 .33661 -.33661 -.19434 640.52 597.16)" d="m-673.9 449.61c0 7.732-6.2642 14-13.992 14s-13.992-6.268-13.992-14 6.2642-14 13.992-14 13.992 6.268 13.992 14z" fill="url(#d)" fill-rule="evenodd"/>
  <path transform="matrix(-.1868 .32355 -.32355 -.1868 639.83 584.79)" d="m-673.9 449.61c0 7.732-6.2642 14-13.992 14s-13.992-6.268-13.992-14 6.2642-14 13.992-14 13.992 6.268 13.992 14z" fill="url(#c)" fill-rule="evenodd"/>
  <g transform="matrix(.39958 -.69208 .69208 .39958 -1040.9 755.46)" fill-rule="evenodd">
   <path d="m1561 1509.4c-1.4775-0.9199-3.2848-1.9215-5.769 0 0.4-2.6921-1.0244-4.0309-2.8845-4.9825 1.8852-0.8459 3.1957-2.1989 2.8845-4.9825 2.0365 1.4935 3.9477 1.3378 5.769 0-0.3106 2.2053 0.5333 3.9165 2.8845 4.9825-2.0865 0.6958-3.0751 2.3334-2.8845 4.9825z" fill="url(#b)" stroke="#4d4d4d" stroke-width=".25027"/>
   <path transform="matrix(.60126 0 0 .60126 617.65 583.5)" d="m1569.4 1531.6c0 2.9052-2.3552 5.2603-5.2604 5.2603s-5.2603-2.3551-5.2603-5.2603 2.3552-5.2603 5.2603-5.2603 5.2604 2.3551 5.2604 5.2603z" fill="url(#a)"/>
  </g>
  <path transform="matrix(1.0319 0 0 1.0319 -86.22 132.14)" d="m707.1 137.84c0 3.3215-2.6926 6.014-6.014 6.014s-6.014-2.6926-6.014-6.014 2.6926-6.014 6.014-6.014 6.014 2.6926 6.014 6.014z" fill="url(#e)" fill-rule="evenodd"/>
  <path transform="matrix(-.19434 .33661 -.33661 -.19434 654.9 593.31)" d="m-673.9 449.61c0 7.732-6.2642 14-13.992 14s-13.992-6.268-13.992-14 6.2642-14 13.992-14 13.992 6.268 13.992 14z" fill="url(#d)" fill-rule="evenodd"/>
  <path transform="matrix(-.1868 .32355 -.32355 -.1868 654.21 580.94)" d="m-673.9 449.61c0 7.732-6.2642 14-13.992 14s-13.992-6.268-13.992-14 6.2642-14 13.992-14 13.992 6.268 13.992 14z" fill="url(#c)" fill-rule="evenodd"/>
  <g transform="matrix(.39958 -.69208 .69208 .39958 -1026.5 751.61)" fill-rule="evenodd">
   <path d="m1561 1509.4c-1.4775-0.9199-3.2848-1.9215-5.769 0 0.4-2.6921-1.0244-4.0309-2.8845-4.9825 1.8852-0.8459 3.1957-2.1989 2.8845-4.9825 2.0365 1.4935 3.9477 1.3378 5.769 0-0.3106 2.2053 0.5333 3.9165 2.8845 4.9825-2.0865 0.6958-3.0751 2.3334-2.8845 4.9825z" fill="url(#b)" stroke="#4d4d4d" stroke-width=".25027"/>
   <path transform="matrix(.60126 0 0 .60126 617.65 583.5)" d="m1569.4 1531.6c0 2.9052-2.3552 5.2603-5.2604 5.2603s-5.2603-2.3551-5.2603-5.2603 2.3552-5.2603 5.2603-5.2603 5.2604 2.3551 5.2604 5.2603z" fill="url(#a)"/>
  </g>
  <path transform="matrix(1.0319 0 0 1.0319 -114.98 132.14)" d="m707.1 137.84c0 3.3215-2.6926 6.014-6.014 6.014s-6.014-2.6926-6.014-6.014 2.6926-6.014 6.014-6.014 6.014 2.6926 6.014 6.014z" fill="url(#e)" fill-rule="evenodd"/>
  <path transform="matrix(-.19434 .33661 -.33661 -.19434 626.14 593.31)" d="m-673.9 449.61c0 7.732-6.2642 14-13.992 14s-13.992-6.268-13.992-14 6.2642-14 13.992-14 13.992 6.268 13.992 14z" fill="url(#d)" fill-rule="evenodd"/>
  <path transform="matrix(-.1868 .32355 -.32355 -.1868 625.45 580.94)" d="m-673.9 449.61c0 7.732-6.2642 14-13.992 14s-13.992-6.268-13.992-14 6.2642-14 13.992-14 13.992 6.268 13.992 14z" fill="url(#c)" fill-rule="evenodd"/>
  <g transform="matrix(.39958 -.69208 .69208 .39958 -1055.3 751.61)" fill-rule="evenodd">
   <path d="m1561 1509.4c-1.4775-0.9199-3.2848-1.9215-5.769 0 0.4-2.6921-1.0244-4.0309-2.8845-4.9825 1.8852-0.8459 3.1957-2.1989 2.8845-4.9825 2.0365 1.4935 3.9477 1.3378 5.769 0-0.3106 2.2053 0.5333 3.9165 2.8845 4.9825-2.0865 0.6958-3.0751 2.3334-2.8845 4.9825z" fill="url(#b)" stroke="#4d4d4d" stroke-width=".25027"/>
   <path transform="matrix(.60126 0 0 .60126 617.65 583.5)" d="m1569.4 1531.6c0 2.9052-2.3552 5.2603-5.2604 5.2603s-5.2603-2.3551-5.2603-5.2603 2.3552-5.2603 5.2603-5.2603 5.2604 2.3551 5.2604 5.2603z" fill="url(#a)"/>
  </g>
  <path transform="matrix(1.0319 0 0 1.0319 -75.693 121.62)" d="m707.1 137.84c0 3.3215-2.6926 6.014-6.014 6.014s-6.014-2.6926-6.014-6.014 2.6926-6.014 6.014-6.014 6.014 2.6926 6.014 6.014z" fill="url(#e)" fill-rule="evenodd"/>
  <path transform="matrix(-.19434 .33661 -.33661 -.19434 665.42 582.78)" d="m-673.9 449.61c0 7.732-6.2642 14-13.992 14s-13.992-6.268-13.992-14 6.2642-14 13.992-14 13.992 6.268 13.992 14z" fill="url(#d)" fill-rule="evenodd"/>
  <path transform="matrix(-.1868 .32355 -.32355 -.1868 664.74 570.41)" d="m-673.9 449.61c0 7.732-6.2642 14-13.992 14s-13.992-6.268-13.992-14 6.2642-14 13.992-14 13.992 6.268 13.992 14z" fill="url(#c)" fill-rule="evenodd"/>
  <g transform="matrix(.39958 -.69208 .69208 .39958 -1016 741.08)" fill-rule="evenodd">
   <path d="m1561 1509.4c-1.4775-0.9199-3.2848-1.9215-5.769 0 0.4-2.6921-1.0244-4.0309-2.8845-4.9825 1.8852-0.8459 3.1957-2.1989 2.8845-4.9825 2.0365 1.4935 3.9477 1.3378 5.769 0-0.3106 2.2053 0.5333 3.9165 2.8845 4.9825-2.0865 0.6958-3.0751 2.3334-2.8845 4.9825z" fill="url(#b)" stroke="#4d4d4d" stroke-width=".25027"/>
   <path transform="matrix(.60126 0 0 .60126 617.65 583.5)" d="m1569.4 1531.6c0 2.9052-2.3552 5.2603-5.2604 5.2603s-5.2603-2.3551-5.2603-5.2603 2.3552-5.2603 5.2603-5.2603 5.2604 2.3551 5.2604 5.2603z" fill="url(#a)"/>
  </g>
  <path transform="matrix(1.0319 0 0 1.0319 -125.51 121.62)" d="m707.1 137.84c0 3.3215-2.6926 6.014-6.014 6.014s-6.014-2.6926-6.014-6.014 2.6926-6.014 6.014-6.014 6.014 2.6926 6.014 6.014z" fill="url(#e)" fill-rule="evenodd"/>
  <path transform="matrix(-.19434 .33661 -.33661 -.19434 615.61 582.78)" d="m-673.9 449.61c0 7.732-6.2642 14-13.992 14s-13.992-6.268-13.992-14 6.2642-14 13.992-14 13.992 6.268 13.992 14z" fill="url(#d)" fill-rule="evenodd"/>
  <path transform="matrix(-.1868 .32355 -.32355 -.1868 614.92 570.41)" d="m-673.9 449.61c0 7.732-6.2642 14-13.992 14s-13.992-6.268-13.992-14 6.2642-14 13.992-14 13.992 6.268 13.992 14z" fill="url(#c)" fill-rule="evenodd"/>
  <g transform="matrix(.39958 -.69208 .69208 .39958 -1065.8 741.08)" fill-rule="evenodd">
   <path d="m1561 1509.4c-1.4775-0.9199-3.2848-1.9215-5.769 0 0.4-2.6921-1.0244-4.0309-2.8845-4.9825 1.8852-0.8459 3.1957-2.1989 2.8845-4.9825 2.0365 1.4935 3.9477 1.3378 5.769 0-0.3106 2.2053 0.5333 3.9165 2.8845 4.9825-2.0865 0.6958-3.0751 2.3334-2.8845 4.9825z" fill="url(#b)" stroke="#4d4d4d" stroke-width=".25027"/>
   <path transform="matrix(.60126 0 0 .60126 617.65 583.5)" d="m1569.4 1531.6c0 2.9052-2.3552 5.2603-5.2604 5.2603s-5.2603-2.3551-5.2603-5.2603 2.3552-5.2603 5.2603-5.2603 5.2604 2.3551 5.2604 5.2603z" fill="url(#a)"/>
  </g>
  <path transform="matrix(1.0319 0 0 1.0319 -71.84 107.24)" d="m707.1 137.84c0 3.3215-2.6926 6.014-6.014 6.014s-6.014-2.6926-6.014-6.014 2.6926-6.014 6.014-6.014 6.014 2.6926 6.014 6.014z" fill="url(#e)" fill-rule="evenodd"/>
  <path transform="matrix(-.19434 .33661 -.33661 -.19434 669.28 568.4)" d="m-673.9 449.61c0 7.732-6.2642 14-13.992 14s-13.992-6.268-13.992-14 6.2642-14 13.992-14 13.992 6.268 13.992 14z" fill="url(#d)" fill-rule="evenodd"/>
  <path transform="matrix(-.1868 .32355 -.32355 -.1868 668.59 556.03)" d="m-673.9 449.61c0 7.732-6.2642 14-13.992 14s-13.992-6.268-13.992-14 6.2642-14 13.992-14 13.992 6.268 13.992 14z" fill="url(#c)" fill-rule="evenodd"/>
  <g transform="matrix(.39958 -.69208 .69208 .39958 -1012.1 726.7)" fill-rule="evenodd">
   <path d="m1561 1509.4c-1.4775-0.9199-3.2848-1.9215-5.769 0 0.4-2.6921-1.0244-4.0309-2.8845-4.9825 1.8852-0.8459 3.1957-2.1989 2.8845-4.9825 2.0365 1.4935 3.9477 1.3378 5.769 0-0.3106 2.2053 0.5333 3.9165 2.8845 4.9825-2.0865 0.6958-3.0751 2.3334-2.8845 4.9825z" fill="url(#b)" stroke="#4d4d4d" stroke-width=".25027"/>
   <path transform="matrix(.60126 0 0 .60126 617.65 583.5)" d="m1569.4 1531.6c0 2.9052-2.3552 5.2603-5.2604 5.2603s-5.2603-2.3551-5.2603-5.2603 2.3552-5.2603 5.2603-5.2603 5.2604 2.3551 5.2604 5.2603z" fill="url(#a)"/>
  </g>
  <path transform="matrix(1.0319 0 0 1.0319 -129.36 107.24)" d="m707.1 137.84c0 3.3215-2.6926 6.014-6.014 6.014s-6.014-2.6926-6.014-6.014 2.6926-6.014 6.014-6.014 6.014 2.6926 6.014 6.014z" fill="url(#e)" fill-rule="evenodd"/>
  <path transform="matrix(-.19434 .33661 -.33661 -.19434 611.76 568.4)" d="m-673.9 449.61c0 7.732-6.2642 14-13.992 14s-13.992-6.268-13.992-14 6.2642-14 13.992-14 13.992 6.268 13.992 14z" fill="url(#d)" fill-rule="evenodd"/>
  <path transform="matrix(-.1868 .32355 -.32355 -.1868 611.07 556.03)" d="m-673.9 449.61c0 7.732-6.2642 14-13.992 14s-13.992-6.268-13.992-14 6.2642-14 13.992-14 13.992 6.268 13.992 14z" fill="url(#c)" fill-rule="evenodd"/>
  <g transform="matrix(.39958 -.69208 .69208 .39958 -1069.7 726.7)" fill-rule="evenodd">
   <path d="m1561 1509.4c-1.4775-0.9199-3.2848-1.9215-5.769 0 0.4-2.6921-1.0244-4.0309-2.8845-4.9825 1.8852-0.8459 3.1957-2.1989 2.8845-4.9825 2.0365 1.4935 3.9477 1.3378 5.769 0-0.3106 2.2053 0.5333 3.9165 2.8845 4.9825-2.0865 0.6958-3.0751 2.3334-2.8845 4.9825z" fill="url(#b)" stroke="#4d4d4d" stroke-width=".25027"/>
   <path transform="matrix(.60126 0 0 .60126 617.65 583.5)" d="m1569.4 1531.6c0 2.9052-2.3552 5.2603-5.2604 5.2603s-5.2603-2.3551-5.2603-5.2603 2.3552-5.2603 5.2603-5.2603 5.2604 2.3551 5.2604 5.2603z" fill="url(#a)"/>
  </g>
  <path transform="matrix(1.0319 0 0 1.0319 -125.51 92.856)" d="m707.1 137.84c0 3.3215-2.6926 6.014-6.014 6.014s-6.014-2.6926-6.014-6.014 2.6926-6.014 6.014-6.014 6.014 2.6926 6.014 6.014z" fill="url(#e)" fill-rule="evenodd"/>
  <path transform="matrix(-.19434 .33661 -.33661 -.19434 615.61 554.02)" d="m-673.9 449.61c0 7.732-6.2642 14-13.992 14s-13.992-6.268-13.992-14 6.2642-14 13.992-14 13.992 6.268 13.992 14z" fill="url(#d)" fill-rule="evenodd"/>
  <path transform="matrix(-.1868 .32355 -.32355 -.1868 614.92 541.65)" d="m-673.9 449.61c0 7.732-6.2642 14-13.992 14s-13.992-6.268-13.992-14 6.2642-14 13.992-14 13.992 6.268 13.992 14z" fill="url(#c)" fill-rule="evenodd"/>
  <g transform="matrix(.39958 -.69208 .69208 .39958 -1065.8 712.32)" fill-rule="evenodd">
   <path d="m1561 1509.4c-1.4775-0.9199-3.2848-1.9215-5.769 0 0.4-2.6921-1.0244-4.0309-2.8845-4.9825 1.8852-0.8459 3.1957-2.1989 2.8845-4.9825 2.0365 1.4935 3.9477 1.3378 5.769 0-0.3106 2.2053 0.5333 3.9165 2.8845 4.9825-2.0865 0.6958-3.0751 2.3334-2.8845 4.9825z" fill="url(#b)" stroke="#4d4d4d" stroke-width=".25027"/>
   <path transform="matrix(.60126 0 0 .60126 617.65 583.5)" d="m1569.4 1531.6c0 2.9052-2.3552 5.2603-5.2604 5.2603s-5.2603-2.3551-5.2603-5.2603 2.3552-5.2603 5.2603-5.2603 5.2604 2.3551 5.2604 5.2603z" fill="url(#a)"/>
  </g>
  <path transform="matrix(1.0319 0 0 1.0319 -114.98 82.329)" d="m707.1 137.84c0 3.3215-2.6926 6.014-6.014 6.014s-6.014-2.6926-6.014-6.014 2.6926-6.014 6.014-6.014 6.014 2.6926 6.014 6.014z" fill="url(#e)" fill-rule="evenodd"/>
  <path transform="matrix(-.19434 .33661 -.33661 -.19434 626.14 543.5)" d="m-673.9 449.61c0 7.732-6.2642 14-13.992 14s-13.992-6.268-13.992-14 6.2642-14 13.992-14 13.992 6.268 13.992 14z" fill="url(#d)" fill-rule="evenodd"/>
  <path transform="matrix(-.1868 .32355 -.32355 -.1868 625.45 531.12)" d="m-673.9 449.61c0 7.732-6.2642 14-13.992 14s-13.992-6.268-13.992-14 6.2642-14 13.992-14 13.992 6.268 13.992 14z" fill="url(#c)" fill-rule="evenodd"/>
  <g transform="matrix(.39958 -.69208 .69208 .39958 -1055.3 701.8)" fill-rule="evenodd">
   <path d="m1561 1509.4c-1.4775-0.9199-3.2848-1.9215-5.769 0 0.4-2.6921-1.0244-4.0309-2.8845-4.9825 1.8852-0.8459 3.1957-2.1989 2.8845-4.9825 2.0365 1.4935 3.9477 1.3378 5.769 0-0.3106 2.2053 0.5333 3.9165 2.8845 4.9825-2.0865 0.6958-3.0751 2.3334-2.8845 4.9825z" fill="url(#b)" stroke="#4d4d4d" stroke-width=".25027"/>
   <path transform="matrix(.60126 0 0 .60126 617.65 583.5)" d="m1569.4 1531.6c0 2.9052-2.3552 5.2603-5.2604 5.2603s-5.2603-2.3551-5.2603-5.2603 2.3552-5.2603 5.2603-5.2603 5.2604 2.3551 5.2604 5.2603z" fill="url(#a)"/>
  </g>
  <path transform="matrix(1.0319 0 0 1.0319 -86.22 82.329)" d="m707.1 137.84c0 3.3215-2.6926 6.014-6.014 6.014s-6.014-2.6926-6.014-6.014 2.6926-6.014 6.014-6.014 6.014 2.6926 6.014 6.014z" fill="url(#e)" fill-rule="evenodd"/>
  <path transform="matrix(-.19434 .33661 -.33661 -.19434 654.9 543.5)" d="m-673.9 449.61c0 7.732-6.2642 14-13.992 14s-13.992-6.268-13.992-14 6.2642-14 13.992-14 13.992 6.268 13.992 14z" fill="url(#d)" fill-rule="evenodd"/>
  <path transform="matrix(-.1868 .32355 -.32355 -.1868 654.21 531.12)" d="m-673.9 449.61c0 7.732-6.2642 14-13.992 14s-13.992-6.268-13.992-14 6.2642-14 13.992-14 13.992 6.268 13.992 14z" fill="url(#c)" fill-rule="evenodd"/>
  <g transform="matrix(.39958 -.69208 .69208 .39958 -1026.5 701.8)" fill-rule="evenodd">
   <path d="m1561 1509.4c-1.4775-0.9199-3.2848-1.9215-5.769 0 0.4-2.6921-1.0244-4.0309-2.8845-4.9825 1.8852-0.8459 3.1957-2.1989 2.8845-4.9825 2.0365 1.4935 3.9477 1.3378 5.769 0-0.3106 2.2053 0.5333 3.9165 2.8845 4.9825-2.0865 0.6958-3.0751 2.3334-2.8845 4.9825z" fill="url(#b)" stroke="#4d4d4d" stroke-width=".25027"/>
   <path transform="matrix(.60126 0 0 .60126 617.65 583.5)" d="m1569.4 1531.6c0 2.9052-2.3552 5.2603-5.2604 5.2603s-5.2603-2.3551-5.2603-5.2603 2.3552-5.2603 5.2603-5.2603 5.2604 2.3551 5.2604 5.2603z" fill="url(#a)"/>
  </g>
  <path transform="matrix(1.0319 0 0 1.0319 -100.6 78.476)" d="m707.1 137.84c0 3.3215-2.6926 6.014-6.014 6.014s-6.014-2.6926-6.014-6.014 2.6926-6.014 6.014-6.014 6.014 2.6926 6.014 6.014z" fill="url(#e)" fill-rule="evenodd"/>
  <path transform="matrix(-.19434 .33661 -.33661 -.19434 640.52 539.65)" d="m-673.9 449.61c0 7.732-6.2642 14-13.992 14s-13.992-6.268-13.992-14 6.2642-14 13.992-14 13.992 6.268 13.992 14z" fill="url(#d)" fill-rule="evenodd"/>
  <path transform="matrix(-.1868 .32355 -.32355 -.1868 639.83 527.27)" d="m-673.9 449.61c0 7.732-6.2642 14-13.992 14s-13.992-6.268-13.992-14 6.2642-14 13.992-14 13.992 6.268 13.992 14z" fill="url(#c)" fill-rule="evenodd"/>
  <g transform="matrix(.39958 -.69208 .69208 .39958 -1040.9 697.94)" fill-rule="evenodd">
   <path d="m1561 1509.4c-1.4775-0.9199-3.2848-1.9215-5.769 0 0.4-2.6921-1.0244-4.0309-2.8845-4.9825 1.8852-0.8459 3.1957-2.1989 2.8845-4.9825 2.0365 1.4935 3.9477 1.3378 5.769 0-0.3106 2.2053 0.5333 3.9165 2.8845 4.9825-2.0865 0.6958-3.0751 2.3334-2.8845 4.9825z" fill="url(#b)" stroke="#4d4d4d" stroke-width=".25027"/>
   <path transform="matrix(.60126 0 0 .60126 617.65 583.5)" d="m1569.4 1531.6c0 2.9052-2.3552 5.2603-5.2604 5.2603s-5.2603-2.3551-5.2603-5.2603 2.3552-5.2603 5.2603-5.2603 5.2604 2.3551 5.2604 5.2603z" fill="url(#a)"/>
  </g>
  <path transform="matrix(1.0319 0 0 1.0319 -75.693 92.856)" d="m707.1 137.84c0 3.3215-2.6926 6.014-6.014 6.014s-6.014-2.6926-6.014-6.014 2.6926-6.014 6.014-6.014 6.014 2.6926 6.014 6.014z" fill="url(#e)" fill-rule="evenodd"/>
  <path transform="matrix(-.19434 .33661 -.33661 -.19434 665.42 554.02)" d="m-673.9 449.61c0 7.732-6.2642 14-13.992 14s-13.992-6.268-13.992-14 6.2642-14 13.992-14 13.992 6.268 13.992 14z" fill="url(#d)" fill-rule="evenodd"/>
  <path transform="matrix(-.1868 .32355 -.32355 -.1868 664.74 541.65)" d="m-673.9 449.61c0 7.732-6.2642 14-13.992 14s-13.992-6.268-13.992-14 6.2642-14 13.992-14 13.992 6.268 13.992 14z" fill="url(#c)" fill-rule="evenodd"/>
  <g transform="matrix(.39958 -.69208 .69208 .39958 -1016 712.32)" fill-rule="evenodd">
   <path d="m1561 1509.4c-1.4775-0.9199-3.2848-1.9215-5.769 0 0.4-2.6921-1.0244-4.0309-2.8845-4.9825 1.8852-0.8459 3.1957-2.1989 2.8845-4.9825 2.0365 1.4935 3.9477 1.3378 5.769 0-0.3106 2.2053 0.5333 3.9165 2.8845 4.9825-2.0865 0.6958-3.0751 2.3334-2.8845 4.9825z" fill="url(#b)" stroke="#4d4d4d" stroke-width=".25027"/>
   <path transform="matrix(.60126 0 0 .60126 617.65 583.5)" d="m1569.4 1531.6c0 2.9052-2.3552 5.2603-5.2604 5.2603s-5.2603-2.3551-5.2603-5.2603 2.3552-5.2603 5.2603-5.2603 5.2604 2.3551 5.2604 5.2603z" fill="url(#a)"/>
  </g>
  <path d="m499.87 285.77v57.388c0 1.8844 1.6471 4.4144 3.5316 4.4144h37.081c-21.144-17.391-34.488-38.363-40.613-61.802z" fill="#dedede"/>
  <path transform="matrix(1.0319 0 0 1.0319 -210.62 193.29)" d="m707.1 137.84c0 3.3215-2.6926 6.014-6.014 6.014s-6.014-2.6926-6.014-6.014 2.6926-6.014 6.014-6.014 6.014 2.6926 6.014 6.014z" fill="url(#e)" fill-rule="evenodd"/>
  <path transform="matrix(-.19434 .33661 -.33661 -.19434 530.49 654.46)" d="m-673.9 449.61c0 7.732-6.2642 14-13.992 14s-13.992-6.268-13.992-14 6.2642-14 13.992-14 13.992 6.268 13.992 14z" fill="url(#d)" fill-rule="evenodd"/>
  <path transform="matrix(-.1868 .32355 -.32355 -.1868 529.81 642.08)" d="m-673.9 449.61c0 7.732-6.2642 14-13.992 14s-13.992-6.268-13.992-14 6.2642-14 13.992-14 13.992 6.268 13.992 14z" fill="url(#c)" fill-rule="evenodd"/>
  <g transform="matrix(.39958 -.69208 .69208 .39958 -1150.9 812.75)" fill-rule="evenodd">
   <path d="m1561 1509.4c-1.4775-0.9199-3.2848-1.9215-5.769 0 0.4-2.6921-1.0244-4.0309-2.8845-4.9825 1.8852-0.8459 3.1957-2.1989 2.8845-4.9825 2.0365 1.4935 3.9477 1.3378 5.769 0-0.3106 2.2053 0.5333 3.9165 2.8845 4.9825-2.0865 0.6958-3.0751 2.3334-2.8845 4.9825z" fill="url(#b)" stroke="#4d4d4d" stroke-width=".25027"/>
   <path transform="matrix(.60126 0 0 .60126 617.65 583.5)" d="m1569.4 1531.6c0 2.9052-2.3552 5.2603-5.2604 5.2603s-5.2603-2.3551-5.2603-5.2603 2.3552-5.2603 5.2603-5.2603 5.2604 2.3551 5.2604 5.2603z" fill="url(#a)"/>
  </g>
  <path d="m739.04 298.57c-3.8149 9.0046-14.027 24.781-14.027 24.781h18.224l-4.1976-24.781z" fill="#42454c" stroke="#42454c"/>
  <path d="m749.13 217.56s0.66359 21.308-0.27179 31.9c0.24582 26.183-8.5806 52.779-24.336 73.887" fill="none" stroke="#000" stroke-width="1.7"/>
  <path transform="matrix(1 0 0 .9848 0 4.8352)" d="m723.93 323.05s2.772 0.881 4.0479 0.17105c1.348-0.75005 8.3672-5.3784 8.7707-5.1177l15.452 9.9832 1.06 125.94c0.0502 5.9681-7.0168 10.627-12.609 12.712l-16.621 0.1497-0.61905-20.968 19.439 4.2092 1.2602 13.251 4.8764-3.3811 0.06115-126.7 0.0279 0.17854-11.967-8.32-10.149 1.6031c-0.62616-0.5792-1.1324-0.74951-1.6218-1.435l-1.5852-2.2209 0.17774-0.0557v-4e-5z" fill="#101010" filter="url(#al)"/>
  <path d="m543.54 351.55-43.438 0.40625c2.2865 7.0584 5.1137 13.968 5.3438 21.094l1.75 54.188c0.4221 13.073-3.8508 25.96-7.0938 38.875 9.994-3.9271 20.042-8.3366 30.531-8.3125l55.094 0.125c12.387 0.0285 24.663 4.5672 37.219 8.1875v-40.938l-9.4614-8.9951c-8.2504 9.266-21.408 14.81-34.791 14.81-24.878 0-44.748-20.437-44.748-45.315 0-12.164 4.8201-23.208 12.656-31.312l-3.0625-2.8125z" fill="#dedede"/>
  <g transform="matrix(.99958 .53711 -.39461 .74348 566.1 182.23)">
   <path d="m111.44 192.06h3.6925v34.177h-3.6925v-34.177" fill="#008000" fill-rule="evenodd"/>
   <g transform="translate(-.050077 -2.0654)" fill="#999" stroke="#808080" stroke-width=".20465">
    <path d="m111.82 228.08 0.19943-33.783v33.826"/>
    <path d="m112.53 228.08 0.19944-33.783v33.826"/>
    <path d="m113.24 228.08 0.19944-33.783v33.826"/>
    <path d="m113.95 228.08 0.19943-33.783v33.826"/>
    <path d="m114.65 228.08 0.19943-33.783v33.826"/>
   </g>
  </g>
  <path transform="matrix(1.039 0 0 1.075 -21.251 -31.984)" d="m617.19 369.76 0.33745-0.59751 24.942-28.296-0.15051-0.14587 26.556-25.505 9.2414-12.78-3.0294-2.2906-13.421 8.1529-27.021 25.943-29.651 24.882c-1.8051 1.247-3.7391 2.5129-5.7705 3.7815l0.42016-0.29119-54.219 49.027c3.5275 6.0588 8.4667 11.236 14.414 15.044l57.351-56.923z" fill="#2c2c2c" fill-opacity=".4968" fill-rule="evenodd" filter="url(#an)"/>
  <path transform="translate(44.632 83.479)" d="m538.06 302.3c0 2.0541-1.6652 3.7193-3.7193 3.7193s-3.7193-1.6652-3.7193-3.7193 1.6652-3.7193 3.7193-3.7193 3.7193 1.6652 3.7193 3.7193z" fill="#f00" fill-rule="evenodd" stroke="#800000" stroke-linecap="round" stroke-linejoin="round" stroke-width=".86"/>
  <path transform="matrix(.93209 .035964 -.027352 .92387 83.638 83.361)" d="m543.02 306.57c0 1.2173-0.98679 2.204-2.2041 2.204s-2.204-0.98679-2.204-2.204 0.98679-2.2041 2.204-2.2041 2.2041 0.98679 2.2041 2.2041z" fill="none" stroke="#f0f" stroke-linecap="round" stroke-linejoin="round" stroke-width=".92623"/>
  <path d="m668.62 294.61-10.937 10.14-27.021 25.943-29.651 24.882c-20.635 14.255-58.112 30.981-65.341 26.05-2.359 24.294 15.431 45.895 39.725 48.254 34.41 0.11158 10.417-12.177 20.618-33.222l15.047-31.042 27.426-28.296-1.6408-1.6362 26.556-26.002 8.7447-12.284-3.5262-2.7873z" fill="url(#z)" fill-rule="evenodd"/>
  <g transform="matrix(1.0718 .0061412 -.0062344 1.088 -36.673 -41.071)" fill-rule="evenodd">
   <path d="m613.19 365.76 0.33745-0.59751 24.942-28.296-0.15051-0.14587 26.556-25.505 9.2414-12.78-3.0294-2.2906-13.421 8.1529-27.021 25.943-29.651 24.882c-1.8051 1.247-3.7391 2.5129-5.7705 3.7815l0.42016-0.29119-54.219 49.027c3.5275 6.0588 8.4667 11.236 14.414 15.044l57.351-56.923z" fill="url(#ab)"/>
   <path transform="matrix(.63289,.77424,-.72328,.69056,0,0)" d="m679.48-321.41h3.6831v8.4104h-3.6831v-8.4104" fill="#cecece"/>
   <path transform="matrix(.63289,.77424,-.72328,.69056,0,0)" d="m679.18-307.65h3.6831v8.4104h-3.6831v-8.4104" fill="#cecece"/>
   <path transform="matrix(.63289,.77424,-.72328,.69056,0,0)" d="m679.25-293.82h3.6831v8.4104h-3.6831v-8.4104" fill="#cecece"/>
   <path transform="matrix(.57528,.81795,-.71469,.69945,0,0)" d="m689.26-328.43h3.7208v17.708h-3.7208v-17.708" fill="#cecece"/>
   <path transform="matrix(.69517,.71884,-.75251,.65858,0,0)" d="m666.17-276.11h2.7137v6.2949h-2.7137v-6.2949" fill="url(#aa)"/>
  </g>
  <path transform="matrix(1.0319 0 0 1.0319 -144.69 245.14)" d="m707.1 137.84c0 3.3215-2.6926 6.014-6.014 6.014s-6.014-2.6926-6.014-6.014 2.6926-6.014 6.014-6.014 6.014 2.6926 6.014 6.014z" fill="url(#o)" fill-rule="evenodd"/>
  <g transform="translate(48.838 -193.61)" fill-rule="evenodd">
   <path transform="matrix(1.0319 0 0 1.0319 -253.63 414.13)" d="m707.1 137.84c0 3.3215-2.6926 6.014-6.014 6.014s-6.014-2.6926-6.014-6.014 2.6926-6.014 6.014-6.014 6.014 2.6926 6.014 6.014z" fill="#333" stroke="url(#g)"/>
   <path transform="matrix(.24025 -.41612 .41612 .24025 -543.31 839.28)" d="m1569.4 1531.6c0 2.9052-2.3552 5.2603-5.2604 5.2603s-5.2603-2.3551-5.2603-5.2603 2.3552-5.2603 5.2603-5.2603 5.2604 2.3551 5.2604 5.2603z" fill="#1a1a1a"/>
   <path transform="matrix(1.2209 0 0 1.2217 88.184 15.207)" d="m314.55 446.49h-4.0765l-2.0382-3.5303 2.0382-3.5303h4.0765l2.0382 3.5303z" fill="#aeaeae" stroke="url(#f)" stroke-linecap="round" stroke-linejoin="round" stroke-width=".49129"/>
   <path transform="matrix(1.1379 0 0 1.1379 110.04 48.274)" d="m318.55 446.56c0 1.4018-1.1364 2.5382-2.5382 2.5382s-2.5382-1.1364-2.5382-2.5382 1.1364-2.5382 2.5382-2.5382 2.5382 1.1364 2.5382 2.5382z"/>
   <path d="m467.75 554.14c0.82508-0.61146 1.8656-0.86987 2.8883-0.46024 1.4426 0.57788 2.1744 2.1216 1.797 3.5877 0.25322-1.3997-0.50969-2.828-1.8812-3.3774-0.95744-0.3835-1.9223-0.17222-2.7284 0.34826" fill="#fff"/>
  </g>
  <g transform="translate(48.838 -113.89)" fill-rule="evenodd">
   <path transform="matrix(1.0319 0 0 1.0319 -253.63 414.13)" d="m707.1 137.84c0 3.3215-2.6926 6.014-6.014 6.014s-6.014-2.6926-6.014-6.014 2.6926-6.014 6.014-6.014 6.014 2.6926 6.014 6.014z" fill="#333" stroke="url(#g)"/>
   <path transform="matrix(.24025 -.41612 .41612 .24025 -543.31 839.28)" d="m1569.4 1531.6c0 2.9052-2.3552 5.2603-5.2604 5.2603s-5.2603-2.3551-5.2603-5.2603 2.3552-5.2603 5.2603-5.2603 5.2604 2.3551 5.2604 5.2603z" fill="#1a1a1a"/>
   <path transform="matrix(1.2209 0 0 1.2217 88.184 15.207)" d="m314.55 446.49h-4.0765l-2.0382-3.5303 2.0382-3.5303h4.0765l2.0382 3.5303z" fill="#aeaeae" stroke="url(#f)" stroke-linecap="round" stroke-linejoin="round" stroke-width=".49129"/>
   <path transform="matrix(1.1379 0 0 1.1379 110.04 48.274)" d="m318.55 446.56c0 1.4018-1.1364 2.5382-2.5382 2.5382s-2.5382-1.1364-2.5382-2.5382 1.1364-2.5382 2.5382-2.5382 2.5382 1.1364 2.5382 2.5382z"/>
   <path d="m467.75 554.14c0.82508-0.61146 1.8656-0.86987 2.8883-0.46024 1.4426 0.57788 2.1744 2.1216 1.797 3.5877 0.25322-1.3997-0.50969-2.828-1.8812-3.3774-0.95744-0.3835-1.9223-0.17222-2.7284 0.34826" fill="#fff"/>
  </g>
  <path transform="matrix(1.0319 0 0 1.0319 -115.52 300.24)" d="m707.1 137.84c0 3.3215-2.6926 6.014-6.014 6.014s-6.014-2.6926-6.014-6.014 2.6926-6.014 6.014-6.014 6.014 2.6926 6.014 6.014z" fill="url(#e)" fill-rule="evenodd"/>
  <path transform="matrix(-.19434 .33661 -.33661 -.19434 625.6 761.41)" d="m-673.9 449.61c0 7.732-6.2642 14-13.992 14s-13.992-6.268-13.992-14 6.2642-14 13.992-14 13.992 6.268 13.992 14z" fill="url(#d)" fill-rule="evenodd"/>
  <path transform="matrix(-.1868 .32355 -.32355 -.1868 624.91 749.03)" d="m-673.9 449.61c0 7.732-6.2642 14-13.992 14s-13.992-6.268-13.992-14 6.2642-14 13.992-14 13.992 6.268 13.992 14z" fill="url(#c)" fill-rule="evenodd"/>
  <g transform="matrix(.39958 -.69208 .69208 .39958 -1055.8 919.7)" fill-rule="evenodd">
   <path d="m1561 1509.4c-1.4775-0.9199-3.2848-1.9215-5.769 0 0.4-2.6921-1.0244-4.0309-2.8845-4.9825 1.8852-0.8459 3.1957-2.1989 2.8845-4.9825 2.0365 1.4935 3.9477 1.3378 5.769 0-0.3106 2.2053 0.5333 3.9165 2.8845 4.9825-2.0865 0.6958-3.0751 2.3334-2.8845 4.9825z" fill="url(#b)" stroke="#4d4d4d" stroke-width=".25027"/>
   <path transform="matrix(.60126 0 0 .60126 617.65 583.5)" d="m1569.4 1531.6c0 2.9052-2.3552 5.2603-5.2604 5.2603s-5.2603-2.3551-5.2603-5.2603 2.3552-5.2603 5.2603-5.2603 5.2604 2.3551 5.2604 5.2603z" fill="url(#a)"/>
  </g>
  <g transform="matrix(.99999 -.0051923 .0043702 .84166 551.11 260.6)">
   <path d="m111.44 192.06h3.6925v34.177h-3.6925v-34.177" fill="#008000" fill-rule="evenodd"/>
   <g transform="translate(-.050077 -2.0654)" fill="#999" stroke="#808080" stroke-width=".218">
    <path d="m111.82 228.08 0.19943-33.783v33.826"/>
    <path d="m112.53 228.08 0.19944-33.783v33.826"/>
    <path d="m113.24 228.08 0.19944-33.783v33.826"/>
    <path d="m113.95 228.08 0.19943-33.783v33.826"/>
    <path d="m114.65 228.08 0.19943-33.783v33.826"/>
   </g>
  </g>
  <g transform="matrix(.9271 0 0 1 54.24 0)" fill-rule="evenodd">
   <path d="m662.37 419.81h77.643c2.216 0 4 1.8905 4 4.2388l-0.16636 25.18-19.156-0.0303 0.15757 15.593h-53.162l-13.095 0.0674-0.2217-22.777v-18.034c0-2.3483 1.784-4.2388 4-4.2388v5e-5 -2e-5z" fill="url(#v)"/>
   <path d="m662.37 419.81h77.643c2.216 0 4 1.7765 4 3.9833h-85.643c0-2.2067 1.784-3.9833 4-3.9833z" fill="url(#u)"/>
  </g>
  <path d="m663.36 437.57 0.08316-5.5308c0.90452-36.806-24.562-55.825-59.403-42.423l-8.5899 15.691 3.7577-0.04545 6.9327-11.639c34.841-13.401 57.224 7.3715 57.219 43.947z" fill="url(#ac)"/>
  <path d="m597.08 404.25 7.5756-13.914c17.624-6.3324 34.316-7.2998 48.165 8.1022" fill="none" stroke="url(#n)" stroke-width=".2"/>
  <path d="m597.08 404.25 7.5756-13.914c17.624-6.3324 34.316-7.2998 48.165 8.1022" fill="none" stroke="url(#n)" stroke-width=".2"/>
  <path d="m597.07 404.78 7.5756-13.914c17.624-6.3324 34.316-7.2998 48.165 8.1022" fill="none" stroke="url(#ad)" stroke-width=".2"/>
  <path d="m597.52 404.72 7.2045-13.193c17.624-6.3324 34.316-7.2998 48.165 8.1022" fill="none" stroke="url(#ae)" stroke-width=".2"/>
  <path d="m597.98 405.04 6.7936-12.573c17.624-6.3324 34.316-7.2998 48.165 8.1022" fill="none" stroke="url(#af)" stroke-width=".2"/>
  <g transform="translate(246.33 -113.89)" fill-rule="evenodd">
   <path transform="matrix(1.0319 0 0 1.0319 -253.63 414.13)" d="m707.1 137.84c0 3.3215-2.6926 6.014-6.014 6.014s-6.014-2.6926-6.014-6.014 2.6926-6.014 6.014-6.014 6.014 2.6926 6.014 6.014z" fill="#333" stroke="url(#g)"/>
   <path transform="matrix(.24025 -.41612 .41612 .24025 -543.31 839.28)" d="m1569.4 1531.6c0 2.9052-2.3552 5.2603-5.2604 5.2603s-5.2603-2.3551-5.2603-5.2603 2.3552-5.2603 5.2603-5.2603 5.2604 2.3551 5.2604 5.2603z" fill="#1a1a1a"/>
   <path transform="matrix(1.2209 0 0 1.2217 88.184 15.207)" d="m314.55 446.49h-4.0765l-2.0382-3.5303 2.0382-3.5303h4.0765l2.0382 3.5303z" fill="#aeaeae" stroke="url(#f)" stroke-linecap="round" stroke-linejoin="round" stroke-width=".49129"/>
   <path transform="matrix(1.1379 0 0 1.1379 110.04 48.274)" d="m318.55 446.56c0 1.4018-1.1364 2.5382-2.5382 2.5382s-2.5382-1.1364-2.5382-2.5382 1.1364-2.5382 2.5382-2.5382 2.5382 1.1364 2.5382 2.5382z"/>
   <path d="m467.75 554.14c0.82508-0.61146 1.8656-0.86987 2.8883-0.46024 1.4426 0.57788 2.1744 2.1216 1.797 3.5877 0.25322-1.3997-0.50969-2.828-1.8812-3.3774-0.95744-0.3835-1.9223-0.17222-2.7284 0.34826" fill="#fff"/>
  </g>
  <g transform="translate(406.25 -419)" fill-rule="evenodd">
   <path transform="matrix(1.0319 0 0 1.0319 -396 409.1)" d="m707.1 137.84c0 3.3215-2.6926 6.014-6.014 6.014s-6.014-2.6926-6.014-6.014 2.6926-6.014 6.014-6.014 6.014 2.6926 6.014 6.014z" fill="#333" stroke="#000"/>
   <path transform="matrix(1.1379 0 0 1.1379 -32.328 43.245)" d="m318.55 446.56c0 1.4018-1.1364 2.5382-2.5382 2.5382s-2.5382-1.1364-2.5382-2.5382 1.1364-2.5382 2.5382-2.5382 2.5382 1.1364 2.5382 2.5382z"/>
   <path d="m325.38 549.11c0.82508-0.61146 1.8656-0.86987 2.8883-0.46024 1.4426 0.57788 2.1744 2.1216 1.797 3.5877 0.25322-1.3997-0.50969-2.828-1.8812-3.3774-0.95744-0.3835-1.9223-0.17222-2.7284 0.34826" fill="#fff"/>
  </g>
  <g transform="translate(406.25 -71.931)" fill-rule="evenodd">
   <path transform="matrix(1.0319 0 0 1.0319 -396 409.1)" d="m707.1 137.84c0 3.3215-2.6926 6.014-6.014 6.014s-6.014-2.6926-6.014-6.014 2.6926-6.014 6.014-6.014 6.014 2.6926 6.014 6.014z" fill="#333" stroke="#000"/>
   <path transform="matrix(1.1379 0 0 1.1379 -32.328 43.245)" d="m318.55 446.56c0 1.4018-1.1364 2.5382-2.5382 2.5382s-2.5382-1.1364-2.5382-2.5382 1.1364-2.5382 2.5382-2.5382 2.5382 1.1364 2.5382 2.5382z"/>
   <path d="m325.38 549.11c0.82508-0.61146 1.8656-0.86987 2.8883-0.46024 1.4426 0.57788 2.1744 2.1216 1.797 3.5877 0.25322-1.3997-0.50969-2.828-1.8812-3.3774-0.95744-0.3835-1.9223-0.17222-2.7284 0.34826" fill="#fff"/>
  </g>
  <g transform="translate(185.37 -71.931)" fill-rule="evenodd">
   <path transform="matrix(1.0319 0 0 1.0319 -396 409.1)" d="m707.1 137.84c0 3.3215-2.6926 6.014-6.014 6.014s-6.014-2.6926-6.014-6.014 2.6926-6.014 6.014-6.014 6.014 2.6926 6.014 6.014z" fill="#333" stroke="#000"/>
   <path transform="matrix(1.1379 0 0 1.1379 -32.328 43.245)" d="m318.55 446.56c0 1.4018-1.1364 2.5382-2.5382 2.5382s-2.5382-1.1364-2.5382-2.5382 1.1364-2.5382 2.5382-2.5382 2.5382 1.1364 2.5382 2.5382z"/>
   <path d="m325.38 549.11c0.82508-0.61146 1.8656-0.86987 2.8883-0.46024 1.4426 0.57788 2.1744 2.1216 1.797 3.5877 0.25322-1.3997-0.50969-2.828-1.8812-3.3774-0.95744-0.3835-1.9223-0.17222-2.7284 0.34826" fill="#fff"/>
  </g>
  <path d="m708.93 347.44 14.567-18.012 8.4784-5.0141 15.724 7.5812-22.427 46.114-6.7609 1.8464-9.5814-32.516z" fill="url(#ag)" fill-rule="evenodd"/>
  <g transform="translate(263.88 -218.87)" fill-rule="evenodd">
   <path transform="matrix(1.0319 0 0 1.0319 -253.63 414.13)" d="m707.1 137.84c0 3.3215-2.6926 6.014-6.014 6.014s-6.014-2.6926-6.014-6.014 2.6926-6.014 6.014-6.014 6.014 2.6926 6.014 6.014z" fill="#333" stroke="url(#t)"/>
   <path transform="matrix(.24025 -.41612 .41612 .24025 -543.31 839.28)" d="m1569.4 1531.6c0 2.9052-2.3552 5.2603-5.2604 5.2603s-5.2603-2.3551-5.2603-5.2603 2.3552-5.2603 5.2603-5.2603 5.2604 2.3551 5.2604 5.2603z" fill="#1a1a1a"/>
   <path transform="matrix(1.2209 0 0 1.2217 88.184 15.207)" d="m314.55 446.49h-4.0765l-2.0382-3.5303 2.0382-3.5303h4.0765l2.0382 3.5303z" fill="#aeaeae" stroke="url(#s)" stroke-linecap="round" stroke-linejoin="round" stroke-width=".49129"/>
   <path transform="matrix(1.1379 0 0 1.1379 110.04 48.274)" d="m318.55 446.56c0 1.4018-1.1364 2.5382-2.5382 2.5382s-2.5382-1.1364-2.5382-2.5382 1.1364-2.5382 2.5382-2.5382 2.5382 1.1364 2.5382 2.5382z"/>
   <path d="m467.75 554.14c0.82508-0.61146 1.8656-0.86987 2.8883-0.46024 1.4426 0.57788 2.1744 2.1216 1.797 3.5877 0.25322-1.3997-0.50969-2.828-1.8812-3.3774-0.95744-0.3835-1.9223-0.17222-2.7284 0.34826" fill="#fff"/>
  </g>
  <path d="m662.86 442.04 0.08316-5.5308c0.90452-36.806-24.562-55.825-59.403-42.423l-8.5899 15.691 3.7577-0.04545 6.9327-11.639c34.841-13.401 57.224 7.3715 57.219 43.947z" filter="url(#ao)"/>
 </g>
</svg>
